<svg xmlns="http://www.w3.org/2000/svg" xmlns:xlink="http://www.w3.org/1999/xlink" width="1200" zoomAndPan="magnify" viewBox="0 0 900 899.99999" height="1200" preserveAspectRatio="xMidYMid meet" version="1.0"><defs><filter x="0%" y="0%" width="100%" height="100%" id="cd228f73bb"><feColorMatrix values="0 0 0 0 1 0 0 0 0 1 0 0 0 0 1 0 0 0 1 0" color-interpolation-filters="sRGB"/></filter><mask id="353423ba2f"><g filter="url(#cd228f73bb)"><rect x="-90" width="1080" fill="#000000" y="-89.999999" height="1079.999988" fill-opacity="0.15"/></g></mask><clipPath id="c27978ea5c"><path d="M 689 0 L 767 0 L 767 122 L 689 122 Z M 689 0 " clip-rule="nonzero"/></clipPath><clipPath id="eeae64fdd4"><path d="M 0 410 L 88 410 L 88 435 L 0 435 Z M 0 410 " clip-rule="nonzero"/></clipPath><clipPath id="7607085971"><path d="M 0 492 L 69 492 L 69 508 L 0 508 Z M 0 492 " clip-rule="nonzero"/></clipPath><clipPath id="a2c39c3986"><path d="M 0 265 L 52 265 L 52 286 L 0 286 Z M 0 265 " clip-rule="nonzero"/></clipPath><clipPath id="4d34f85f49"><path d="M 274 0 L 330 0 L 330 21 L 274 21 Z M 274 0 " clip-rule="nonzero"/></clipPath><clipPath id="f57ccde2dd"><path d="M 787 0 L 808 0 L 808 31 L 787 31 Z M 787 0 " clip-rule="nonzero"/></clipPath><clipPath id="985f375392"><path d="M 0 55 L 29 55 L 29 76 L 0 76 Z M 0 55 " clip-rule="nonzero"/></clipPath><clipPath id="9642f9cb06"><path d="M 0 625 L 3 625 L 3 629 L 0 629 Z M 0 625 " clip-rule="nonzero"/></clipPath><clipPath id="7511744408"><rect x="0" width="900" y="0" height="900"/></clipPath></defs><g mask="url(#353423ba2f)"><g transform="matrix(1, 0, 0, 1, 0, 0.000000000000108392)"><g clip-path="url(#7511744408)"><path fill="#f0f3f3" d="M 821.148438 890.007812 C 815.894531 887.304688 810.511719 884.839844 805.136719 882.382812 C 798.417969 879.316406 791.15625 877.125 785.019531 873.175781 C 777.554688 868.375 769.261719 867.945312 761.367188 867.996094 C 752.796875 868.050781 744.296875 869.960938 737.050781 866.257812 C 733.757812 866.503906 734.28125 869.722656 731.613281 870.039062 C 728.851562 867.769531 725.25 866.910156 721.433594 866.664062 C 719.730469 866.554688 717.984375 866.117188 716.824219 864.789062 C 713.253906 860.679688 708.757812 857.269531 706.445312 852.1875 C 701.675781 841.699219 694.585938 832.910156 686.804688 824.585938 C 685.242188 822.914062 683.339844 821.417969 682.90625 818.761719 C 683.820312 816.113281 685.144531 813.40625 685.683594 810.550781 C 688.53125 795.457031 695.417969 781.414062 697.191406 766.058594 C 697.640625 762.167969 699.46875 758.027344 696.695312 754.457031 C 694.601562 751.753906 693.894531 748.765625 693.65625 745.621094 C 693.03125 737.40625 692.300781 729.179688 692.203125 720.949219 C 692.121094 714.273438 690.792969 708.8125 685.277344 704.167969 C 678.542969 698.5 673.769531 691.226562 673.03125 681.984375 C 673 681.613281 672.617188 681.261719 672.230469 680.625 C 669.859375 678.71875 665.882812 678.96875 663.917969 675.710938 C 661.8125 672.21875 658.574219 669.804688 655.460938 667.234375 C 649.589844 662.398438 643.789062 657.460938 638.511719 651.949219 C 635.839844 649.164062 633.535156 646.191406 632.128906 642.585938 C 630.25 637.769531 627.273438 633.757812 623.535156 630.191406 C 618.933594 625.792969 614.8125 620.9375 611.773438 615.308594 C 607.777344 607.914062 601.925781 602.238281 595.785156 596.640625 C 585.808594 587.539062 577.707031 577.152344 576.03125 563.058594 C 575.882812 561.828125 575.519531 560.527344 574.90625 559.460938 C 571.273438 553.144531 568.734375 546.527344 568.378906 539.136719 C 568.300781 537.519531 567.308594 535.953125 566.785156 534.347656 C 565.945312 531.746094 565.1875 529.132812 566.582031 526.921875 C 568.542969 525.585938 569.234375 528.640625 570.902344 527.410156 C 570.628906 524.183594 567.777344 523.023438 566.820312 522.015625 C 563.035156 511.703125 558.464844 502.542969 563.0625 492.429688 C 559.921875 488.945312 559.097656 485.316406 561.171875 481.183594 C 562.207031 479.113281 561.449219 477.058594 560.480469 475.109375 C 559.449219 473.035156 558.472656 470.9375 557.792969 469.523438 C 557.339844 466.746094 559.632812 465.460938 558.914062 462.355469 C 556.792969 458.242188 554.777344 452.921875 552.601562 447.722656 C 550.15625 441.875 548.296875 436.425781 549.285156 430.121094 C 549.4375 429.164062 549 428.015625 548.554688 427.089844 C 547.414062 424.714844 547.632812 422.136719 547.144531 419.671875 C 544.898438 408.183594 544.703125 396.179688 538.511719 385.359375 C 539.839844 382.605469 538.667969 379.304688 539.648438 376.523438 C 541.46875 373.910156 545.21875 373.410156 545.519531 369.933594 C 545.363281 368.265625 544.398438 367.039062 543.308594 366.105469 C 540.195312 363.433594 539.386719 359.777344 538.464844 356.066406 C 537.3125 351.421875 537.550781 346.78125 538.578125 342.25 C 539.8125 336.816406 538.554688 332.023438 535.164062 327.980469 C 527.117188 318.394531 522.667969 307.082031 518.734375 295.464844 C 517.398438 291.527344 516.125 287.144531 513.910156 284.054688 C 510.53125 279.34375 511.292969 275.257812 512.011719 270.351562 C 513.839844 257.878906 518.242188 245.753906 517.242188 232.878906 C 517.144531 231.609375 517.566406 230.363281 519.101562 229.117188 C 529.601562 227.296875 536.445312 218.578125 545.179688 212.914062 C 546.304688 208.378906 548.9375 205.421875 553.515625 204.375 C 555.574219 203.902344 556.828125 202.753906 556.714844 200.484375 C 550.945312 199.460938 546.949219 202.335938 543.332031 206.113281 C 543.039062 206.417969 542.730469 206.71875 542.398438 206.972656 C 533.847656 213.429688 526.035156 221.109375 514.789062 223.503906 C 509.65625 230.539062 511.347656 240.417969 505.441406 247.023438 C 507.308594 254.578125 502.878906 261.742188 505.175781 269.019531 C 505.226562 269.183594 505.097656 269.4375 504.996094 269.617188 C 501.203125 276.507812 503.535156 282.652344 507.351562 288.582031 C 508.261719 290 509.207031 291.246094 509.382812 293.09375 C 510.066406 300.296875 513.234375 306.699219 518.066406 311.722656 C 522.445312 316.273438 524.78125 321.695312 527.363281 327.101562 C 528.40625 329.28125 529.589844 331.136719 531.628906 332.4375 C 533.039062 333.339844 534.617188 334.085938 535.640625 336.621094 C 534.085938 342.804688 533.902344 349.9375 532.875 355.734375 C 532.714844 359.34375 535.714844 359.109375 536.429688 361.292969 C 536.148438 362.332031 533.953125 362.058594 534.222656 363.707031 C 534.703125 366.644531 533.414062 369.699219 534.503906 372.53125 C 535.871094 376.085938 535.566406 379.433594 533.84375 382.527344 C 539.210938 390.417969 539.984375 399.351562 541.625 407.949219 C 543.9375 420.085938 543.480469 432.621094 546.902344 444.644531 C 547.773438 447.703125 548.425781 450.675781 550.191406 453.417969 C 552.027344 456.269531 553.1875 459.523438 553.339844 462.957031 C 553.582031 468.472656 554.980469 473.816406 555.589844 479.265625 C 556.523438 487.640625 555.773438 496.03125 555.582031 504.429688 C 555.433594 510.71875 555.886719 517.644531 558.132812 523.515625 C 559.625 527.414062 560.320312 531.097656 560.371094 534.960938 C 560.40625 537.78125 560.621094 540.570312 561.6875 543.007812 C 564.660156 549.773438 565.722656 557.269531 569.886719 563.117188 C 567.121094 572.4375 573.121094 578.871094 576.070312 586.257812 C 575.4375 588.515625 574.222656 590.378906 572.695312 592.214844 C 567.425781 598.542969 560.90625 603.015625 553.347656 606.171875 C 548.867188 608.042969 544.507812 610.210938 540.117188 612.296875 C 538 613.296875 536.015625 614.5 534.601562 616.988281 C 535.152344 623.820312 532.082031 630.640625 533.21875 637.234375 C 530.183594 640.761719 526.125 639.042969 523.308594 641.128906 C 520.613281 643.125 517.714844 644.855469 514.839844 646.59375 C 509.171875 650.027344 509.15625 650 507.957031 653.167969 C 510.90625 651.824219 514.015625 651.144531 516.101562 649.308594 C 520.589844 645.367188 525.433594 642.925781 531.34375 643.164062 C 535.527344 639.921875 538.050781 635.984375 538.078125 631.453125 C 539.167969 629.21875 541.476562 629.351562 542.101562 627.484375 C 541.328125 624.601562 537.359375 623.828125 537.253906 620.085938 C 541.5 615.414062 547.355469 612.902344 552.96875 610.039062 C 561.949219 605.449219 571.402344 601.453125 575.773438 590.691406 C 581.09375 594.546875 586.007812 598.078125 590.882812 601.660156 C 596.933594 606.101562 601.492188 611.703125 605.167969 618.320312 C 608.214844 623.804688 611.8125 629.3125 617.195312 632.800781 C 621.503906 635.59375 624.347656 639.203125 626.644531 643.585938 C 627.90625 645.996094 628.71875 648.632812 630.75 650.675781 C 637.15625 657.113281 643.4375 663.640625 650.648438 669.257812 C 655.960938 673.402344 661.625 677.460938 665.128906 683.347656 C 668.894531 689.679688 673.257812 695.671875 676.171875 702.53125 C 677.558594 705.785156 679.449219 708.855469 682.269531 711.304688 C 683.808594 712.636719 685.503906 714.617188 685.734375 716.476562 C 686.578125 723.300781 688.339844 730.214844 688.113281 736.90625 C 687.859375 744.375 687.941406 751.160156 692.394531 757.390625 C 692.605469 757.6875 692.507812 758.207031 692.574219 758.78125 C 691.707031 761.886719 690.121094 764.867188 689.464844 768.246094 C 686.800781 781.9375 682.9375 795.324219 678.359375 808.5 C 676.46875 813.9375 675.511719 819.511719 675.324219 825.269531 C 675.21875 828.332031 676.179688 830.65625 678.808594 832.203125 C 683.421875 834.914062 685.574219 838.878906 684.894531 845.039062 C 687.628906 844.027344 690.292969 843.722656 691.988281 846.097656 C 696.167969 851.941406 699.960938 858.117188 701.644531 865.117188 C 702.429688 868.382812 703.34375 871.207031 705.890625 873.269531 C 708.742188 875.578125 709.210938 878.21875 708.417969 881.71875 C 707.488281 885.824219 707.347656 890.078125 708.59375 894.015625 C 710.507812 896.371094 714.863281 895.875 714.652344 899.988281 C 717.613281 899.988281 720.578125 899.988281 723.539062 899.988281 C 718.328125 893.6875 714.375 886.898438 714.351562 878.34375 C 714.34375 875.570312 715.183594 873.359375 717.089844 871.539062 C 720.238281 868.53125 723.503906 869.578125 725.628906 874.425781 C 722.824219 876.699219 718.097656 877.464844 717.976562 882.515625 C 721.109375 881.917969 732.097656 875.007812 736.570312 870.816406 C 742.277344 874.546875 748.566406 871.691406 754.730469 871.625 C 762.964844 871.535156 771.210938 871.3125 778.917969 874.484375 C 797.984375 882.328125 817.335938 889.570312 835.246094 899.988281 C 842.859375 899.988281 850.476562 899.988281 858.09375 899.988281 C 856.628906 898.953125 854.945312 898.917969 853.238281 898.855469 C 841.84375 898.433594 831.246094 895.195312 821.148438 890.007812 Z M 821.148438 890.007812 " fill-opacity="1" fill-rule="nonzero"/><path fill="#f0f3f3" d="M 674.539062 849.570312 C 671.375 853.566406 667.082031 855.449219 662.664062 857.59375 C 658.101562 859.804688 652.507812 860.761719 649.953125 866.300781 C 649.136719 868.078125 646.785156 868.089844 644.804688 867.378906 C 642.8125 866.664062 640.820312 866.207031 638.625 866.378906 C 629.210938 867.117188 620.3125 865.40625 612.125 860.285156 C 610.660156 861 609.207031 862.195312 607.628906 862.394531 C 598.382812 863.554688 589.691406 867.117188 580.511719 868.488281 C 576.203125 869.128906 571.550781 869.253906 567.632812 870.421875 C 559.992188 872.699219 552.164062 874.480469 544.664062 877.339844 C 540.070312 879.09375 537.503906 883.84375 532.539062 884.800781 C 532.398438 884.832031 532.308594 885.132812 532.1875 885.328125 C 532.503906 886.285156 533.960938 886.605469 533.621094 888.078125 C 532.582031 889.628906 531.179688 890.691406 529.117188 890.222656 C 527.355469 888.960938 529.375 886.703125 527.679688 885.570312 C 526.953125 885.082031 526.136719 884.921875 525.195312 885.855469 C 524.824219 887.257812 527.339844 888.53125 525.503906 890.714844 C 520.332031 891.089844 516.140625 895.886719 510.179688 895.652344 C 508.914062 896.871094 507.914062 898.1875 507.746094 899.984375 C 510.285156 899.984375 512.820312 899.984375 515.359375 899.984375 C 516.488281 897.351562 518.578125 896.554688 521.332031 896.125 C 528.257812 895.039062 534.410156 891.800781 540.519531 888.496094 C 553.394531 881.527344 565.894531 873.445312 581.472656 874.125 C 583.636719 874.214844 585.511719 873.023438 587.515625 872.402344 C 591.339844 871.21875 594.726562 868.625 598.796875 868.441406 C 603.746094 868.21875 608.300781 866.851562 612.25 864.804688 C 622.085938 867.730469 631.542969 870.195312 641.25 871.507812 C 643.175781 871.679688 643.890625 874.027344 645.984375 874.101562 C 648.089844 873.296875 648.546875 869.980469 651.457031 870.574219 C 652.464844 871.5 651.980469 872.535156 651.878906 873.5625 C 651.015625 882.355469 648.953125 891.054688 649.917969 899.980469 C 651.1875 899.980469 652.457031 899.980469 653.726562 899.980469 C 653.5625 894.679688 654.15625 889.347656 655.445312 884.316406 C 656.523438 880.082031 657.042969 876.339844 655.839844 872.046875 C 654.496094 867.238281 656.367188 864.023438 660.949219 861.726562 C 663.203125 860.597656 665.667969 859.898438 667.988281 858.886719 C 673.507812 856.484375 677.449219 852.367188 681.015625 847.152344 C 677.710938 846.140625 675.851562 847.917969 674.539062 849.570312 Z M 544.683594 882.410156 C 543.761719 881.171875 544.574219 880.554688 545.546875 880.117188 C 546.316406 879.773438 547.109375 879.816406 547.640625 880.8125 C 547.464844 882.707031 546.28125 882.898438 544.683594 882.410156 Z M 544.683594 882.410156 " fill-opacity="1" fill-rule="nonzero"/><g clip-path="url(#c27978ea5c)"><path fill="#f0f3f3" d="M 719.023438 105.222656 C 719.453125 104.289062 720.15625 103.414062 720.921875 102.71875 C 728.257812 96.054688 736.101562 90.308594 747.007812 89.242188 C 745.078125 84.589844 747.015625 80.667969 749.554688 76.980469 C 751.175781 74.625 751.3125 72.367188 750.070312 69.84375 C 748.3125 66.292969 749.28125 63.015625 752.09375 60.679688 C 757.039062 56.574219 760.433594 50.679688 766.484375 47.675781 C 760.535156 49.765625 753.40625 49.648438 750.304688 57.699219 C 747.613281 51.71875 744.199219 46.652344 743.421875 40.269531 C 739.210938 37.585938 737.433594 33.453125 736.996094 28.574219 C 736.761719 25.996094 735.707031 23.746094 734.324219 21.542969 C 731.691406 17.355469 731.847656 14.996094 734.765625 11.199219 C 737.351562 7.828125 740.304688 4.855469 744.480469 3.457031 C 744.222656 2.0625 744.035156 1.027344 743.847656 -0.00390625 C 740.039062 -0.00390625 736.230469 -0.00390625 732.425781 -0.00390625 C 733.59375 0.875 734.757812 1.753906 735.898438 2.609375 C 732.78125 11.34375 731.195312 13.714844 726.503906 17.121094 C 721.136719 16.382812 715.046875 16.753906 710.964844 12.1875 C 706.75 7.480469 701.328125 4.597656 696.390625 0.96875 C 696.066406 0.730469 695.867188 0.324219 695.613281 -0.00390625 C 693.496094 -0.00390625 691.382812 -0.00390625 689.265625 -0.00390625 C 690.195312 1.703125 691.441406 3.6875 693.195312 3.890625 C 697.269531 4.363281 699.199219 7.523438 701.878906 9.761719 C 708.0625 14.925781 714.503906 19.554688 723.644531 20.152344 C 724.25 24.285156 728.816406 23.941406 731.40625 26.171875 C 733.847656 35.738281 739.066406 44.007812 742.695312 52.945312 C 744.21875 56.707031 746.617188 59.875 744.882812 64.167969 C 744.617188 64.820312 745.007812 65.800781 745.230469 66.589844 C 747.574219 74.832031 744.46875 82.390625 737.023438 86.78125 C 731.425781 90.082031 725.882812 93.480469 720.351562 96.886719 C 718.738281 97.878906 717.007812 98.910156 716.308594 100.765625 C 715.273438 103.515625 712.914062 104.984375 710.945312 106.753906 C 710.015625 108.511719 711.316406 110.699219 709.5 112.378906 C 707.703125 113.738281 705.78125 115.390625 703.660156 116.726562 C 701.660156 117.984375 700.03125 119.386719 699.585938 121.78125 C 707.746094 118.246094 715.101562 113.777344 719.023438 105.222656 Z M 719.023438 105.222656 " fill-opacity="1" fill-rule="nonzero"/></g><path fill="#f0f3f3" d="M 699.582031 121.777344 C 699.53125 121.796875 699.480469 121.820312 699.429688 121.84375 C 699.417969 121.875 699.402344 121.902344 699.386719 121.933594 C 699.4375 121.953125 699.492188 121.972656 699.542969 121.992188 C 699.554688 121.917969 699.566406 121.851562 699.582031 121.777344 Z M 699.582031 121.777344 " fill-opacity="1" fill-rule="nonzero"/><path fill="#f0f3f3" d="M 398.996094 778.445312 C 399.097656 776.835938 398.242188 776.183594 396.808594 776.1875 C 392.269531 778.289062 389.15625 782.160156 385.453125 784.90625 C 380.4375 784.09375 377.214844 779.398438 371.460938 779.484375 C 374.601562 783.425781 379.84375 783.367188 382.828125 787.582031 C 377.640625 788.929688 372.703125 788.339844 368.464844 791.152344 C 364.121094 794.035156 362.535156 798.691406 360.332031 802.078125 C 347.960938 806.8125 340.121094 814.742188 337.5 827.332031 C 333.675781 826.078125 333.265625 823.007812 332.648438 820.539062 C 331.453125 815.757812 329.035156 811.609375 327.0625 807.199219 C 325.054688 802.710938 321.050781 799.414062 319.851562 794.640625 C 318.28125 788.398438 315.671875 783.121094 309.101562 780.9375 C 308.109375 775.5625 308.945312 770.070312 305.347656 765.210938 C 303.890625 769.707031 306.199219 773.511719 305.996094 777.394531 C 305.789062 781.339844 307.5 783.347656 310.886719 785.285156 C 315.871094 788.144531 318.804688 792.640625 317.3125 798.226562 C 323.015625 806.75 328.011719 815.023438 330.988281 824.359375 C 333.085938 830.925781 333.320312 831.21875 340.167969 832.496094 C 343.382812 850.398438 351.367188 866.929688 357.414062 883.996094 C 356.78125 885.960938 354.5625 886.878906 354.757812 889.515625 C 356.773438 892.472656 357.753906 896.328125 359.222656 899.984375 C 360.492188 899.984375 361.761719 899.984375 363.03125 899.984375 C 360.53125 895.164062 359.929688 889.964844 360.308594 884.671875 C 360.484375 882.234375 360.023438 880.125 358.992188 877.96875 C 352.773438 864.945312 347.757812 851.546875 345.699219 837.136719 C 345.3125 834.421875 345.414062 832.199219 346.695312 829.898438 C 346.835938 829.644531 346.515625 829.136719 346.40625 828.742188 C 345.015625 827.296875 343.242188 830.460938 341.902344 828.347656 C 342.238281 814.234375 352.5 806.273438 362.527344 804.949219 C 363.46875 803.738281 364.722656 802.523438 365.5 801.054688 C 368.375 795.605469 372.636719 792.492188 378.875 791.679688 C 384.730469 790.917969 389.746094 788.339844 392.585938 782.753906 C 393.792969 780.382812 395.8125 779.640625 398.238281 779.40625 C 398.515625 779.378906 398.734375 778.792969 398.996094 778.445312 Z M 398.996094 778.445312 " fill-opacity="1" fill-rule="nonzero"/><path fill="#f0f3f3" d="M 899.980469 128.199219 C 899.980469 127.355469 899.980469 126.507812 899.980469 125.660156 C 894.765625 121.699219 889.492188 117.8125 886.066406 112.007812 C 885.554688 111.144531 884.742188 110.316406 883.871094 109.828125 C 871.144531 102.675781 861.695312 91.738281 851.457031 81.730469 C 849.679688 79.996094 847.878906 77.863281 847.117188 75.570312 C 843.273438 64.003906 832.445312 58.433594 825.375 49.667969 C 819.085938 46.78125 815.496094 41.238281 811.972656 35.726562 C 810.453125 33.355469 808.601562 31.617188 806.136719 30.433594 C 806.117188 30.476562 806.101562 30.515625 806.082031 30.554688 C 806.054688 30.542969 806.03125 30.527344 806 30.515625 C 806.214844 32.542969 805.558594 34.625 806.3125 36.476562 C 810.160156 40.828125 812.832031 46.105469 817.578125 49.335938 C 823.917969 53.660156 828.824219 59.460938 834.359375 64.609375 C 838.355469 68.328125 841.089844 72.722656 842.285156 77.988281 C 842.835938 80.417969 844.078125 82.203125 845.921875 83.703125 C 855.925781 91.824219 864.804688 101.136719 874.054688 110.0625 C 875.105469 111.078125 876.164062 112.398438 877.460938 112.789062 C 881.25 113.933594 883.226562 116.863281 885.25 119.828125 C 887.53125 123.171875 889.851562 126.457031 894.605469 126.492188 C 895.636719 132.175781 898.34375 136.976562 899.980469 142.164062 C 899.980469 138.777344 899.980469 135.394531 899.980469 132.007812 C 897.386719 129.222656 897.386719 129.175781 899.980469 128.199219 Z M 899.980469 128.199219 " fill-opacity="1" fill-rule="nonzero"/><g clip-path="url(#eeae64fdd4)"><path fill="#f0f3f3" d="M 87.535156 434.808594 C 84.011719 427.339844 81.738281 420.601562 76.574219 415.3125 C 73.335938 416.046875 70.597656 415.152344 67.714844 414.472656 C 60.007812 412.652344 52.617188 409.175781 44.28125 410.34375 C 35.332031 411.597656 26.300781 412.300781 17.304688 413.222656 C 16.050781 413.351562 14.710938 413.621094 13.527344 413.339844 C 8.765625 412.210938 4.347656 413.296875 -0.00390625 415.078125 C -0.00390625 418.460938 -0.00390625 421.847656 -0.00390625 425.230469 C 4.238281 423.933594 1.589844 419.511719 3.882812 416.894531 C 11.632812 418.042969 19.507812 416.449219 27.445312 416.042969 C 31.214844 415.851562 34.992188 416.558594 38.773438 415.503906 C 44.789062 413.828125 50.757812 414.070312 56.84375 415.804688 C 62.441406 417.398438 68.09375 419.542969 73.679688 417.847656 C 77.726562 419.402344 78.746094 422.625 79.988281 425.820312 C 81.292969 429.171875 82.535156 432.746094 87.535156 434.808594 Z M 87.535156 434.808594 " fill-opacity="1" fill-rule="nonzero"/></g><g clip-path="url(#7607085971)"><path fill="#f0f3f3" d="M 66.390625 492.769531 C 61.105469 494.066406 55.636719 493.648438 50.28125 494.988281 C 41.164062 497.265625 31.847656 499.027344 22.507812 500.027344 C 14.722656 500.867188 7.359375 502.886719 -0.0078125 505.207031 C -0.0078125 506.050781 -0.0078125 506.898438 -0.0078125 507.746094 C 10.824219 505.226562 21.683594 502.960938 32.828125 502.179688 C 40.363281 501.652344 47.820312 499.875 55.121094 498.253906 C 59.449219 497.296875 63.90625 495.257812 68.375 493.855469 C 67.695312 493.414062 66.929688 492.632812 66.390625 492.769531 Z M 66.390625 492.769531 " fill-opacity="1" fill-rule="nonzero"/></g><path fill="#f0f3f3" d="M 68.371094 493.855469 C 68.414062 493.886719 68.460938 493.910156 68.5 493.9375 C 68.539062 493.894531 68.578125 493.847656 68.617188 493.800781 C 68.617188 493.792969 68.617188 493.785156 68.617188 493.777344 C 68.535156 493.800781 68.453125 493.828125 68.371094 493.855469 Z M 68.371094 493.855469 " fill-opacity="1" fill-rule="nonzero"/><g clip-path="url(#a2c39c3986)"><path fill="#f0f3f3" d="M 18.785156 281.152344 C 24.773438 279.238281 29.648438 281.464844 34.359375 283.78125 C 38.414062 285.777344 44.519531 286.3125 51.019531 283.855469 C 46.53125 283.808594 43.542969 283.0625 40.601562 282.097656 C 38.394531 281.375 36.570312 279.875 34.210938 279.40625 C 26.535156 277.886719 19.324219 275.097656 12.347656 271.5 C 8.261719 269.390625 4.71875 266.132812 -0.00390625 265.292969 C -0.00390625 266.984375 -0.00390625 268.675781 -0.00390625 270.367188 C 6.648438 273.386719 14.152344 274.832031 18.785156 281.152344 Z M 18.785156 281.152344 " fill-opacity="1" fill-rule="nonzero"/></g><g clip-path="url(#4d34f85f49)"><path fill="#f0f3f3" d="M 284.894531 19.636719 C 286.648438 19.796875 287.472656 17.964844 289.296875 18.878906 C 293.070312 20.773438 297.730469 20.492188 301.191406 19.617188 C 306.230469 18.347656 311.0625 18.886719 315.972656 18.503906 C 320.574219 18.144531 325.164062 17.613281 329.757812 17.160156 C 321.113281 14.46875 312.582031 16.300781 304.082031 16.84375 C 299.589844 17.132812 295.332031 17.523438 291.835938 14.796875 C 289.988281 15.230469 288.875 16.554688 287.480469 16.164062 C 283.199219 11.414062 277.636719 7.484375 279.253906 -0.0078125 C 277.5625 -0.0078125 275.867188 -0.0078125 274.175781 -0.0078125 C 276.546875 7.289062 277.835938 15.191406 284.894531 19.636719 Z M 284.894531 19.636719 " fill-opacity="1" fill-rule="nonzero"/></g><g clip-path="url(#f57ccde2dd)"><path fill="#f0f3f3" d="M 806.136719 30.433594 C 808.167969 25.824219 807.410156 21.851562 804.453125 17.574219 C 800.382812 11.675781 796.46875 5.671875 792.085938 -0.0078125 C 790.394531 -0.0078125 788.699219 -0.0078125 787.007812 -0.0078125 C 787.300781 0.539062 787.503906 1.171875 787.90625 1.621094 C 794.949219 9.519531 801.234375 17.867188 804 28.34375 C 804.277344 29.402344 805.054688 30.054688 806.003906 30.511719 C 806 30.460938 805.996094 30.410156 805.988281 30.359375 C 806.039062 30.382812 806.085938 30.410156 806.136719 30.433594 Z M 806.136719 30.433594 " fill-opacity="1" fill-rule="nonzero"/></g><path fill="#f0f3f3" d="M 888.949219 200.25 C 886.382812 201.210938 883.890625 200.226562 881.496094 200.160156 C 872.367188 205.230469 867.632812 208.757812 866.109375 212.21875 C 874.691406 207.777344 883.683594 204.414062 892.75 201.183594 C 895.3125 200.269531 897.472656 199.726562 899.980469 200.554688 C 899.980469 199.707031 899.980469 198.863281 899.980469 198.011719 C 894.832031 195.109375 894.832031 195.109375 888.949219 200.25 Z M 888.949219 200.25 " fill-opacity="1" fill-rule="nonzero"/><g clip-path="url(#985f375392)"><path fill="#f0f3f3" d="M 6.167969 66.984375 C 11.574219 68.804688 16.769531 71.035156 21.492188 74.265625 C 23.789062 75.835938 26.007812 76.4375 28.203125 74 C 19.980469 71.242188 13.417969 65.246094 4.878906 63.289062 C 3.679688 60.390625 2.191406 57.867188 -0.0078125 55.84375 C -0.0078125 59.230469 -0.0078125 62.613281 -0.0078125 66 C 2.113281 65.933594 4.136719 66.296875 6.167969 66.984375 Z M 6.167969 66.984375 " fill-opacity="1" fill-rule="nonzero"/></g><path fill="#f0f3f3" d="M 878.898438 405.121094 C 877.695312 404.570312 876.472656 403.386719 874.632812 404.558594 C 878.257812 406.757812 881.660156 409.101562 885.90625 408.230469 C 890.625 407.261719 895.484375 406.84375 899.980469 404.925781 C 899.980469 404.5 899.980469 404.078125 899.980469 403.65625 C 895.625 404.339844 891.25 404.933594 886.914062 405.746094 C 884.144531 406.265625 881.53125 406.324219 878.898438 405.121094 Z M 878.898438 405.121094 " fill-opacity="1" fill-rule="nonzero"/><path fill="#f0f3f3" d="M 375.730469 899.980469 C 379.535156 899.980469 383.34375 899.980469 387.152344 899.980469 C 383.34375 896.664062 379.535156 897.644531 375.730469 899.980469 Z M 375.730469 899.980469 " fill-opacity="1" fill-rule="nonzero"/><g clip-path="url(#9642f9cb06)"><path fill="#f0f3f3" d="M 2.453125 627.003906 C 1.941406 626.078125 1.023438 625.835938 -0.0078125 625.796875 C -0.0078125 626.644531 -0.0078125 627.488281 -0.0078125 628.335938 C 0.871094 628.09375 2.066406 628.488281 2.453125 627.003906 Z M 2.453125 627.003906 " fill-opacity="1" fill-rule="nonzero"/></g><path fill="#f0f3f3" d="M 310.890625 388.359375 C 310.910156 389.660156 312.035156 391.101562 314.167969 391.28125 C 315.976562 390.066406 317.996094 388.707031 320.792969 386.824219 C 317.019531 385.777344 313.886719 385.496094 311.773438 382.792969 C 305.703125 375.015625 298.289062 368.996094 288.695312 365.988281 C 287.308594 365.550781 286 364.765625 284.753906 363.980469 C 272.105469 356.042969 259.226562 348.492188 247.367188 339.296875 C 241.585938 334.820312 237.664062 329.363281 235.058594 322.816406 C 232.871094 317.324219 231.535156 311.558594 230.621094 305.695312 C 230.253906 303.335938 230.382812 301.191406 231.175781 298.886719 C 232.785156 294.199219 232.714844 289.363281 231.621094 284.523438 C 230.3125 278.714844 229.363281 272.90625 232.414062 267.273438 C 233.023438 266.152344 233.03125 264.878906 233.023438 263.574219 C 233 257.75 232.394531 252.152344 227.445312 248.214844 C 229.449219 243.886719 230.777344 239.992188 228.945312 235.652344 C 223.707031 240.128906 222.097656 246.589844 224.574219 252.683594 C 225.808594 255.734375 227.363281 258.667969 227.925781 261.785156 C 225.890625 263.074219 224.824219 261.054688 222.875 261.441406 C 222.90625 263.648438 224.207031 264.835938 225.246094 266.136719 C 226.632812 267.875 227.273438 269.859375 227.222656 272.027344 C 227.0625 278.570312 227.039062 285.132812 226.539062 291.652344 C 226.304688 294.664062 226.34375 297.515625 227.160156 300.402344 C 229.230469 307.734375 230.488281 315.226562 231.195312 322.800781 C 231.457031 325.636719 232.4375 328.121094 234.074219 330.398438 C 237.785156 335.558594 241.933594 340.210938 247.253906 343.878906 C 254.902344 349.148438 262.367188 354.703125 268.714844 361.582031 C 269.421875 362.347656 270.265625 363.152344 271.207031 363.503906 C 277.917969 366 284.523438 369.058594 291.460938 370.582031 C 296.367188 371.660156 300.207031 373.820312 303.335938 377.210938 C 306.347656 380.484375 310.8125 382.902344 310.890625 388.359375 Z M 310.890625 388.359375 " fill-opacity="1" fill-rule="nonzero"/><path fill="#f0f3f3" d="M 289.773438 646.058594 C 290.757812 644.910156 290.636719 643.722656 290.28125 642.828125 C 287.550781 635.96875 286.777344 628.484375 283.59375 621.785156 C 282.570312 619.632812 282.484375 617.503906 282.40625 615.125 C 282.175781 607.808594 284.507812 600.546875 282.296875 592.273438 C 276.582031 587.9375 275.226562 580.539062 271.792969 574.726562 C 272.070312 572.828125 273.765625 571.996094 273.597656 570.289062 C 272.941406 568.582031 271.851562 566.863281 271.652344 565.046875 C 270.386719 553.441406 261.707031 546.703125 254.335938 539.40625 C 250.472656 535.578125 246.183594 532.148438 242.71875 527.871094 C 239.144531 523.464844 236.023438 518.699219 231.542969 515.027344 C 229.449219 513.3125 227.941406 510.882812 226.761719 508.375 C 223.203125 500.804688 217.0625 495.160156 212.0625 488.667969 C 211.328125 487.71875 210.476562 486.527344 208.554688 486.296875 C 210.132812 489.3125 211.90625 491.398438 213.476562 493.628906 C 217.089844 498.746094 221.980469 503.222656 223.355469 509.589844 C 224.226562 513.617188 226.113281 516.429688 229.367188 518.808594 C 233.964844 522.167969 238.277344 525.839844 240.527344 531.429688 C 241.453125 533.734375 242.898438 536.121094 245.105469 537.402344 C 252.609375 541.761719 256.839844 549.371094 263.023438 555.023438 C 265.296875 557.101562 266.203125 559.628906 266.601562 562.789062 C 267.367188 568.832031 268.117188 575.121094 271.375 580.382812 C 276.054688 587.9375 276.609375 596.75 279.65625 604.777344 C 280.066406 605.867188 279.867188 607.332031 279.550781 608.519531 C 278.695312 611.707031 279.574219 614.769531 279.746094 617.914062 C 280.195312 626.101562 283.902344 633.328125 286.023438 641.011719 C 286.574219 643 286.925781 645.648438 289.773438 646.058594 Z M 289.773438 646.058594 " fill-opacity="1" fill-rule="nonzero"/><path fill="#f0f3f3" d="M 161.023438 433.457031 C 164.445312 432.6875 164.601562 429.5 166.703125 427.730469 C 173.269531 427.316406 179.796875 426.070312 185.554688 422.152344 C 180.0625 422.273438 174.492188 422.347656 169.40625 423.949219 C 162.957031 425.984375 156.667969 426.324219 150.105469 425.492188 C 147.46875 425.160156 144.519531 426.402344 142.675781 423.421875 C 133.96875 426.246094 125.304688 424.289062 117.605469 428.171875 C 118.515625 430.316406 120.554688 430.984375 122.519531 432.109375 C 125.09375 430.378906 127.84375 430.292969 130.925781 430.859375 C 135.910156 431.777344 141.113281 431.753906 145.972656 430.597656 C 148.625 429.964844 150.808594 430.082031 153.289062 430.566406 C 156.203125 431.136719 158.824219 432.4375 161.023438 433.457031 Z M 161.023438 433.457031 " fill-opacity="1" fill-rule="nonzero"/><path fill="#f0f3f3" d="M 697.625 301.335938 C 702.472656 299.164062 708.367188 298.746094 713.253906 295.6875 C 719.679688 291.664062 726.320312 287.976562 732.367188 283.355469 C 737.234375 279.636719 742.660156 276.804688 747.945312 273.75 C 750.070312 272.519531 752.761719 271.441406 753.050781 268.3125 C 751.589844 267.863281 750.878906 268.269531 750.175781 268.761719 C 739.273438 276.367188 727.839844 283.132812 716.21875 289.535156 C 711.152344 292.332031 705.882812 295.65625 699.824219 295.535156 C 690.523438 295.347656 681.957031 296.914062 674.78125 303.292969 C 673.625 304.316406 672.171875 304.578125 670.789062 305.082031 C 669.015625 305.726562 667.363281 306.652344 667.199219 308.917969 C 670.9375 309.035156 671.484375 309.234375 672.882812 307.699219 C 676.078125 304.203125 680.375 303.121094 684.5625 301.777344 C 688.148438 300.628906 691.886719 299.964844 695.097656 298.324219 C 696.769531 298.933594 695.429688 301.140625 697.625 301.335938 Z M 697.625 301.335938 " fill-opacity="1" fill-rule="nonzero"/><path fill="#f0f3f3" d="M 641.089844 157.761719 C 648.253906 153.035156 656.078125 149.117188 660.730469 141.320312 C 661.648438 139.785156 662.898438 137.695312 664.9375 137.8125 C 667.589844 137.972656 668.664062 136.1875 670.09375 134.734375 C 674.957031 129.8125 680.457031 126.925781 687.359375 129.367188 C 689.300781 127.953125 690.746094 126.679688 693.105469 126.429688 C 695.738281 126.160156 698.214844 124.710938 699.386719 121.929688 C 697.324219 121.125 695.253906 120.3125 693.039062 119.449219 C 690.140625 122.222656 686.828125 123.757812 682.726562 123.234375 C 680.996094 123.015625 679.472656 123.910156 678.03125 124.859375 C 672.253906 128.660156 666.320312 132.21875 660.949219 136.621094 C 657.683594 139.300781 653.835938 141.4375 654.15625 146.242188 C 646.6875 147.550781 642.246094 154.511719 634.757812 154.253906 C 634.621094 154.25 634.476562 154.546875 634.332031 154.703125 C 633.734375 156.003906 633.980469 157.144531 635.046875 158.179688 C 637.082031 158.839844 639.203125 159.007812 641.089844 157.761719 Z M 641.089844 157.761719 " fill-opacity="1" fill-rule="nonzero"/><path fill="#f0f3f3" d="M 370.257812 356.113281 C 368.519531 356.855469 366.878906 357.835938 365.207031 358.738281 C 350.277344 366.765625 337.1875 377.558594 322.6875 386.648438 C 323.554688 389.484375 321.691406 392.355469 323.152344 395.078125 C 324.949219 394.734375 324.894531 393.503906 325.082031 392.546875 C 325.964844 388 328.800781 385.339844 332.84375 383.269531 C 336.957031 381.160156 340.757812 378.414062 344.601562 375.804688 C 360.855469 364.773438 378.664062 356.25 394.679688 344.828125 C 398.746094 341.925781 403.375 339.742188 406.050781 335.222656 C 403.882812 335.40625 402.394531 336.9375 400.683594 338.023438 C 390.722656 344.347656 381.207031 351.425781 370.257812 356.113281 Z M 370.257812 356.113281 " fill-opacity="1" fill-rule="nonzero"/><path fill="#f0f3f3" d="M 406.050781 335.21875 C 406.117188 335.214844 406.183594 335.203125 406.25 335.199219 C 406.300781 335.117188 406.355469 335.039062 406.402344 334.957031 C 406.3125 334.996094 406.226562 335.042969 406.136719 335.085938 C 406.105469 335.132812 406.078125 335.175781 406.050781 335.21875 Z M 406.050781 335.21875 " fill-opacity="1" fill-rule="nonzero"/><path fill="#f0f3f3" d="M 563.070312 192.675781 C 568.863281 188.828125 574.570312 184.847656 580.339844 180.957031 C 581.730469 180.019531 583.117188 178.859375 584.679688 178.433594 C 592.902344 176.199219 600.300781 172.40625 606.953125 167.132812 C 610.265625 164.507812 613.738281 162.152344 617.445312 160.105469 C 620.394531 158.480469 623.222656 156.613281 625.539062 154.09375 C 626.875 152.636719 626.960938 151.25 625.152344 149.34375 C 623.992188 152.296875 621.949219 154.015625 619.65625 155.480469 C 612.046875 160.34375 604.472656 165.257812 596.8125 170.039062 C 595.046875 171.144531 592.996094 172.527344 591.078125 172.523438 C 584.347656 172.511719 579.675781 176.371094 574.859375 180.167969 C 569.394531 184.472656 563.953125 188.800781 557.183594 191.015625 C 554.707031 191.828125 553.671875 193.769531 553.988281 197.070312 C 557.816406 196.167969 560.460938 194.410156 563.070312 192.675781 Z M 563.070312 192.675781 " fill-opacity="1" fill-rule="nonzero"/><path fill="#f0f3f3" d="M 756.78125 509.890625 C 753.429688 514.777344 749.042969 518.695312 744.84375 522.792969 C 739.847656 527.664062 734.585938 532.214844 728.957031 536.347656 C 726.605469 538.078125 724.941406 540.207031 725.339844 544.742188 C 728.789062 540.476562 731.589844 537.453125 734.941406 534.910156 C 744.671875 527.515625 753.808594 519.578125 762.195312 510.507812 C 772.363281 499.507812 782.320312 488.296875 792.597656 477.390625 C 793.988281 475.914062 795.679688 474.609375 795.71875 472.328125 C 792.183594 474.605469 789.121094 477.492188 786.371094 480.59375 C 777.558594 490.539062 768.992188 500.707031 758.113281 508.558594 C 757.605469 508.914062 757.132812 509.382812 756.78125 509.890625 Z M 756.78125 509.890625 " fill-opacity="1" fill-rule="nonzero"/><path fill="#f0f3f3" d="M 218.234375 695.609375 C 218.246094 695.628906 218.257812 695.644531 218.265625 695.664062 C 218.308594 695.664062 218.351562 695.660156 218.398438 695.65625 C 218.390625 695.625 218.378906 695.59375 218.371094 695.558594 C 218.328125 695.574219 218.28125 695.59375 218.234375 695.609375 Z M 218.234375 695.609375 " fill-opacity="1" fill-rule="nonzero"/><path fill="#f0f3f3" d="M 215.976562 693.59375 C 209.84375 690.757812 205 686.59375 202.125 680.316406 C 201.339844 678.601562 200.152344 677.117188 198.808594 675.71875 C 189.617188 666.136719 180.550781 656.445312 173.746094 644.910156 C 173.003906 643.648438 172.089844 642.367188 170.953125 641.484375 C 163.902344 636 160 628.183594 155.480469 620.835938 C 154.207031 618.765625 153.105469 616.648438 149.933594 614.449219 C 154.917969 625.042969 160.386719 633.628906 167.308594 641.316406 C 169.984375 644.289062 173.074219 647.285156 174.535156 650.859375 C 177.367188 657.773438 182.179688 662.898438 187.230469 668.023438 C 190.914062 671.761719 195.488281 675.152344 197.753906 679.65625 C 201.546875 687.207031 208.125 691.714844 213.4375 697.558594 C 215.25 696.824219 216.75 696.210938 218.238281 695.605469 C 217.746094 694.648438 216.949219 694.046875 215.976562 693.59375 Z M 215.976562 693.59375 " fill-opacity="1" fill-rule="nonzero"/><path fill="#f0f3f3" d="M 460.179688 684.464844 C 456.609375 685.535156 453.5 687.523438 449.90625 687.734375 C 445.445312 687.996094 442.027344 690.292969 438.433594 692.550781 C 434.695312 694.898438 431.832031 698.402344 427.566406 700.066406 C 421.925781 702.261719 417.8125 709.113281 418.203125 715.164062 C 418.277344 716.355469 418.597656 717.734375 420.800781 717.898438 C 420.839844 714.628906 422.070312 711.789062 423.910156 709.035156 C 426.316406 705.449219 429.597656 702.773438 432.777344 700.144531 C 437.386719 696.328125 441.949219 692.585938 448.671875 691.832031 C 452.929688 691.351562 457.882812 689.359375 460.179688 684.464844 Z M 460.179688 684.464844 " fill-opacity="1" fill-rule="nonzero"/><path fill="#f0f3f3" d="M 17.589844 554.761719 C 16.933594 551.46875 16.867188 551.484375 13.265625 549.5625 C 15.140625 555.25 14.507812 561.097656 15.777344 566.578125 C 16.941406 571.625 16.933594 576.527344 16.847656 581.59375 C 16.71875 589.128906 16.261719 596.726562 18.324219 604.84375 C 19.203125 603.910156 19.6875 603.640625 19.71875 603.328125 C 20.792969 592.160156 20.097656 581.007812 19.375 569.851562 C 19.042969 564.789062 18.582031 559.742188 17.589844 554.761719 Z M 17.589844 554.761719 " fill-opacity="1" fill-rule="nonzero"/><path fill="#f0f3f3" d="M 664.367188 443.1875 C 662.269531 449.710938 660.175781 456.238281 658.035156 462.910156 C 652.425781 463.992188 647.171875 464.363281 643.191406 467.421875 C 639.394531 470.332031 632.792969 469.71875 631.910156 476.65625 C 641.046875 470.035156 651.972656 467.753906 662.234375 463.457031 C 662.519531 456.523438 665.695312 450.246094 664.367188 443.1875 Z M 664.367188 443.1875 " fill-opacity="1" fill-rule="nonzero"/><path fill="#f0f3f3" d="M 40.503906 289.804688 C 39.925781 289.078125 39.183594 287.976562 37.707031 289.339844 C 41.367188 294.90625 45.722656 300.175781 47.851562 306.597656 C 52.421875 320.386719 61.730469 331.542969 68.476562 345.171875 C 69.125 343.707031 69.515625 343.246094 69.410156 342.988281 C 68.695312 341.234375 68.050781 339.421875 67.0625 337.824219 C 59.941406 326.335938 54.136719 314.179688 48.597656 301.882812 C 46.578125 297.40625 43.535156 293.601562 40.503906 289.804688 Z M 40.503906 289.804688 " fill-opacity="1" fill-rule="nonzero"/><path fill="#f0f3f3" d="M 383.566406 78.804688 C 383.539062 78.75 383.515625 78.695312 383.492188 78.636719 C 383.378906 78.578125 383.269531 78.523438 383.160156 78.46875 C 383.222656 78.574219 383.28125 78.675781 383.351562 78.773438 C 383.421875 78.785156 383.496094 78.796875 383.566406 78.804688 Z M 383.566406 78.804688 " fill-opacity="1" fill-rule="nonzero"/><path fill="#f0f3f3" d="M 388.21875 82.453125 C 391.445312 82.976562 394.175781 84.558594 396.917969 86.117188 C 398.933594 87.265625 401.003906 87.765625 403.28125 88.28125 C 407.839844 89.316406 412.933594 90.035156 415.722656 94.835938 C 416.199219 95.660156 417.273438 96.3125 418.214844 96.667969 C 421.804688 98.042969 424.003906 100.765625 425.875 103.925781 C 426.679688 105.28125 427.234375 107.15625 430.039062 106.707031 C 428.554688 101.902344 427.730469 97.3125 422.546875 94.476562 C 417.539062 91.730469 412.414062 89.230469 407.167969 87.148438 C 399.425781 84.074219 392.019531 79.90625 383.570312 78.804688 C 384.460938 80.84375 386.09375 82.105469 388.21875 82.453125 Z M 388.21875 82.453125 " fill-opacity="1" fill-rule="nonzero"/><path fill="#f0f3f3" d="M 298.789062 746.292969 C 297.785156 741.511719 296.238281 736.929688 294.414062 732.445312 C 293.605469 730.453125 293.132812 728.476562 292.929688 726.359375 C 292.441406 721.210938 291.824219 716.078125 291.140625 709.875 C 287.363281 721.597656 293.753906 750.359375 301.789062 759.957031 C 303.707031 758.316406 303.246094 756.660156 302.351562 755.636719 C 299.964844 752.914062 299.46875 749.53125 298.789062 746.292969 Z M 298.789062 746.292969 " fill-opacity="1" fill-rule="nonzero"/><path fill="#f0f3f3" d="M 826.9375 214.195312 C 829.132812 215.679688 830.5 216.992188 832.9375 217.070312 C 837.011719 214.464844 842.292969 213.121094 845.128906 208.71875 C 853.46875 207.273438 860.644531 203.679688 868.0625 200.8125 C 869.019531 200.441406 869.960938 199.867188 870.707031 199.171875 C 871.628906 198.308594 872.457031 197.226562 870.292969 195.574219 C 860.753906 204.335938 847.324219 203.820312 836.230469 208.257812 C 835.609375 210.53125 838.113281 210.5625 837.601562 212.132812 C 834.949219 215.652344 830.863281 213.300781 826.9375 214.195312 Z M 826.9375 214.195312 " fill-opacity="1" fill-rule="nonzero"/><path fill="#f0f3f3" d="M 690.789062 614.800781 C 696.304688 605.816406 694.789062 594.375 700.367188 585.523438 C 699.582031 583.992188 698.859375 583.042969 696.421875 583.667969 C 693.621094 588.59375 692.382812 594.113281 691.355469 599.691406 C 690.589844 603.863281 689.824219 608.011719 685.445312 610.648438 C 687.070312 612.472656 687.644531 614.65625 690.789062 614.800781 Z M 690.789062 614.800781 " fill-opacity="1" fill-rule="nonzero"/><path fill="#f0f3f3" d="M 245.949219 705.753906 C 236.640625 703.132812 227.289062 700.714844 218.890625 695.671875 C 218.765625 695.597656 218.578125 695.636719 218.398438 695.65625 C 219.445312 699.679688 222.390625 702.328125 225.160156 705.332031 C 230.234375 703.851562 234.789062 705.003906 239.199219 707.421875 C 241.410156 708.636719 243.769531 709.621094 246.148438 710.460938 C 249.195312 711.535156 252.316406 712.457031 256.066406 712.480469 C 252.980469 709.128906 250.238281 706.960938 245.949219 705.753906 Z M 245.949219 705.753906 " fill-opacity="1" fill-rule="nonzero"/><path fill="#f0f3f3" d="M 344.863281 26.566406 C 350.097656 38.652344 357.667969 47.394531 374.863281 60.457031 C 366.75 48.519531 355.226562 39.542969 347.300781 27.542969 C 346.96875 27.035156 346.417969 26.65625 345.933594 26.261719 C 345.800781 26.148438 345.519531 26.144531 345.332031 26.183594 C 344.503906 26.355469 345.621094 26.945312 344.863281 26.566406 Z M 344.863281 26.566406 " fill-opacity="1" fill-rule="nonzero"/><path fill="#f0f3f3" d="M 493.355469 659.800781 C 487.757812 666.976562 480.488281 671.746094 472.703125 676.046875 C 469.644531 677.738281 466.273438 679.148438 463.722656 682.273438 C 466.039062 684.507812 467.359375 683.015625 468.703125 682.183594 C 473.71875 679.085938 478.675781 675.894531 483.710938 672.835938 C 486.460938 671.164062 488.828125 669.238281 490.371094 666.3125 C 491.785156 663.632812 493.988281 661.886719 496.933594 660.777344 C 499.542969 659.796875 502.265625 658.492188 503.160156 655.121094 C 498.277344 655.171875 496.726562 655.472656 493.355469 659.800781 Z M 493.355469 659.800781 " fill-opacity="1" fill-rule="nonzero"/><path fill="#f0f3f3" d="M 105.097656 161.957031 C 112.125 166.011719 116.003906 174.105469 123.785156 177.617188 C 118.394531 170.882812 112.742188 164.441406 105.902344 159.152344 C 102.101562 156.214844 98.023438 153.6875 95.695312 149.070312 C 94.449219 146.601562 91.953125 144.742188 88.535156 145.242188 C 94.675781 150.238281 97.898438 157.796875 105.097656 161.957031 Z M 105.097656 161.957031 " fill-opacity="1" fill-rule="nonzero"/><path fill="#f0f3f3" d="M 710.425781 574.972656 C 714.179688 569.417969 717.730469 563.726562 721.292969 558.050781 C 721.921875 557.046875 722.777344 555.882812 721.324219 554.433594 C 717.492188 556.324219 718.03125 560.957031 715.644531 563.6875 C 713.027344 566.679688 710.164062 569.507812 707.902344 572.75 C 705.761719 575.808594 701.941406 577.140625 700.003906 580.3125 C 701.503906 581.757812 702.675781 581.398438 703.800781 580.699219 C 706.308594 579.136719 708.777344 577.417969 710.425781 574.972656 Z M 710.425781 574.972656 " fill-opacity="1" fill-rule="nonzero"/><path fill="#f0f3f3" d="M 64.101562 526.148438 C 63.917969 521.402344 65.40625 516.582031 63.273438 511.941406 C 60.546875 522.042969 60.089844 532.128906 62.628906 542.503906 C 64.824219 540.761719 65.011719 538.507812 64.601562 536.179688 C 64.015625 532.835938 64.230469 529.488281 64.101562 526.148438 Z M 64.101562 526.148438 " fill-opacity="1" fill-rule="nonzero"/><path fill="#f0f3f3" d="M 144.34375 606.050781 C 137.949219 599.097656 129.171875 594.75 123.476562 586.996094 C 122.925781 586.246094 121.722656 585.019531 120.460938 586.464844 C 127.4375 596.890625 137.898438 603.335938 147.414062 610.828125 C 147.4375 608.265625 145.589844 607.402344 144.34375 606.050781 Z M 144.34375 606.050781 " fill-opacity="1" fill-rule="nonzero"/><path fill="#f0f3f3" d="M 442.207031 314.660156 C 447.722656 312.238281 452.921875 309.070312 456.558594 303.855469 C 455.382812 303.1875 454.6875 303.839844 454.0625 304.285156 C 445.121094 310.667969 435.46875 315.761719 425.472656 320.269531 C 423.644531 321.097656 421.710938 321.921875 420.429688 323.628906 C 421.820312 323.589844 423.164062 323.476562 424.484375 322.816406 C 430.296875 319.898438 436.246094 317.277344 442.207031 314.660156 Z M 442.207031 314.660156 " fill-opacity="1" fill-rule="nonzero"/><path fill="#f0f3f3" d="M 420.425781 323.628906 C 420.351562 323.628906 420.273438 323.632812 420.199219 323.636719 C 420.125 323.726562 420.046875 323.820312 419.96875 323.910156 C 420.089844 323.863281 420.203125 323.8125 420.320312 323.765625 C 420.355469 323.71875 420.394531 323.675781 420.425781 323.628906 Z M 420.425781 323.628906 " fill-opacity="1" fill-rule="nonzero"/><path fill="#f0f3f3" d="M 232.421875 410.679688 C 238.578125 407.472656 244.984375 405.058594 251.644531 403.035156 C 254.476562 402.171875 258.410156 402.230469 260.046875 398.660156 C 247.90625 400.054688 237.21875 405.09375 226.351562 411.539062 C 229.277344 412.894531 230.839844 411.507812 232.421875 410.679688 Z M 232.421875 410.679688 " fill-opacity="1" fill-rule="nonzero"/><path fill="#f0f3f3" d="M 260.050781 398.660156 C 260.121094 398.652344 260.191406 398.644531 260.261719 398.636719 C 260.265625 398.589844 260.265625 398.546875 260.269531 398.5 C 260.222656 398.5 260.171875 398.5 260.125 398.5 C 260.101562 398.554688 260.074219 398.609375 260.050781 398.660156 Z M 260.050781 398.660156 " fill-opacity="1" fill-rule="nonzero"/><path fill="#f0f3f3" d="M 153.828125 206.535156 C 145.988281 198.484375 137.257812 191.636719 128.382812 184.957031 C 133.390625 192.679688 148.761719 205.851562 153.828125 206.535156 Z M 153.828125 206.535156 " fill-opacity="1" fill-rule="nonzero"/><path fill="#f0f3f3" d="M 100.898438 438.292969 C 106.519531 437.035156 111.257812 433.875 115.976562 430.429688 C 109.753906 431.238281 103.578125 431.964844 97.851562 435.195312 C 98.484375 437.675781 99.710938 438.558594 100.898438 438.292969 Z M 100.898438 438.292969 " fill-opacity="1" fill-rule="nonzero"/><path fill="#f0f3f3" d="M 197.914062 229.238281 C 204.894531 234.101562 212.871094 237.40625 219.226562 243.570312 C 221.789062 240.210938 219.714844 239.023438 217.542969 238.066406 C 211.390625 235.355469 205.738281 231.75 199.972656 228.34375 C 198.21875 227.308594 196.484375 226.207031 194.382812 226.007812 C 195.058594 227.621094 196.59375 228.320312 197.914062 229.238281 Z M 197.914062 229.238281 " fill-opacity="1" fill-rule="nonzero"/><path fill="#f0f3f3" d="M 194.386719 226.007812 C 194.367188 225.960938 194.34375 225.914062 194.324219 225.863281 C 194.234375 225.851562 194.140625 225.84375 194.050781 225.835938 C 194.109375 225.890625 194.15625 225.9375 194.214844 225.992188 C 194.273438 225.996094 194.328125 226.003906 194.386719 226.007812 Z M 194.386719 226.007812 " fill-opacity="1" fill-rule="nonzero"/><path fill="#f0f3f3" d="M 583.558594 349.867188 C 594.972656 345.324219 603.566406 336.972656 614.191406 332.214844 C 609.125 332.566406 587.375 345.289062 583.558594 349.867188 Z M 583.558594 349.867188 " fill-opacity="1" fill-rule="nonzero"/><path fill="#f0f3f3" d="M 40.796875 96.59375 C 40.753906 96.53125 40.714844 96.472656 40.671875 96.410156 C 40.628906 96.414062 40.585938 96.410156 40.542969 96.410156 C 40.550781 96.449219 40.558594 96.488281 40.566406 96.523438 C 40.648438 96.546875 40.722656 96.570312 40.796875 96.59375 Z M 40.796875 96.59375 " fill-opacity="1" fill-rule="nonzero"/><path fill="#f0f3f3" d="M 61.921875 119.476562 C 62.742188 120.316406 63.449219 121.53125 65.203125 120.753906 C 64.925781 119.445312 63.816406 118.824219 63 117.953125 C 57.996094 112.601562 52.871094 107.351562 48.125 101.777344 C 46.039062 99.324219 43.796875 97.515625 40.796875 96.59375 C 41.6875 97.921875 42.453125 99.375 43.542969 100.511719 C 49.617188 106.882812 55.773438 113.175781 61.921875 119.476562 Z M 61.921875 119.476562 " fill-opacity="1" fill-rule="nonzero"/><path fill="#f0f3f3" d="M 704.101562 687.183594 C 702.402344 685.691406 700.851562 685.558594 699.953125 687.023438 C 696.820312 692.136719 692.527344 696.59375 690.40625 703.695312 C 696.519531 698.335938 700.796875 693.167969 704.101562 687.183594 Z M 704.101562 687.183594 " fill-opacity="1" fill-rule="nonzero"/><path fill="#f0f3f3" d="M 634.765625 322.507812 C 628.785156 326.296875 623.332031 329.757812 617.871094 333.222656 C 624.765625 334.019531 631.765625 329.070312 634.765625 322.507812 Z M 634.765625 322.507812 " fill-opacity="1" fill-rule="nonzero"/><path fill="#f0f3f3" d="M 207.492188 415.453125 C 203.976562 416.199219 199.644531 415.394531 195.949219 419.515625 C 204.335938 418.164062 211.578125 416.867188 218.457031 414.023438 C 214.261719 411.539062 211.039062 414.703125 207.492188 415.453125 Z M 207.492188 415.453125 " fill-opacity="1" fill-rule="nonzero"/><path fill="#f0f3f3" d="M 454.378906 205.171875 C 451.648438 201.8125 448.796875 199.824219 448.3125 196.304688 C 447.871094 193.078125 447.871094 189.65625 445.171875 185.914062 C 443.503906 195.882812 446.148438 201.574219 454.378906 205.171875 Z M 454.378906 205.171875 " fill-opacity="1" fill-rule="nonzero"/><path fill="#f0f3f3" d="M 481.761719 281.835938 C 484.003906 279.554688 487.386719 277.921875 488.464844 273.019531 C 481.839844 277.734375 476.847656 282.246094 473.425781 288.363281 C 477.035156 287.140625 479.328125 284.3125 481.761719 281.835938 Z M 481.761719 281.835938 " fill-opacity="1" fill-rule="nonzero"/><path fill="#f0f3f3" d="M 291.320312 648.953125 C 287.703125 654.585938 288.277344 659.871094 287.402344 666.195312 C 290.941406 663.375 291.617188 660.6875 293.054688 657.597656 C 290.304688 655.84375 291.359375 652.730469 291.320312 648.953125 Z M 291.320312 648.953125 " fill-opacity="1" fill-rule="nonzero"/><path fill="#f0f3f3" d="M 649.066406 317.789062 C 654.003906 315.304688 658.96875 312.882812 664.355469 310.226562 C 659.277344 309.339844 650.257812 313.414062 645.046875 318.566406 C 646.460938 318.753906 647.765625 318.449219 649.066406 317.789062 Z M 649.066406 317.789062 " fill-opacity="1" fill-rule="nonzero"/><path fill="#f0f3f3" d="M 645.042969 318.566406 C 644.972656 318.554688 644.902344 318.550781 644.828125 318.542969 C 644.804688 318.589844 644.78125 318.636719 644.757812 318.683594 C 644.820312 318.675781 644.882812 318.671875 644.941406 318.664062 C 644.976562 318.632812 645.011719 318.601562 645.042969 318.566406 Z M 645.042969 318.566406 " fill-opacity="1" fill-rule="nonzero"/><path fill="#f0f3f3" d="M 97.140625 481.308594 C 90.964844 485.65625 83.730469 485.726562 78.171875 489.910156 C 85.992188 489.632812 94.953125 485.605469 97.140625 481.308594 Z M 97.140625 481.308594 " fill-opacity="1" fill-rule="nonzero"/><path fill="#f0f3f3" d="M 858.511719 394.59375 C 855.1875 398.34375 856.089844 403.21875 854.359375 407.238281 C 857.089844 407.03125 858.796875 404.847656 861.6875 403.914062 C 858.746094 401.109375 857.363281 398.304688 858.511719 394.59375 Z M 858.511719 394.59375 " fill-opacity="1" fill-rule="nonzero"/><path fill="#f0f3f3" d="M 87.992188 460.503906 C 88.675781 463.054688 90.710938 463.859375 94.339844 464.167969 C 90.71875 460.210938 90.777344 456.0625 90.148438 452.105469 C 87.0625 454.269531 87.152344 457.367188 87.992188 460.503906 Z M 87.992188 460.503906 " fill-opacity="1" fill-rule="nonzero"/><path fill="#f0f3f3" d="M 476.703125 889.59375 C 482.703125 890.757812 488.570312 890.4375 494.414062 889.445312 C 488.472656 888.089844 482.539062 886.890625 476.703125 889.59375 Z M 476.703125 889.59375 " fill-opacity="1" fill-rule="nonzero"/><path fill="#f0f3f3" d="M 74 488.417969 C 71.804688 489.714844 70.304688 491.855469 68.621094 493.800781 C 68.621094 495.398438 66.519531 496.390625 67.421875 498.699219 C 70.960938 497.367188 73.136719 494.820312 74.820312 491.730469 C 75.460938 490.550781 75.734375 489.382812 74 488.417969 Z M 74 488.417969 " fill-opacity="1" fill-rule="nonzero"/><path fill="#f0f3f3" d="M 456.882812 891.941406 C 461.355469 892.367188 465.917969 893.15625 469.574219 889.5 C 465.273438 889.972656 460.691406 888.589844 456.882812 891.941406 Z M 456.882812 891.941406 " fill-opacity="1" fill-rule="nonzero"/><path fill="#f0f3f3" d="M 435.078125 894.210938 C 439.285156 894.992188 442.953125 893.382812 446.707031 892.429688 C 438.957031 890.664062 437.441406 890.929688 435.078125 894.210938 Z M 435.078125 894.210938 " fill-opacity="1" fill-rule="nonzero"/><path fill="#f0f3f3" d="M 255.25 717.03125 C 258.035156 721.535156 260.964844 725.910156 265.902344 728.519531 C 263.902344 723.320312 260.238281 719.589844 255.25 717.03125 Z M 255.25 717.03125 " fill-opacity="1" fill-rule="nonzero"/><path fill="#f0f3f3" d="M 821.523438 223.296875 C 826.167969 221.875 826.167969 221.875 827.605469 218 C 822.414062 217.535156 822.324219 217.601562 821.523438 223.296875 Z M 821.523438 223.296875 " fill-opacity="1" fill-rule="nonzero"/><path fill="#f0f3f3" d="M 842.394531 419.089844 C 844.988281 416.46875 848.433594 415.003906 851.003906 412.4375 C 852.402344 411.035156 854.1875 409.8125 854.15625 407.515625 C 850.042969 411.164062 844.734375 413.601562 842.394531 419.089844 Z M 842.394531 419.089844 " fill-opacity="1" fill-rule="nonzero"/><path fill="#f0f3f3" d="M 854.152344 407.515625 C 854.199219 407.472656 854.246094 407.433594 854.292969 407.390625 C 854.316406 407.339844 854.335938 407.289062 854.355469 407.238281 C 854.285156 407.246094 854.21875 407.253906 854.144531 407.257812 C 854.152344 407.34375 854.152344 407.429688 854.152344 407.515625 Z M 854.152344 407.515625 " fill-opacity="1" fill-rule="nonzero"/><path fill="#f0f3f3" d="M 406.402344 334.957031 C 411.847656 332.410156 416.179688 328.492188 419.96875 323.910156 C 414.304688 326.183594 409.605469 329.652344 406.402344 334.957031 Z M 406.402344 334.957031 " fill-opacity="1" fill-rule="nonzero"/><path fill="#f0f3f3" d="M 493.035156 200.820312 C 493.179688 191.265625 493.179688 191.265625 491.164062 188.289062 C 490.789062 192.46875 488.28125 196.519531 493.035156 200.820312 Z M 493.035156 200.820312 " fill-opacity="1" fill-rule="nonzero"/><path fill="#f0f3f3" d="M 420.542969 895.105469 C 423.421875 894.0625 427.269531 896.273438 430.101562 891.929688 C 425.3125 890.585938 422.667969 892.144531 420.542969 895.105469 Z M 420.542969 895.105469 " fill-opacity="1" fill-rule="nonzero"/><path fill="#f0f3f3" d="M 514.09375 888.511719 C 510.117188 886.351562 506.945312 889.449219 502.300781 889.585938 C 507.472656 894.25 510.363281 887.992188 514.09375 888.511719 Z M 514.09375 888.511719 " fill-opacity="1" fill-rule="nonzero"/><path fill="#f0f3f3" d="M 108.183594 573.890625 C 109.015625 569.113281 109.015625 569.113281 107.449219 564.433594 C 105.019531 571.328125 105.019531 571.328125 108.183594 573.890625 Z M 108.183594 573.890625 " fill-opacity="1" fill-rule="nonzero"/><path fill="#f0f3f3" d="M 855.570312 220.960938 C 858.34375 218.671875 860.429688 216.398438 861.453125 212.800781 C 856.566406 214.46875 855.363281 216.136719 855.570312 220.960938 Z M 855.570312 220.960938 " fill-opacity="1" fill-rule="nonzero"/><path fill="#f0f3f3" d="M 263.582031 396.835938 C 262.605469 394.1875 261.8125 391.132812 259.128906 387.253906 C 259.113281 392.035156 260.609375 395.207031 260.265625 398.5 C 261.464844 398.496094 262.730469 398.636719 263.582031 396.835938 Z M 263.582031 396.835938 " fill-opacity="1" fill-rule="nonzero"/><path fill="#f0f3f3" d="M 520.796875 385.316406 C 517.632812 388.941406 518.332031 391.003906 523.480469 393.625 C 522.5625 390.773438 521.710938 388.144531 520.796875 385.316406 Z M 520.796875 385.316406 " fill-opacity="1" fill-rule="nonzero"/><path fill="#f0f3f3" d="M 706.597656 661.0625 C 704.175781 666.363281 704.519531 670.703125 707.035156 675.070312 C 706.566406 670.78125 707.296875 666.339844 706.597656 661.0625 Z M 706.597656 661.0625 " fill-opacity="1" fill-rule="nonzero"/><path fill="#f0f3f3" d="M 90.1875 451.816406 C 90.164062 451.855469 90.144531 451.890625 90.125 451.933594 C 90.132812 451.992188 90.140625 452.046875 90.152344 452.105469 C 90.1875 452.082031 90.222656 452.054688 90.261719 452.027344 C 90.230469 451.960938 90.207031 451.890625 90.1875 451.816406 Z M 90.1875 451.816406 " fill-opacity="1" fill-rule="nonzero"/><path fill="#f0f3f3" d="M 91.15625 440.496094 C 89.15625 444.359375 88.820312 448 90.183594 451.820312 C 93.066406 446.59375 93.371094 443.933594 91.15625 440.496094 Z M 91.15625 440.496094 " fill-opacity="1" fill-rule="nonzero"/><path fill="#f0f3f3" d="M 500.585938 264.71875 C 498.171875 261.09375 496.121094 257.460938 492.316406 255.183594 C 496.84375 262.863281 496.84375 262.863281 500.585938 264.71875 Z M 500.585938 264.71875 " fill-opacity="1" fill-rule="nonzero"/><path fill="#f0f3f3" d="M 204.175781 481.585938 C 201.660156 477.25 198.25 475.824219 195.347656 473.820312 C 196.851562 477.417969 199.789062 479.382812 204.175781 481.585938 Z M 204.175781 481.585938 " fill-opacity="1" fill-rule="nonzero"/><path fill="#f0f3f3" d="M 362.535156 778.648438 C 364.355469 775.433594 362.21875 774.667969 360.425781 773.757812 C 358.597656 772.832031 356.683594 771.589844 355.121094 775.554688 C 358.890625 773.957031 360.355469 776.777344 362.535156 778.648438 Z M 362.535156 778.648438 " fill-opacity="1" fill-rule="nonzero"/><path fill="#f0f3f3" d="M 286.914062 686.671875 C 286.875 686.65625 286.835938 686.644531 286.800781 686.628906 C 286.789062 686.6875 286.785156 686.746094 286.777344 686.808594 C 286.824219 686.78125 286.867188 686.75 286.910156 686.722656 C 286.90625 686.703125 286.910156 686.6875 286.914062 686.671875 Z M 286.914062 686.671875 " fill-opacity="1" fill-rule="nonzero"/><path fill="#f0f3f3" d="M 290.492188 680.390625 C 289.179688 682.507812 286.992188 683.972656 286.914062 686.671875 C 288.316406 687.214844 289.738281 687.761719 292.011719 688.640625 C 290.339844 685.484375 290.960938 682.960938 290.492188 680.390625 Z M 290.492188 680.390625 " fill-opacity="1" fill-rule="nonzero"/><path fill="#f0f3f3" d="M 106.398438 548.710938 C 105.199219 543.9375 105.199219 543.9375 101.640625 540.300781 C 103.152344 543.816406 104.085938 546.621094 106.398438 548.710938 Z M 106.398438 548.710938 " fill-opacity="1" fill-rule="nonzero"/><path fill="#f0f3f3" d="M 796 472.019531 C 795.90625 472.046875 795.816406 472.085938 795.722656 472.109375 C 795.726562 472.183594 795.71875 472.253906 795.71875 472.324219 C 795.761719 472.296875 795.804688 472.265625 795.847656 472.238281 C 795.898438 472.167969 795.949219 472.09375 796 472.019531 Z M 796 472.019531 " fill-opacity="1" fill-rule="nonzero"/><path fill="#f0f3f3" d="M 804.535156 464.214844 C 800.769531 465.863281 798.207031 468.761719 796 472.023438 C 800.070312 470.71875 802.410156 467.578125 804.535156 464.214844 Z M 804.535156 464.214844 " fill-opacity="1" fill-rule="nonzero"/><path fill="#f0f3f3" d="M 395.261719 898.488281 C 398.382812 898.324219 400.859375 897.53125 403.734375 895.742188 C 399.773438 894.222656 397.433594 895.410156 395.261719 898.488281 Z M 395.261719 898.488281 " fill-opacity="1" fill-rule="nonzero"/><path fill="#f0f3f3" d="M 383.160156 78.46875 C 381.960938 76.40625 382.28125 73.472656 379.792969 71.757812 C 378.769531 76.148438 378.75 76.257812 383.160156 78.46875 Z M 383.160156 78.46875 " fill-opacity="1" fill-rule="nonzero"/><path fill="#f0f3f3" d="M 607.042969 485.339844 C 608.929688 484.511719 610.652344 483.625 612.234375 482.039062 C 606.539062 480.984375 606.28125 481.144531 607.042969 485.339844 Z M 607.042969 485.339844 " fill-opacity="1" fill-rule="nonzero"/><path fill="#f0f3f3" d="M 163.730469 209.78125 C 168.109375 212.777344 168.871094 213.042969 172.996094 213.113281 C 170.488281 210.484375 167.472656 210.363281 163.730469 209.78125 Z M 163.730469 209.78125 " fill-opacity="1" fill-rule="nonzero"/><path fill="#f0f3f3" d="M 480.402344 153.359375 C 481.246094 150.605469 480.066406 148.378906 478.433594 144.839844 C 477.640625 148.941406 478.226562 151.316406 480.402344 153.359375 Z M 480.402344 153.359375 " fill-opacity="1" fill-rule="nonzero"/><path fill="#f0f3f3" d="M 294.242188 761.664062 C 295.570312 763.648438 296.75 765.890625 300.042969 766.105469 C 299.039062 762.777344 296.792969 762.003906 294.242188 761.664062 Z M 294.242188 761.664062 " fill-opacity="1" fill-rule="nonzero"/><path fill="#f0f3f3" d="M 492.816406 789.5 C 494.535156 792.550781 494.535156 792.550781 498.351562 792.300781 C 496.507812 790.066406 495.242188 788.792969 492.816406 789.5 Z M 492.816406 789.5 " fill-opacity="1" fill-rule="nonzero"/><path fill="#f0f3f3" d="M 462.429688 822.144531 C 464.570312 821.132812 465.578125 820.15625 464.675781 818.171875 C 461.394531 818.410156 461.394531 818.410156 462.429688 822.144531 Z M 462.429688 822.144531 " fill-opacity="1" fill-rule="nonzero"/><path fill="#f0f3f3" d="M 729.460938 453.390625 C 726.972656 453.855469 724.269531 451.273438 721.011719 453.722656 C 724.179688 454.582031 726.773438 454.167969 729.460938 453.390625 Z M 729.460938 453.390625 " fill-opacity="1" fill-rule="nonzero"/><path fill="#f0f3f3" d="M 413.304688 96.601562 C 410.449219 93.265625 407.882812 92.363281 405.023438 92.035156 C 406.914062 94.242188 409.375 95.351562 413.304688 96.601562 Z M 413.304688 96.601562 " fill-opacity="1" fill-rule="nonzero"/><path fill="#f0f3f3" d="M 644.757812 318.683594 C 642.417969 318.894531 640.152344 319.300781 638.210938 321.273438 C 641.960938 323.1875 643.507812 321.238281 644.757812 318.683594 Z M 644.757812 318.683594 " fill-opacity="1" fill-rule="nonzero"/><path fill="#f0f3f3" d="M 271.28125 835.496094 C 268.992188 838.011719 267.519531 839.628906 265.945312 841.359375 C 268.457031 840.875 270.320312 839.726562 271.28125 835.496094 Z M 271.28125 835.496094 " fill-opacity="1" fill-rule="nonzero"/><path fill="#f0f3f3" d="M 35.207031 92.492188 C 32.472656 88.957031 32.125 88.679688 28.195312 86.570312 C 30.160156 89.367188 32.285156 91.417969 35.207031 92.492188 Z M 35.207031 92.492188 " fill-opacity="1" fill-rule="nonzero"/><path fill="#f0f3f3" d="M 676.554688 457.347656 C 676.660156 457.777344 676.765625 458.207031 676.871094 458.632812 C 679.480469 458.464844 682.089844 458.296875 684.699219 458.128906 C 681.921875 457.058594 679.175781 455.804688 676.554688 457.347656 Z M 676.554688 457.347656 " fill-opacity="1" fill-rule="nonzero"/><path fill="#f0f3f3" d="M 800.191406 233.925781 C 800.410156 233.8125 800.410156 233.269531 800.53125 232.863281 C 798.894531 232.347656 797.316406 232.394531 795.253906 233.421875 C 796.957031 235.246094 798.578125 234.742188 800.191406 233.925781 Z M 800.191406 233.925781 " fill-opacity="1" fill-rule="nonzero"/><path fill="#f0f3f3" d="M 463.570312 299.496094 C 463.496094 299.527344 463.421875 299.558594 463.347656 299.589844 C 463.328125 299.617188 463.308594 299.644531 463.289062 299.675781 C 463.339844 299.699219 463.398438 299.71875 463.453125 299.742188 C 463.492188 299.65625 463.53125 299.578125 463.570312 299.496094 Z M 463.570312 299.496094 " fill-opacity="1" fill-rule="nonzero"/><path fill="#f0f3f3" d="M 469 293.511719 C 467.175781 295.488281 464.777344 296.957031 463.574219 299.496094 C 466.3125 298.371094 468.976562 297.167969 469 293.511719 Z M 469 293.511719 " fill-opacity="1" fill-rule="nonzero"/><path fill="#f0f3f3" d="M 784.15625 240.84375 C 782.683594 242.050781 780.527344 242.191406 779.402344 244.171875 C 783.171875 243.671875 783.171875 243.671875 784.15625 240.84375 Z M 784.15625 240.84375 " fill-opacity="1" fill-rule="nonzero"/><path fill="#f0f3f3" d="M 708.449219 453.804688 C 710.757812 454.324219 712.507812 454.09375 715.460938 453.355469 C 712.269531 451.640625 710.617188 452.707031 708.449219 453.804688 Z M 708.449219 453.804688 " fill-opacity="1" fill-rule="nonzero"/><path fill="#f0f3f3" d="M 442.171875 175.488281 C 442.71875 173.460938 442.078125 172.597656 441.472656 171.746094 C 441.117188 171.242188 440.636719 170.855469 439.535156 171.191406 C 439.175781 173.125 439.878906 174.441406 442.171875 175.488281 Z M 442.171875 175.488281 " fill-opacity="1" fill-rule="nonzero"/><path fill="#f0f3f3" d="M 81.851562 366.304688 C 80.117188 367.804688 79.121094 368.960938 79.902344 371.191406 C 82.195312 370.152344 82.671875 368.796875 81.851562 366.304688 Z M 81.851562 366.304688 " fill-opacity="1" fill-rule="nonzero"/><path fill="#f0f3f3" d="M 71.011719 403.894531 C 71.574219 402.589844 72.132812 401.300781 71.308594 399.863281 C 68.796875 402.484375 68.796875 402.484375 71.011719 403.894531 Z M 71.011719 403.894531 " fill-opacity="1" fill-rule="nonzero"/><path fill="#f0f3f3" d="M 8.039062 541.746094 C 9.445312 543.066406 9.445312 545.179688 11.75 544.132812 C 11.28125 542.65625 10.519531 541.597656 8.039062 541.746094 Z M 8.039062 541.746094 " fill-opacity="1" fill-rule="nonzero"/><path fill="#f0f3f3" d="M 621.527344 481.558594 C 624.121094 480.738281 626.234375 481.964844 626.519531 479.03125 C 624.742188 478.355469 623.316406 478.636719 621.527344 481.558594 Z M 621.527344 481.558594 " fill-opacity="1" fill-rule="nonzero"/><path fill="#f0f3f3" d="M 476.234375 293.722656 C 473.957031 294.550781 472.765625 295.511719 473.527344 298.203125 C 475.59375 297.164062 476.300781 295.921875 476.234375 293.722656 Z M 476.234375 293.722656 " fill-opacity="1" fill-rule="nonzero"/><path fill="#f0f3f3" d="M 3.0625 679.707031 C 2.378906 679.667969 1.917969 680.136719 1.875 680.789062 C 1.8125 681.699219 2.355469 682.28125 3.246094 682.347656 C 3.925781 682.402344 4.300781 681.914062 4.433594 681.257812 C 4.425781 680.34375 3.980469 679.761719 3.0625 679.707031 Z M 3.0625 679.707031 " fill-opacity="1" fill-rule="nonzero"/><path fill="#f0f3f3" d="M 347.214844 783.003906 C 346.765625 784.964844 347.257812 785.964844 349.320312 786.234375 C 349.828125 784.234375 349.335938 783.230469 347.214844 783.003906 Z M 347.214844 783.003906 " fill-opacity="1" fill-rule="nonzero"/><path fill="#f0f3f3" d="M 755.769531 265.335938 C 757.359375 263.789062 758.867188 262.585938 759.019531 260.449219 C 755.886719 261.914062 755.882812 261.964844 755.769531 265.335938 Z M 755.769531 265.335938 " fill-opacity="1" fill-rule="nonzero"/><path fill="#f0f3f3" d="M 627.199219 142.414062 C 626.484375 140.855469 625.863281 139.6875 623.828125 140.792969 C 624.261719 142.824219 625.285156 143.210938 627.199219 142.414062 Z M 627.199219 142.414062 " fill-opacity="1" fill-rule="nonzero"/><path fill="#f0f3f3" d="M 486.769531 171.90625 C 485.976562 169.472656 485.1875 168.210938 483.214844 167.441406 C 483.570312 169.40625 484.597656 170.457031 486.769531 171.90625 Z M 486.769531 171.90625 " fill-opacity="1" fill-rule="nonzero"/><path fill="#f0f3f3" d="M 287.871094 674.683594 C 287.359375 673.160156 286.679688 672.113281 284.707031 672.617188 C 284.882812 675.007812 286.027344 675.304688 287.871094 674.683594 Z M 287.871094 674.683594 " fill-opacity="1" fill-rule="nonzero"/><path fill="#f0f3f3" d="M 480.144531 294.535156 C 480.015625 296.613281 480.949219 297.304688 483.34375 297.128906 C 483.023438 294.808594 482.101562 294.039062 480.144531 294.535156 Z M 480.144531 294.535156 " fill-opacity="1" fill-rule="nonzero"/><path fill="#f0f3f3" d="M 194.050781 225.835938 C 191.75 223.644531 191.679688 223.652344 189.101562 224.453125 C 190.4375 226.164062 192.332031 225.683594 194.050781 225.835938 Z M 194.050781 225.835938 " fill-opacity="1" fill-rule="nonzero"/><path fill="#f0f3f3" d="M 463.289062 299.675781 C 461.402344 298.917969 459.78125 298.78125 459.109375 301.59375 C 461.308594 302.054688 462.378906 301.015625 463.289062 299.675781 Z M 463.289062 299.675781 " fill-opacity="1" fill-rule="nonzero"/><path fill="#f0f3f3" d="M 84.511719 141.660156 C 84.0625 141 83.691406 140.265625 83.148438 139.703125 C 82.554688 139.085938 82.058594 137.804688 80.804688 138.859375 C 81.257812 140.484375 82.480469 141.277344 84.511719 141.660156 Z M 84.511719 141.660156 " fill-opacity="1" fill-rule="nonzero"/><path fill="#f0f3f3" d="M 411.097656 895.273438 C 412.128906 895.90625 413.054688 896.621094 414.71875 894.203125 C 412.960938 893.96875 411.847656 893.097656 411.097656 895.273438 Z M 411.097656 895.273438 " fill-opacity="1" fill-rule="nonzero"/><path fill="#f0f3f3" d="M 85.082031 469.003906 C 86.265625 467.605469 86.960938 466.34375 86.855469 464.359375 C 85.058594 465.664062 85.015625 467.15625 85.082031 469.003906 Z M 85.082031 469.003906 " fill-opacity="1" fill-rule="nonzero"/><path fill="#f0f3f3" d="M 284.785156 755.046875 C 285.234375 757.132812 286.351562 757.890625 288.367188 758.738281 C 287.644531 756.4375 286.765625 755.382812 284.785156 755.046875 Z M 284.785156 755.046875 " fill-opacity="1" fill-rule="nonzero"/><path fill="#f0f3f3" d="M 35.730469 92.828125 C 35.65625 92.75 35.585938 92.671875 35.511719 92.601562 C 35.40625 92.566406 35.308594 92.527344 35.207031 92.492188 C 35.265625 92.566406 35.328125 92.644531 35.390625 92.726562 C 35.503906 92.761719 35.617188 92.792969 35.730469 92.828125 Z M 35.730469 92.828125 " fill-opacity="1" fill-rule="nonzero"/><path fill="#f0f3f3" d="M 40.546875 96.40625 C 40.035156 93.726562 37.78125 93.417969 35.734375 92.828125 C 37.117188 94.316406 38.058594 96.410156 40.546875 96.40625 Z M 40.546875 96.40625 " fill-opacity="1" fill-rule="nonzero"/><path fill="#f0f3f3" d="M 486.023438 247.296875 C 485.390625 246.285156 485.085938 244.875 483.027344 244.695312 C 483.628906 246.550781 484.722656 247.074219 486.023438 247.296875 Z M 486.023438 247.296875 " fill-opacity="1" fill-rule="nonzero"/><path fill="#f0f3f3" d="M 285.570312 690.535156 C 287.339844 689.507812 286.667969 688.042969 286.777344 686.808594 C 285.476562 687.679688 284.3125 688.597656 285.570312 690.535156 Z M 285.570312 690.535156 " fill-opacity="1" fill-rule="nonzero"/><path fill="#f0f3f3" d="M 97.605469 468.148438 C 97.371094 468.425781 96.972656 468.691406 96.953125 468.984375 C 96.933594 469.296875 97.226562 469.875 97.457031 469.917969 C 98.191406 470.046875 98.550781 469.523438 98.410156 468.855469 C 98.351562 468.574219 97.882812 468.382812 97.605469 468.148438 Z M 97.605469 468.148438 " fill-opacity="1" fill-rule="nonzero"/><path fill="#f0f3f3" d="M 336.457031 19.164062 C 336.636719 19.140625 336.933594 18.484375 336.835938 18.277344 C 336.488281 17.542969 335.914062 17.078125 334.691406 17.675781 C 334.996094 18.890625 335.597656 19.292969 336.457031 19.164062 Z M 336.457031 19.164062 " fill-opacity="1" fill-rule="nonzero"/><path fill="#f0f3f3" d="M 538.253906 778.160156 C 538.246094 778.027344 537.980469 777.785156 537.847656 777.796875 C 536.902344 777.867188 536.472656 778.410156 536.582031 779.773438 C 538 779.695312 538.28125 779.03125 538.253906 778.160156 Z M 538.253906 778.160156 " fill-opacity="1" fill-rule="nonzero"/><path fill="#f0f3f3" d="M 503.070312 197.117188 C 501.367188 195.628906 501.308594 194.121094 499.585938 195.066406 C 499.511719 196.371094 500.238281 196.84375 503.070312 197.117188 Z M 503.070312 197.117188 " fill-opacity="1" fill-rule="nonzero"/><path fill="#f0f3f3" d="M 372.082031 853.804688 C 373.476562 854.230469 374.40625 855.304688 376.1875 853.757812 C 374.660156 853.082031 373.667969 852.542969 372.082031 853.804688 Z M 372.082031 853.804688 " fill-opacity="1" fill-rule="nonzero"/><path fill="#f0f3f3" d="M 520.503906 886.808594 C 519.53125 886.0625 518.828125 886.050781 517.785156 886.960938 C 519.152344 888.492188 519.867188 888.203125 520.503906 886.808594 Z M 520.503906 886.808594 " fill-opacity="1" fill-rule="nonzero"/><path fill="#f0f3f3" d="M 578.8125 490.527344 C 580.03125 491.042969 580.84375 490.949219 581.210938 489.699219 C 580.015625 488.886719 579.222656 489.035156 578.8125 490.527344 Z M 578.8125 490.527344 " fill-opacity="1" fill-rule="nonzero"/><path fill="#f0f3f3" d="M 76.976562 115.054688 C 77.25 115.003906 77.441406 114.550781 77.671875 114.277344 C 77.402344 114.03125 77.152344 113.613281 76.863281 113.589844 C 76.558594 113.5625 76 113.863281 75.945312 114.109375 C 75.785156 114.851562 76.328125 115.175781 76.976562 115.054688 Z M 76.976562 115.054688 " fill-opacity="1" fill-rule="nonzero"/><path fill="#f0f3f3" d="M 189.277344 420.230469 C 190.285156 421.171875 191.003906 420.886719 191.542969 419.710938 C 190.558594 418.839844 189.808594 418.96875 189.277344 420.230469 Z M 189.277344 420.230469 " fill-opacity="1" fill-rule="nonzero"/><path fill="#f0f3f3" d="M 678.375 612.867188 C 679.671875 613.496094 680.203125 612.894531 680.601562 609.972656 C 679.132812 611.425781 677.894531 611.285156 678.375 612.867188 Z M 678.375 612.867188 " fill-opacity="1" fill-rule="nonzero"/><path fill="#f0f3f3" d="M 161 543.332031 C 160.980469 543.59375 161.453125 543.894531 161.703125 544.175781 C 162.046875 543.984375 162.570312 543.871094 162.679688 543.589844 C 162.785156 543.332031 162.53125 542.707031 162.273438 542.582031 C 161.609375 542.257812 161.0625 542.613281 161 543.332031 Z M 161 543.332031 " fill-opacity="1" fill-rule="nonzero"/><path fill="#f0f3f3" d="M 763.484375 252.039062 C 763.453125 251.71875 763.089844 251.300781 762.769531 251.167969 C 762.128906 250.902344 761.519531 251.199219 761.375 251.859375 C 761.222656 252.539062 761.714844 252.945312 762.367188 253.125 C 763.09375 253.132812 763.5625 252.765625 763.484375 252.039062 Z M 763.484375 252.039062 " fill-opacity="1" fill-rule="nonzero"/><path fill="#f0f3f3" d="M 489.660156 251.847656 C 489.082031 249.667969 487.421875 248.914062 486.378906 247.757812 C 486.808594 249.339844 487.21875 250.988281 489.660156 251.847656 Z M 489.660156 251.847656 " fill-opacity="1" fill-rule="nonzero"/><path fill="#f0f3f3" d="M 486.378906 247.757812 C 486.339844 247.617188 486.300781 247.476562 486.257812 247.335938 C 486.179688 247.324219 486.097656 247.3125 486.023438 247.296875 C 486.058594 247.355469 486.089844 247.40625 486.128906 247.460938 C 486.207031 247.566406 486.289062 247.660156 486.378906 247.757812 Z M 486.378906 247.757812 " fill-opacity="1" fill-rule="nonzero"/><path fill="#f0f3f3" d="M 159.554688 686.609375 C 159.308594 686.871094 158.871094 687.128906 158.863281 687.398438 C 158.855469 687.71875 159.167969 688.269531 159.433594 688.332031 C 160.144531 688.507812 160.601562 688.078125 160.433594 687.34375 C 160.371094 687.0625 159.882812 686.875 159.554688 686.609375 Z M 159.554688 686.609375 " fill-opacity="1" fill-rule="nonzero"/><path fill="#f0f3f3" d="M 806.183594 835.214844 C 805.429688 836.398438 805.785156 837.019531 807.136719 837.171875 C 807.816406 836.027344 807.53125 835.375 806.183594 835.214844 Z M 806.183594 835.214844 " fill-opacity="1" fill-rule="nonzero"/><path fill="#f0f3f3" d="M 769.074219 245.117188 C 768.328125 245.886719 767.253906 245.859375 767.65625 247.808594 C 768.453125 247.109375 769.628906 247.238281 769.074219 245.117188 Z M 769.074219 245.117188 " fill-opacity="1" fill-rule="nonzero"/><path fill="#f0f3f3" d="M 103.570312 662.425781 C 103.605469 662.648438 104.140625 662.792969 104.453125 662.96875 C 104.617188 662.625 104.78125 662.285156 104.949219 661.941406 C 104.636719 661.761719 104.324219 661.582031 104.015625 661.402344 C 103.847656 661.746094 103.523438 662.117188 103.570312 662.425781 Z M 103.570312 662.425781 " fill-opacity="1" fill-rule="nonzero"/><path fill="#f0f3f3" d="M 759.035156 260.261719 C 759.03125 260.324219 759.023438 260.386719 759.019531 260.449219 C 759.066406 260.425781 759.109375 260.402344 759.160156 260.382812 C 759.199219 260.261719 759.238281 260.132812 759.273438 260.007812 C 759.191406 260.085938 759.105469 260.167969 759.035156 260.261719 Z M 759.035156 260.261719 " fill-opacity="1" fill-rule="nonzero"/><path fill="#f0f3f3" d="M 759.273438 260.007812 C 760.183594 259.175781 761.84375 258.8125 761.6875 256.535156 C 760.054688 257.589844 759.644531 258.816406 759.273438 260.007812 Z M 759.273438 260.007812 " fill-opacity="1" fill-rule="nonzero"/><path fill="#f0f3f3" d="M 630.65625 161.699219 C 630.949219 161.65625 631.183594 161.183594 631.417969 160.933594 C 631.164062 160.667969 630.9375 160.226562 630.660156 160.191406 C 630.328125 160.144531 629.695312 160.394531 629.640625 160.625 C 629.472656 161.34375 629.941406 161.796875 630.65625 161.699219 Z M 630.65625 161.699219 " fill-opacity="1" fill-rule="nonzero"/><path fill="#f0f3f3" d="M 107.15625 553.410156 C 107.269531 553.277344 107.316406 553.046875 107.304688 552.863281 C 107.277344 552.359375 107.003906 552.179688 106.546875 552.328125 C 106.433594 552.675781 106.152344 553.082031 106.246094 553.355469 C 106.402344 553.789062 106.847656 553.78125 107.15625 553.410156 Z M 107.15625 553.410156 " fill-opacity="1" fill-rule="nonzero"/><path fill="#f0f3f3" d="M 459.25 501.472656 C 459.507812 501.34375 459.558594 500.800781 459.703125 500.449219 C 459.378906 500.261719 459.011719 499.890625 458.738281 499.949219 C 458.421875 500.019531 457.933594 500.484375 457.957031 500.738281 C 458.023438 501.449219 458.578125 501.808594 459.25 501.472656 Z M 459.25 501.472656 " fill-opacity="1" fill-rule="nonzero"/><path fill="#f0f3f3" d="M 828.347656 436.601562 C 828.210938 436.726562 828.089844 436.9375 828.070312 437.117188 C 828.023438 437.636719 828.332031 437.960938 828.742188 437.75 C 829.015625 437.613281 829.109375 437.132812 829.28125 436.800781 C 829.066406 436.335938 828.742188 436.25 828.347656 436.601562 Z M 828.347656 436.601562 " fill-opacity="1" fill-rule="nonzero"/><path fill="#f0f3f3" d="M 599.386719 483.511719 C 599.199219 483.679688 599.128906 484.347656 599.265625 484.457031 C 599.804688 484.886719 600.378906 484.714844 601.144531 483.949219 C 600.46875 483.023438 599.878906 483.078125 599.386719 483.511719 Z M 599.386719 483.511719 " fill-opacity="1" fill-rule="nonzero"/><path fill="#f0f3f3" d="M 476.164062 237.570312 C 476.132812 236.617188 475.558594 236.210938 474.136719 235.910156 C 474.589844 237.214844 474.910156 238.097656 476.164062 237.570312 Z M 476.164062 237.570312 " fill-opacity="1" fill-rule="nonzero"/><path fill="#f0f3f3" d="M 224.539062 794.859375 C 224.394531 794.953125 224.273438 795.148438 224.222656 795.320312 C 224.089844 795.792969 224.292969 796.050781 224.769531 796.082031 C 224.964844 795.800781 225.3125 795.523438 225.320312 795.234375 C 225.339844 794.734375 224.964844 794.585938 224.539062 794.859375 Z M 224.539062 794.859375 " fill-opacity="1" fill-rule="nonzero"/><path fill="#f0f3f3" d="M 275.796875 745.234375 C 275.910156 745.390625 276.117188 745.527344 276.300781 745.566406 C 276.796875 745.65625 277.066406 745.414062 277.097656 744.921875 C 276.78125 744.722656 276.46875 744.367188 276.152344 744.367188 C 275.601562 744.371094 275.460938 744.777344 275.796875 745.234375 Z M 275.796875 745.234375 " fill-opacity="1" fill-rule="nonzero"/><path fill="#f0f3f3" d="M 813.546875 227.113281 C 813.621094 226.648438 813.398438 226.316406 812.910156 226.367188 C 812.566406 226.402344 812.253906 226.6875 811.921875 226.859375 C 812.140625 227.128906 812.347656 227.605469 812.585938 227.625 C 812.890625 227.644531 813.226562 227.296875 813.546875 227.113281 Z M 813.546875 227.113281 " fill-opacity="1" fill-rule="nonzero"/></g></g></g></svg>