<svg xmlns="http://www.w3.org/2000/svg" xmlns:xlink="http://www.w3.org/1999/xlink" width="1200" zoomAndPan="magnify" viewBox="0 0 900 899.99999" height="1200" preserveAspectRatio="xMidYMid meet" version="1.0"><defs><filter x="0%" y="0%" width="100%" height="100%" id="7ec795067e"><feColorMatrix values="0 0 0 0 1 0 0 0 0 1 0 0 0 0 1 0 0 0 1 0" color-interpolation-filters="sRGB"/></filter><mask id="20a13ecf16"><g filter="url(#7ec795067e)"><rect x="-90" width="1080" fill="#000000" y="-89.999999" height="1079.999988" fill-opacity="0.15"/></g></mask><clipPath id="695807c8c4"><path d="M 316 0 L 900 0 L 900 900 L 316 900 Z M 316 0 " clip-rule="nonzero"/></clipPath><clipPath id="925f962aea"><rect x="0" width="900" y="0" height="900"/></clipPath></defs><g mask="url(#20a13ecf16)"><g transform="matrix(1, 0, 0, 1, 0, 0.000000000000108392)"><g clip-path="url(#925f962aea)"><g clip-path="url(#695807c8c4)"><path fill="#f0f3f3" d="M 858.957031 236.09375 C 848.660156 239.308594 845.796875 238.179688 839.441406 228.8125 C 834.980469 222.246094 830.050781 215.976562 823.761719 211.089844 C 820.101562 208.242188 817.179688 204.839844 814.859375 201.609375 C 810.945312 200.664062 808.445312 202.394531 805.773438 203.699219 C 801.027344 206.027344 796.339844 208.574219 791.378906 210.339844 C 779.535156 214.554688 769.304688 221.316406 761.652344 231.035156 C 753.105469 241.894531 741.886719 244.324219 729.910156 244.488281 C 721.964844 240.425781 718.554688 232.445312 712.128906 227.964844 C 701.828125 220.78125 694.929688 210.730469 687.597656 201.027344 C 684.894531 197.449219 681.871094 194.839844 677.8125 193.101562 C 663.203125 186.84375 650.96875 177.847656 643.734375 163.148438 C 643.179688 162.015625 642.082031 161.152344 640.90625 159.777344 C 627.578125 158.929688 617.054688 152.050781 607.449219 142.960938 C 600.921875 136.78125 593.054688 134.410156 583.992188 137.386719 C 579.648438 138.8125 575.109375 138.820312 570.355469 137.261719 C 571.550781 130.527344 573.035156 124.492188 575.871094 118.84375 C 577.054688 116.488281 578.855469 114.117188 577.925781 111.410156 C 576.394531 106.949219 579.179688 103.960938 580.773438 100.386719 C 584.53125 91.960938 592.039062 86.699219 597.449219 79.707031 C 612.136719 60.722656 629.195312 43.511719 640.816406 22.199219 C 641.738281 20.515625 643.203125 18.839844 644.839844 17.875 C 652.207031 13.539062 656.652344 6.558594 661.582031 -0.0078125 C 656.945312 -0.0078125 652.308594 -0.0078125 647.671875 -0.0078125 C 631.757812 16.398438 620.355469 36.886719 601.71875 52.226562 C 602.328125 53.710938 601.011719 55.875 599.140625 57.917969 C 590.21875 67.660156 581.460938 77.550781 572.386719 87.140625 C 567.007812 92.824219 563.722656 98.847656 563.554688 107.078125 C 563.4375 112.761719 563.648438 119.082031 559.609375 124.425781 C 546.007812 128.226562 535.15625 120.890625 523.550781 115.667969 C 528.765625 120.523438 533.976562 125.375 538.625 129.703125 C 547.105469 130.945312 554.746094 126.089844 562.648438 129.265625 C 564.445312 142.414062 553.410156 150.027344 552.335938 159.648438 C 542.398438 164.296875 537.214844 172.132812 530.492188 178.144531 C 523.355469 184.527344 519.679688 193.957031 511.996094 199.425781 C 508.046875 199.949219 504.21875 197.851562 500.617188 201.261719 C 500.738281 208.898438 489.433594 215.308594 497.347656 224.359375 C 496.433594 228.582031 495.960938 232.574219 494.695312 236.300781 C 490.589844 248.394531 487.003906 260.933594 473.507812 267.191406 C 474.613281 272.066406 472.75 275.859375 469.714844 279.585938 C 466.859375 283.09375 464.945312 287.5 464.324219 291.953125 C 463.832031 295.484375 462.296875 298.527344 460.367188 300.855469 C 455.65625 306.542969 453.15625 312.535156 454.785156 319.324219 C 452.472656 323.277344 449.371094 325.957031 448.265625 329.566406 C 449.238281 333.152344 453.882812 329.136719 454.644531 333.90625 C 449.488281 339.15625 444.140625 345 439.980469 351.707031 C 436.960938 356.574219 433.109375 360.621094 428.808594 364.210938 C 425.710938 366.800781 423.269531 369.488281 421.519531 373.289062 C 418.269531 380.351562 413.039062 385.445312 405.5 388.613281 C 395.78125 392.695312 385.808594 395.773438 375.167969 398.507812 C 376.433594 402.871094 380.902344 405.761719 379.804688 410.519531 C 378.226562 417.355469 378.722656 424.117188 379.945312 430.960938 C 380.394531 433.476562 379.839844 436.214844 379.507812 438.820312 C 378.417969 447.316406 374.027344 454.171875 368.46875 460.453125 C 363.859375 462.757812 358.722656 461.007812 353.867188 462.324219 C 347.652344 464.011719 342.175781 461.625 337.457031 457.425781 C 332.96875 453.433594 329.738281 448.480469 326.339844 443.59375 C 324.269531 440.613281 322.71875 436.414062 318.195312 436.40625 C 315.730469 438.75 316.125 440.808594 317.214844 443.105469 C 324.328125 458.15625 334.378906 469.738281 351.5 471.558594 C 357.449219 494.140625 355.53125 512.234375 347.898438 518.074219 C 348.347656 532.457031 347.570312 545.859375 343.058594 560.066406 C 348.128906 575.027344 344.875 589.351562 333.914062 600.59375 C 332.785156 616.792969 327.527344 631.632812 333.179688 647.457031 C 337.003906 650.238281 339.375 655.691406 344.429688 659.246094 C 343.722656 651.402344 342.238281 643.625 339.546875 636.769531 C 334.019531 622.699219 340.203125 611.289062 344.238281 598.605469 C 340.628906 596.210938 341.816406 592.277344 345.15625 589.816406 C 351.621094 585.050781 353.152344 578.082031 352.914062 571.371094 C 352.582031 561.910156 355.121094 553.191406 357.207031 544.648438 C 356.164062 541.40625 353.839844 539.117188 354.015625 535.933594 C 354.523438 532.453125 358.421875 531 359.03125 527.628906 C 357.667969 520.835938 357.75 520.871094 360.238281 515.457031 C 363.292969 508.796875 364.84375 502.160156 363.832031 494.449219 C 361.792969 478.898438 367.988281 466.535156 380.808594 457.527344 C 389.652344 458.785156 396.382812 464.25 404.28125 466.472656 C 410.695312 468.277344 415.652344 472.148438 419.359375 477.214844 C 424.933594 484.839844 430.328125 492.71875 434.699219 501.0625 C 438.609375 508.527344 442.335938 515.660156 450.652344 518.785156 C 451.757812 528.058594 456.359375 534.691406 463.933594 539.089844 C 469.855469 542.527344 473.695312 547.292969 477.089844 553.316406 C 481.730469 561.546875 488.191406 568.671875 497.484375 572.042969 C 500.855469 571.839844 500.992188 567.328125 505.046875 567.8125 C 504.371094 573.910156 509.28125 575.390625 513.734375 577.363281 C 525.359375 582.523438 538.082031 586.171875 543.792969 599.453125 C 544.265625 600.542969 545.648438 601.292969 546.699219 602.078125 C 555.707031 608.828125 559.441406 609.109375 566.71875 602.414062 C 568.898438 600.410156 571.457031 598.828125 573.742188 596.929688 C 587.679688 585.324219 592.117188 585.375 605.042969 597.386719 C 609.847656 601.851562 614.023438 607.21875 621.167969 608.289062 C 622.027344 608.417969 623.027344 609.175781 623.527344 609.929688 C 629.039062 618.214844 638.253906 622.074219 645.410156 628.378906 C 653.660156 635.652344 662.730469 641.574219 672.9375 645.703125 C 676 646.941406 679.136719 648.070312 681.019531 651.074219 C 682.050781 655.957031 679.457031 659.375 676.394531 662.5 C 668.734375 670.324219 663.296875 679.316406 661.375 690.367188 C 660.683594 690.921875 660.011719 691.816406 659.136719 692.109375 C 644.101562 697.175781 629.96875 704.550781 614.777344 709.242188 C 608.597656 711.15625 602.519531 712.125 596.257812 710.347656 C 589.882812 708.539062 583.976562 709.464844 577.941406 712.054688 C 572.519531 714.378906 567.511719 718.9375 562.246094 719.601562 C 554.355469 720.59375 547.820312 723.703125 541.148438 727.15625 C 536.84375 729.386719 532.25 729.429688 527.609375 729.453125 C 512.203125 729.53125 496.613281 727.402344 481.683594 733.300781 C 480.097656 733.925781 477.554688 733.136719 477.730469 736.492188 C 481.386719 737.539062 485.046875 736.972656 488.429688 735.851562 C 498.410156 732.542969 508.636719 733.71875 518.777344 733.925781 C 523.683594 734.027344 528.964844 734.40625 531.75 740.582031 C 532.019531 734.003906 535.96875 732.355469 541.191406 730.769531 C 553.414062 727.058594 566.214844 724.820312 577.191406 717.558594 C 581.515625 714.699219 586.527344 714.246094 591.542969 715.640625 C 604.046875 719.117188 615.679688 715.964844 627.082031 711.097656 C 639.367188 705.855469 650.414062 697.488281 665.734375 696.371094 C 667.582031 703.410156 665.6875 711.488281 669.214844 719.394531 C 682.789062 725.507812 688.621094 738.804688 693.46875 752.097656 C 697.234375 762.410156 700.613281 772.683594 707.308594 781.511719 C 710.082031 785.164062 710.257812 789.566406 710.71875 793.753906 C 711.152344 797.738281 710.273438 801.6875 705.425781 804.136719 C 707.964844 804.550781 709.527344 804.375 710.523438 805.042969 C 719.019531 810.730469 727.117188 816.980469 734.109375 824.457031 C 737.097656 827.648438 736.957031 831.742188 734.683594 835.539062 C 733.324219 837.816406 731.292969 840.128906 731.878906 842.785156 C 734 852.449219 732.25 862.539062 735.242188 872.054688 C 736.472656 875.976562 734.902344 878.828125 732.429688 881.234375 C 736.578125 886.40625 740.421875 891.78125 746.578125 894.796875 C 748.460938 895.71875 748.894531 897.90625 748.996094 899.964844 C 750.980469 899.964844 752.96875 899.964844 754.953125 899.964844 C 755.246094 895.929688 753.195312 893.089844 750.328125 890.582031 C 740.210938 881.746094 740.417969 870.933594 744.46875 859.308594 C 740.835938 857.949219 740.230469 855.28125 740.179688 851.511719 C 740.039062 840.976562 742.753906 830.566406 741.261719 819.988281 C 740.679688 815.859375 742.675781 812.523438 746.554688 811.480469 C 753.351562 809.648438 759.15625 806.066406 765.171875 802.6875 C 774.496094 797.457031 785.109375 795.789062 795.136719 792.492188 C 799.324219 791.113281 803.691406 790.054688 808.394531 785.007812 C 797.449219 787.984375 788.761719 791.015625 779.816406 792.597656 C 769.492188 794.421875 760.097656 798.300781 752.011719 804.460938 C 743.484375 810.953125 735.300781 810.988281 726.066406 807.015625 C 720.15625 804.476562 717.265625 800.320312 717.222656 794.023438 C 717.199219 789.738281 717.21875 785.449219 717.21875 781.503906 C 713.890625 778.273438 711.195312 775.449219 708.75 772.3125 C 702.117188 763.789062 700.429688 753.8125 699.433594 743.609375 C 698.941406 738.597656 696.757812 735.324219 692.675781 732.257812 C 687.160156 728.117188 682.308594 723.027344 677.507812 718.019531 C 674.484375 714.859375 672.347656 711.03125 674.21875 706.296875 C 675.417969 703.265625 674.742188 700.40625 673.253906 697.71875 C 670.914062 693.496094 670.957031 688.863281 670.464844 683.890625 C 677.542969 672.523438 688.613281 664.007812 694.59375 652.03125 C 702.625 650.058594 710.785156 649.472656 716.902344 645.101562 C 728.535156 636.789062 742.957031 635.863281 755.058594 629.136719 C 756.59375 628.285156 758.214844 628.527344 759.871094 628.515625 C 776.019531 628.371094 792.097656 627.765625 807.820312 623.335938 C 813.066406 621.855469 831.589844 614.488281 836.804688 610.71875 C 833.074219 610.1875 829.90625 609.734375 827.417969 609.378906 C 820.371094 613.320312 813.867188 617.257812 806.738281 618.105469 C 791.035156 619.96875 775.324219 623.117188 759.351562 620.707031 C 758.117188 620.519531 756.707031 620.703125 755.511719 621.113281 C 736.507812 627.625 716.753906 632.121094 699.015625 642.035156 C 695.972656 643.734375 692.945312 644.378906 689.582031 642.726562 C 679.5 637.78125 669.046875 633.492188 659.339844 627.902344 C 651.664062 623.484375 645.136719 617.121094 637.621094 612.378906 C 630.085938 607.617188 624.769531 599.3125 615.042969 598.019531 C 614.757812 597.984375 614.445312 597.679688 614.269531 597.417969 C 610.730469 592.152344 605.101562 589.351562 599.304688 585.707031 C 603.484375 577.867188 603.429688 569.476562 605.433594 561.484375 C 608.042969 551.070312 609.109375 540.5625 606.75 529.582031 C 605.367188 523.167969 605.890625 515.539062 614.636719 511.414062 C 607.226562 508.183594 607.0625 503.441406 609.046875 497.734375 C 610.78125 492.753906 611.96875 487.585938 613.40625 482.5 C 615.582031 474.804688 615.648438 474.960938 623.257812 474.152344 C 644.148438 471.921875 664.890625 474.269531 685.398438 477.363281 C 696.304688 479.007812 705.542969 477.683594 713.695312 471.890625 C 719.417969 472.179688 722.660156 476.0625 725.546875 477.21875 C 729.359375 478.390625 731 475.234375 733.460938 476.375 C 742.285156 484.292969 752.367188 489.5 764.148438 491.273438 C 775.269531 492.949219 786.40625 494.582031 797.242188 497.730469 C 798.503906 498.09375 800.039062 498.789062 801.085938 498.394531 C 808.675781 495.527344 815.296875 499.402344 822.164062 501.234375 C 828.777344 502.996094 835.179688 503.441406 841.414062 500.0625 C 843.238281 499.074219 845.042969 498.414062 847.570312 500.28125 C 848.367188 507.691406 847.148438 515.390625 845.335938 523 C 844.628906 525.964844 844.320312 528.671875 845.164062 531.722656 C 849.046875 545.8125 854.828125 559.273438 858.089844 573.632812 C 859.503906 579.84375 859.804688 584.691406 856.648438 589.824219 C 860.460938 588.476562 861.699219 590.792969 862.1875 594.121094 C 863.203125 601.019531 865.796875 607.527344 867.246094 614.28125 C 868.59375 620.554688 872.070312 626.585938 870.566406 633.621094 C 857.429688 638.074219 852.957031 625.066406 844.015625 621.050781 C 848.148438 626.296875 852.074219 631.449219 855.0625 635.835938 C 856.449219 638.996094 851.921875 640.613281 855.199219 643.039062 C 860.78125 643.890625 865.761719 639.859375 871.082031 640.304688 C 880.628906 647.3125 889.039062 655.332031 899.980469 659.570312 C 899.980469 656.257812 899.980469 652.945312 899.980469 649.636719 C 898.867188 648.933594 897.839844 647.917969 896.625 647.582031 C 885.222656 644.433594 880.328125 636.285156 878.871094 625.207031 C 877.027344 611.191406 874.109375 597.375 870.382812 583.730469 C 870.296875 583.414062 870.105469 583.085938 870.132812 582.777344 C 871.925781 563.054688 861.503906 546.773438 854.898438 529.46875 C 852.085938 522.109375 851.847656 515.515625 857.167969 508.226562 C 871.324219 507.867188 885.40625 513.28125 899.980469 512.554688 C 899.980469 508.578125 899.980469 504.605469 899.980469 500.632812 C 898.988281 500.671875 897.996094 500.742188 897.003906 500.75 C 881.433594 500.847656 865.90625 500.726562 851.453125 493.574219 C 848.371094 492.046875 844.933594 492.996094 841.640625 493.035156 C 835.378906 493.113281 828.910156 494.140625 822.890625 492.933594 C 809.3125 490.21875 795.410156 489.464844 781.984375 485.792969 C 776.300781 484.238281 770.265625 483.535156 764.355469 483.308594 C 757.496094 483.042969 751.308594 481.039062 745.550781 477.695312 C 739.878906 474.394531 734.382812 470.878906 726.769531 471.082031 C 728.335938 457.835938 720.535156 448.84375 714.335938 437.453125 C 714.007812 450.855469 712.953125 462.449219 701.808594 470.578125 C 688.957031 467.378906 676.171875 463.933594 662.859375 466.558594 C 662.238281 466.679688 661.550781 466.429688 660.890625 466.390625 C 645.765625 465.480469 630.683594 463.742188 615.503906 463.886719 C 611.589844 463.921875 608.296875 463.246094 606.566406 459.5625 C 605.988281 455.511719 608.460938 453.277344 610.757812 450.828125 C 616.363281 444.855469 620.074219 437.363281 620.890625 429.640625 C 622.316406 416.222656 627.910156 405.992188 638.6875 398.25 C 640.554688 396.90625 642.039062 395.035156 643.898438 393.679688 C 653.863281 386.40625 661.25 376.082031 673.546875 371.339844 C 679.433594 369.066406 684.582031 365.84375 690.582031 367.289062 C 695.285156 364.636719 698.460938 361.390625 701.1875 357.542969 C 706.03125 350.699219 711.136719 344.371094 713.007812 335.539062 C 714.394531 328.980469 718.488281 322.703125 719.667969 315.984375 C 721.589844 305.035156 727.113281 298.105469 737.679688 294.832031 C 742.527344 293.332031 747.292969 291.410156 752.136719 287 C 741.910156 287.410156 734.414062 292.835938 725.5 294.5 C 723.371094 278.96875 734.429688 267.972656 735.964844 254.421875 C 750.609375 251.453125 761.742188 244.660156 767.894531 231.074219 C 769.601562 227.308594 773.207031 225.210938 776.644531 223.226562 C 782.953125 219.582031 789.59375 216.652344 796.503906 214.277344 C 815.195312 207.851562 815.480469 207.511719 828.847656 221.753906 C 834.523438 227.804688 840.882812 233.707031 844.03125 240.757812 C 842.492188 245.582031 837.140625 244.960938 836.203125 248.816406 C 838.273438 250.402344 839.695312 249.214844 841.210938 248.742188 C 847.824219 246.683594 854.417969 243.128906 861.085938 242.980469 C 874.273438 242.679688 886.886719 238.664062 899.976562 238.386719 C 899.976562 235.738281 899.976562 233.089844 899.976562 230.441406 C 894.941406 232.226562 889.773438 232.6875 884.429688 232.9375 C 875.898438 233.34375 867.25 233.503906 858.957031 236.09375 Z M 718.535156 452.734375 C 722.261719 457.378906 721.507812 461.476562 722.46875 464.800781 C 720.742188 467.210938 719.117188 468.722656 715.859375 467.898438 C 711.417969 462.476562 715.082031 458.179688 718.535156 452.734375 Z M 603.765625 487.328125 C 599.960938 495.003906 599.871094 502.394531 601.421875 510.617188 C 594.644531 514.4375 594.835938 521.722656 596.292969 527.136719 C 599.636719 539.585938 596.941406 551.429688 595.050781 563.371094 C 594.382812 567.605469 595.21875 571.988281 593.242188 576.734375 C 583.203125 581.917969 573.679688 588.914062 564.726562 596.675781 C 561.167969 599.761719 557.523438 599.972656 553.90625 597.34375 C 550.175781 594.636719 546.035156 592.046875 543.34375 588.449219 C 537.71875 580.933594 529.605469 577.582031 521.703125 573.714844 C 515.777344 570.8125 509.792969 568.03125 506.738281 561.496094 C 491.617188 562.765625 482.253906 555.117188 476.378906 542.308594 C 474.625 538.484375 472.539062 535.507812 468.097656 534.648438 C 465.023438 534.050781 462.46875 531.925781 461.148438 529.382812 C 455.980469 519.4375 447.527344 511.769531 442.472656 501.75 C 440.949219 498.730469 440.035156 495.679688 439.382812 492.15625 C 428.089844 490.375 428.84375 479.539062 423.773438 471.8125 C 431.578125 468.3125 438.308594 469.953125 444.535156 471.191406 C 452.453125 472.773438 460.273438 472.59375 468.179688 472.707031 C 484.324219 472.945312 500.535156 471.203125 516.59375 474.332031 C 520.222656 475.042969 524.035156 474.910156 527.308594 473.296875 C 533.988281 470.003906 540.570312 470.050781 547.398438 473.132812 C 551.886719 469.882812 556.574219 469.378906 562.054688 469.203125 C 571.15625 468.910156 580.167969 465.925781 589.214844 464.039062 C 597.121094 462.390625 598.847656 463.324219 602.691406 470.214844 C 605.832031 475.847656 606.277344 482.261719 603.765625 487.328125 Z M 716.84375 277.679688 C 716.128906 287.882812 714.871094 297.972656 711.085938 307.660156 C 709.183594 312.535156 707.460938 317.546875 706.976562 322.921875 C 706.1875 331.667969 702.042969 339.375 698.398438 347.136719 C 696.703125 350.75 692.9375 352.710938 689.34375 354.570312 C 682.007812 358.367188 674.761719 362.359375 667.488281 366.25 C 651.855469 374.613281 639.925781 387.882812 625.007812 397.136719 C 621.945312 399.039062 619.058594 401.261719 615.339844 403.113281 C 618.082031 413.257812 613.046875 422.121094 609.882812 431.328125 C 608.492188 435.371094 606.128906 439.085938 604.8125 443.148438 C 603.113281 448.390625 598.308594 449.25 594.714844 450.980469 C 593.128906 453.40625 594.851562 456.25 591.867188 458.28125 C 579.414062 457.746094 567.371094 463.046875 554.695312 465.167969 C 539.28125 467.746094 524.09375 468.238281 508.582031 466.628906 C 496.5 465.375 484.273438 465.570312 472.109375 465.140625 C 468 464.996094 464.585938 467.570312 459.566406 468.390625 C 457.574219 468.816406 457.371094 465.296875 454.582031 464.140625 C 448.09375 465.175781 440.875 464.957031 433.675781 464.417969 C 426.75 463.898438 419.832031 463.269531 413.496094 459.917969 C 409.9375 458.035156 406.066406 457.703125 402.015625 457.429688 C 389.496094 456.582031 383.484375 447.324219 387.117188 435.214844 C 388.441406 430.796875 389.53125 426.285156 392.0625 422.300781 C 389.300781 417.597656 388.429688 412.503906 387.332031 407.644531 C 390.625 401.816406 396.839844 402.875 401.46875 400.890625 C 406.414062 398.769531 410.65625 396.519531 414.472656 392.453125 C 422.855469 383.515625 429.894531 373.503906 438.003906 364.367188 C 440.84375 361.171875 442.917969 357.117188 447.542969 357.027344 C 449.953125 350.703125 452.472656 345.222656 456.507812 340.828125 C 462.839844 333.933594 464.878906 325.328125 464.378906 316.828125 C 464.042969 311.113281 465.332031 305.636719 467.546875 301.769531 C 473.910156 290.65625 477.210938 277.738281 486.566406 268.355469 C 487.023438 267.898438 487.183594 267.03125 487.695312 266.757812 C 497.082031 261.703125 497.839844 251.992188 500.40625 243.28125 C 502.175781 237.265625 503.65625 231.160156 505.621094 225.214844 C 507.621094 219.167969 510.582031 213.976562 516.910156 210.949219 C 522.710938 208.175781 525.742188 202.152344 529.695312 197.339844 C 538.117188 187.097656 547.808594 178.242188 558.222656 169.429688 C 559.820312 160.667969 566.101562 153.683594 569.960938 145.519531 C 575.601562 144.675781 581.058594 144.667969 584.503906 140.277344 C 592.511719 141.464844 597.851562 146.980469 604.492188 149.789062 C 608.078125 151.304688 611.078125 154.019531 614.996094 155.203125 C 618.835938 156.367188 620.410156 159.40625 619.308594 163.511719 C 620.945312 165.003906 622.984375 164.859375 624.910156 164.597656 C 634.566406 163.28125 640.226562 168.511719 645.105469 175.980469 C 650.675781 184.503906 657.585938 191.25 667.765625 195 C 676.394531 198.179688 684.214844 204.332031 688.980469 212.207031 C 694.292969 220.980469 701.566406 227.5 708.929688 234.007812 C 715.609375 239.914062 720.613281 246.496094 722.5 255.273438 C 719.625 262.488281 717.394531 269.832031 716.84375 277.679688 Z M 716.84375 277.679688 " fill-opacity="1" fill-rule="nonzero"/></g><path fill="#f0f3f3" d="M 479.589844 868.292969 C 478.328125 855.105469 476.988281 841.910156 473.996094 828.988281 C 472.296875 821.640625 467.609375 816.078125 461.464844 811.882812 C 459.570312 810.589844 457.238281 809.960938 456.34375 807.535156 C 454.5625 802.683594 450.503906 800.53125 446.007812 799.066406 C 441.957031 797.746094 438.230469 794.960938 437.3125 791.480469 C 435.496094 784.601562 430.179688 781.78125 425.496094 777.746094 C 420.03125 773.039062 413.457031 769.136719 410.765625 761.667969 C 405.609375 760.382812 400.3125 761.652344 395.09375 761.523438 C 382.191406 761.195312 375.136719 754.894531 376.039062 738.699219 C 376.195312 735.875 375.40625 733.679688 374.59375 731.160156 C 372.871094 725.804688 367.90625 721.570312 368.148438 715.855469 C 368.3125 712.039062 366.878906 709.488281 365.003906 706.894531 C 362.644531 703.628906 361.585938 699.6875 359.4375 696.445312 C 355.773438 690.929688 358.300781 684.207031 355.117188 678.65625 C 352.636719 674.335938 351.285156 669.539062 351.128906 664.46875 C 351.113281 664.035156 350.261719 663.625 349.621094 663.046875 C 347.128906 663.425781 344.753906 664.238281 344.003906 668.238281 C 351.582031 681.039062 351.359375 697.59375 360.847656 710.429688 C 360.054688 711.722656 358 712.234375 358.242188 714.707031 C 366.910156 725.441406 370.050781 738.402344 371.148438 752.589844 C 361.832031 758.691406 352.933594 764.859375 343.691406 770.445312 C 338.679688 773.476562 332.335938 774.917969 327.792969 777.894531 C 320.339844 782.777344 312.832031 785.847656 304.3125 787.425781 C 302.503906 787.757812 300.890625 789.363281 299.289062 790.523438 C 287.980469 798.710938 275.523438 804.804688 262.65625 810.949219 C 255.484375 807.453125 247.816406 810.261719 240.28125 809.667969 C 230.757812 808.921875 221.1875 807.59375 211.636719 808.824219 C 205.3125 809.636719 199.074219 809.035156 192.847656 808.570312 C 188.214844 808.21875 183.648438 808.3125 179.035156 808.28125 C 170.695312 808.230469 162.863281 810.5625 155.023438 813.113281 C 150.605469 806.050781 144.808594 801.867188 138.460938 798.121094 C 132.238281 794.453125 126.015625 790.574219 122.429688 783.792969 C 121.863281 782.722656 120.546875 781.996094 119.472656 781.265625 C 111.546875 775.875 103.695312 770.351562 94.140625 768.0625 C 86.460938 766.222656 79.878906 762.210938 75.539062 755.753906 C 69.363281 746.5625 59.464844 741.105469 53.121094 732.175781 C 51.757812 730.257812 49.519531 729.402344 47.140625 728.960938 C 36.261719 726.941406 26.175781 723.285156 18.644531 714.125 C 12.394531 716.671875 6.199219 715.8125 0.0117188 715.214844 C 0.0117188 718.527344 0.0117188 721.839844 0.0117188 725.148438 C 4.253906 723.570312 8.320312 721.324219 13.46875 721.28125 C 17.277344 730.328125 24.9375 733.777344 33.832031 734.816406 C 41.886719 735.75 48.214844 738.65625 52.058594 746.308594 C 53.332031 748.847656 56.019531 750.6875 58.105469 752.804688 C 65.667969 760.472656 71.761719 769.550781 80.957031 776.0625 C 87.578125 774.894531 94.488281 776.308594 100.710938 777.113281 C 102.90625 779.714844 99.867188 780.472656 100.4375 782.160156 C 106.441406 783.46875 111.039062 786.808594 115 791.617188 C 118.5 795.863281 122.492188 799.539062 127.515625 802.503906 C 135.859375 807.429688 143.316406 813.851562 150.757812 819.351562 C 149.234375 829.703125 151.835938 839.46875 147.648438 848.078125 C 148.269531 851.988281 152.300781 854.636719 149.65625 859.171875 C 141.019531 861.886719 131.136719 861.34375 121.351562 865.308594 C 131.964844 867.988281 141.339844 863.898438 150.867188 864.496094 C 158.121094 876.710938 162.492188 890.234375 172.851562 899.980469 C 202.652344 899.980469 232.453125 899.980469 262.253906 899.980469 C 257.585938 893.632812 250.21875 891.183594 243.191406 886.023438 C 240.378906 892.15625 235.113281 893.390625 229.777344 892.875 C 217.730469 891.710938 205.835938 893.601562 194.472656 896.394531 C 185.269531 898.660156 179.703125 895.3125 174.589844 889.523438 C 170.953125 885.414062 165.183594 881.882812 167.550781 875.6875 C 158.203125 869.757812 155.761719 861.316406 157.117188 852.171875 C 158.246094 844.5625 157.476562 837.316406 156.496094 829.980469 C 161.609375 817.730469 172.78125 815.828125 182.820312 817.332031 C 188.117188 818.125 193.304688 818.1875 198.617188 817.980469 C 210.851562 817.507812 223.109375 812.109375 235.371094 818.113281 C 236.703125 818.761719 238.734375 818.539062 240.265625 818.101562 C 243.648438 817.136719 246.847656 818.191406 250.070312 818.613281 C 258.761719 819.746094 261.847656 824.152344 260.582031 832.9375 C 260.28125 834.996094 257.785156 837.011719 260.613281 839.53125 C 265.488281 838.332031 266.671875 834.328125 267.605469 830.273438 C 267.199219 826.25 262.269531 823.566406 265.460938 818.1875 C 275.46875 810.628906 288.550781 806.386719 299.507812 798.558594 C 299.761719 798.378906 300.152344 798.410156 300.464844 798.304688 C 311.140625 794.683594 321.070312 789.757812 330.585938 783.550781 C 340.164062 777.304688 351.125 773.355469 360.792969 767.066406 C 365.121094 764.253906 368.460938 759.617188 374.921875 759.09375 C 384.730469 768.128906 397.257812 771.679688 410.601562 772.617188 C 416.820312 781.214844 422.628906 789.535156 431.203125 795.675781 C 442.230469 803.578125 450.984375 814.136719 461.152344 823.074219 C 463.578125 825.210938 464.652344 827.734375 465.183594 830.753906 C 467.8125 845.617188 471.988281 860.207031 472.632812 875.964844 C 482.417969 880.882812 485.03125 889.734375 484.765625 899.972656 C 488.074219 899.972656 491.386719 899.972656 494.695312 899.972656 C 493.773438 892.242188 492.851562 884.511719 492.015625 877.539062 C 487.816406 873.496094 481.78125 873.535156 479.589844 868.292969 Z M 479.589844 868.292969 " fill-opacity="1" fill-rule="nonzero"/><path fill="#f0f3f3" d="M 19.929688 156.855469 C 32.738281 158.117188 45.152344 161.828125 58.039062 162.746094 C 63.609375 163.144531 69.007812 164.820312 72.652344 168.71875 C 74.832031 174.929688 69.160156 178.59375 68.316406 184.355469 C 76.773438 181.585938 74.742188 171.867188 81.617188 168.839844 C 87.378906 170.175781 92.914062 168.824219 98.324219 165.738281 C 102.597656 163.304688 107.140625 161.246094 112.164062 160.558594 C 114.796875 160.195312 117.339844 159.429688 118.882812 156.894531 C 123.035156 150.058594 129.761719 146.597656 136.773438 143.71875 C 147.460938 139.324219 155.882812 130.691406 167.222656 127.566406 C 170.011719 122.34375 175.453125 120.867188 180.328125 119.480469 C 189.421875 116.898438 197.539062 112.867188 202.789062 108.015625 C 221.894531 102.933594 229.589844 112.980469 234.425781 127.199219 C 234.636719 127.824219 235.046875 128.382812 235.242188 129.007812 C 239.796875 143.859375 250.488281 155.40625 256.832031 169.472656 C 263.648438 184.589844 274.792969 197.785156 274.644531 215.589844 C 274.636719 216.808594 275.417969 218.035156 275.652344 218.722656 C 278.1875 220.964844 281.460938 219.679688 283.679688 222.414062 C 284.238281 227.652344 287.070312 232.449219 289.96875 237.285156 C 291.988281 240.65625 294.273438 244.277344 294.851562 248.03125 C 296.195312 256.757812 299.828125 266.378906 289.296875 272.277344 C 290.03125 275.550781 293.441406 275.917969 294.691406 278.214844 C 300.628906 289.140625 307.929688 299.523438 308.71875 312.546875 C 308.90625 315.640625 310.191406 318.308594 312.074219 320.65625 C 314.394531 323.542969 315.511719 327 317.152344 330.222656 C 323.222656 342.132812 324.960938 356.066406 333.945312 366.574219 C 338.546875 371.957031 342.3125 378.648438 351.003906 379.402344 C 350.710938 375.683594 353.621094 372.898438 352.300781 369.878906 C 348.726562 366.148438 344.972656 371.035156 341.453125 368.734375 C 338.246094 366.175781 340.605469 361.875 338.597656 358.3125 C 336.136719 355.421875 332.707031 352.574219 331.363281 348.371094 C 328.449219 339.257812 323.203125 330.996094 320.671875 321.898438 C 316.453125 306.742188 306.484375 294.550781 300.753906 279.324219 C 304.144531 272.78125 299.464844 264.230469 304.382812 257.355469 C 301.515625 252.574219 300.6875 247.804688 300.734375 242.511719 C 309.035156 236.097656 319 235.710938 328.6875 234.320312 C 336.136719 233.25 340.546875 239.371094 344.582031 241 C 364.972656 238.25 382.507812 231.464844 402.328125 229.269531 C 398.257812 226.332031 395.273438 225.164062 391.378906 225.378906 C 383.652344 230.15625 374.429688 232.242188 365.417969 233.476562 C 360.257812 234.183594 355.171875 234.152344 350.449219 236.664062 C 348.710938 237.589844 347.011719 238.722656 344.636719 238.066406 C 340.859375 236.234375 338.890625 232.019531 336.667969 230.550781 C 321.972656 226.492188 310.234375 231.546875 299.40625 237.324219 C 289.925781 230.125 288.433594 218.101562 279.019531 212.378906 C 279.773438 205.527344 280.480469 199.082031 281.273438 191.882812 C 276.140625 190.828125 273.179688 187.179688 271.230469 182.9375 C 267.527344 174.878906 263.984375 166.789062 259.648438 159.003906 C 256.167969 152.753906 254.921875 145.292969 248.492188 140.742188 C 247.027344 139.703125 246.140625 137.515625 245.519531 135.675781 C 240.898438 122.039062 236.351562 108.371094 227.363281 96.804688 C 226.007812 95.066406 228.273438 92.980469 226.425781 91.539062 C 222.792969 92.769531 220.449219 97.042969 215.320312 95.855469 C 213.988281 88.027344 207.804688 83.1875 203.375 77.136719 C 194.285156 64.707031 184.253906 52.789062 180.097656 36.515625 C 185.425781 27.90625 182.578125 19.199219 176.308594 10.863281 C 179.089844 7.535156 181.390625 4.292969 180.800781 0.00390625 C 176.164062 0.00390625 171.53125 0.00390625 166.894531 0.00390625 C 165.304688 3.734375 166.667969 7 168.273438 10.375 C 171.289062 16.703125 173.304688 23.570312 172.894531 30.449219 C 172.140625 43.097656 178.273438 53.472656 183.746094 63.625 C 189.761719 74.78125 195.339844 86.527344 204.652344 95.675781 C 205.785156 96.789062 206.382812 98.472656 206.019531 100.304688 C 204.992188 102.609375 202.695312 103.234375 200.601562 104.195312 C 189.945312 109.082031 179.460938 114.414062 168.570312 118.714844 C 164.5 120.324219 161.804688 122.953125 158.539062 125.359375 C 153.839844 128.820312 148.082031 130.816406 142.890625 133.648438 C 129.332031 141.039062 115.863281 148.589844 102.285156 155.945312 C 100.617188 156.851562 98.417969 157.554688 96.617188 157.296875 C 91.714844 156.597656 88.789062 160 85.839844 162.007812 C 76.847656 162.351562 70.171875 157.546875 62.878906 154.660156 C 58.890625 153.078125 55.289062 151.96875 50.605469 153.011719 C 44.207031 154.433594 36.929688 154.273438 31.144531 151.417969 C 21.179688 146.496094 10.257812 146.25 0.0117188 143.042969 C 0.0117188 147.015625 0.0117188 150.988281 0.0117188 154.964844 C 3.925781 154.4375 7.84375 153.914062 12.078125 153.34375 C 14.429688 154.734375 16.851562 156.554688 19.929688 156.855469 Z M 19.929688 156.855469 " fill-opacity="1" fill-rule="nonzero"/><path fill="#f0f3f3" d="M 77.539062 413.246094 C 81.777344 412.46875 85.925781 413.316406 90.152344 413.636719 C 102.101562 414.53125 114.152344 412.507812 126.109375 414.636719 C 127.28125 414.84375 128.742188 414.199219 129.890625 413.601562 C 136.042969 410.398438 142.332031 411.234375 148.074219 413.972656 C 154.882812 417.21875 162.023438 417.53125 169.222656 418.394531 C 189.226562 420.78125 209.421875 420.253906 229.433594 422.726562 C 239.898438 424.019531 250.523438 424.726562 261.058594 424.539062 C 274.398438 424.304688 286.984375 426.785156 299.230469 431.769531 C 301.351562 432.632812 303.65625 433.054688 305.886719 433.640625 C 312.292969 435.332031 317.503906 433.46875 321.792969 428.464844 C 325.875 423.699219 330.050781 419.015625 334.320312 414.417969 C 338.246094 410.191406 341.867188 405.441406 350.105469 405.132812 C 345.550781 398.214844 348.898438 390.992188 345.351562 384.285156 C 336.941406 388.261719 341.097656 395.214844 340.738281 400.964844 C 335.257812 406.6875 328.867188 411.519531 324.496094 418.160156 C 320.28125 424.554688 314.65625 425.652344 307.320312 424.578125 C 291.402344 422.257812 275.996094 415.839844 259.449219 418.234375 C 258.839844 418.320312 258.140625 418.03125 257.527344 417.796875 C 247.414062 413.894531 236.605469 415.554688 226.261719 414.9375 C 212.035156 414.082031 198.066406 412.757812 184.25 409.449219 C 177.78125 407.898438 171.148438 406.34375 164.636719 407.683594 C 158.140625 409.019531 152.261719 407.75 146.1875 406.105469 C 140.777344 404.640625 135.183594 402.375 129.644531 404.015625 C 119.699219 406.964844 110.742188 405.027344 102.003906 400.234375 C 101.125 399.75 100.082031 399.785156 99.921875 399.929688 C 96.925781 403.0625 99.675781 406.097656 98.75 408.667969 C 95.792969 409.355469 93.21875 409.941406 90.957031 408.128906 C 89.160156 404.789062 95.015625 402.480469 91.558594 398.511719 C 81.851562 400.671875 71.722656 399.929688 61.589844 399.523438 C 58.292969 399.390625 54.941406 399.316406 51.679688 399.726562 C 44.167969 400.667969 37.253906 399.488281 31.3125 394.929688 C 20.476562 395.808594 10.117188 394.671875 0.0117188 391.367188 C 0.0117188 394.015625 0.0117188 396.667969 0.0117188 399.316406 C 5.777344 400.554688 11.769531 400.578125 17.464844 401.75 C 31.886719 404.714844 46.753906 404.265625 61.039062 407.964844 C 65.660156 409.160156 70.058594 409.097656 74.226562 406.3125 C 75.757812 405.285156 77.628906 404.769531 79.695312 403.867188 C 81.777344 408.265625 78.078125 410.378906 77.382812 413.261719 C 77.414062 413.257812 77.449219 413.25 77.480469 413.246094 C 77.511719 413.203125 77.546875 413.15625 77.578125 413.113281 C 77.570312 413.164062 77.554688 413.203125 77.539062 413.246094 Z M 77.539062 413.246094 " fill-opacity="1" fill-rule="nonzero"/><path fill="#f0f3f3" d="M 879.867188 140.617188 C 872.011719 145.027344 862.988281 147.007812 854.433594 149.9375 C 842.714844 153.945312 832.332031 160.609375 830.011719 174.492188 C 828.546875 183.246094 826.84375 191.835938 819.742188 198.367188 C 823.558594 196.859375 827.007812 195.242188 829.628906 192 C 831.996094 181.226562 833.75 170.035156 841.941406 161.007812 C 848.78125 160.976562 855.726562 160.652344 861.15625 155.324219 C 861.796875 154.699219 862.964844 154.554688 863.921875 154.320312 C 876.433594 151.230469 887.695312 144.742188 899.984375 141.058594 C 899.984375 137.746094 899.984375 134.433594 899.984375 131.125 C 892.648438 132.972656 886.398438 136.949219 879.867188 140.617188 Z M 879.867188 140.617188 " fill-opacity="1" fill-rule="nonzero"/><path fill="#f0f3f3" d="M 50.058594 869.894531 C 44.703125 868.582031 39.042969 866.957031 38.191406 860.410156 C 23.253906 860.332031 12.019531 852.300781 0.015625 846.332031 C 0.015625 847.65625 0.015625 848.980469 0.015625 850.304688 C 6.433594 855.496094 13.386719 859.984375 21.132812 862.695312 C 34.84375 867.492188 47.464844 874.71875 61.445312 880.113281 C 73.855469 871.476562 86.335938 878.984375 99.050781 880.976562 C 98.695312 876.96875 93.1875 877.863281 92.859375 874.003906 C 95.234375 870.542969 100.910156 873.667969 103.039062 868.554688 C 94.511719 868.554688 86.324219 868.8125 78.355469 870.710938 C 68.777344 872.996094 59.363281 872.167969 50.058594 869.894531 Z M 50.058594 869.894531 " fill-opacity="1" fill-rule="nonzero"/><path fill="#f0f3f3" d="M 841.085938 10.148438 C 845.828125 13.496094 848.339844 17.921875 848.386719 23.480469 C 848.414062 26.925781 849.8125 29.46875 851.113281 32.46875 C 854.78125 40.941406 860.734375 47.378906 867.296875 53.476562 C 871.320312 57.214844 873.363281 61.21875 873.019531 67.335938 C 872.429688 77.667969 874.972656 88.199219 880.917969 96.441406 C 885.078125 102.203125 889.523438 108.082031 894.464844 115.027344 C 895.757812 107.257812 889.359375 103.191406 890.582031 97.121094 C 881.183594 94.253906 877.660156 87.636719 877.054688 79.015625 C 876.753906 74.742188 875.90625 70.34375 876.566406 66.203125 C 877.742188 58.816406 875.09375 53.347656 869.945312 48.566406 C 867.527344 46.320312 865.382812 43.71875 862.742188 41.792969 C 857.238281 37.78125 854.511719 32.582031 854.410156 25.808594 C 854.277344 17.214844 851.644531 9.707031 844.585938 4.195312 C 843.039062 2.988281 841.777344 1.410156 840.382812 0.00390625 C 837.070312 0.00390625 833.757812 0.00390625 830.449219 0.00390625 C 832.722656 4.707031 837.085938 7.332031 841.085938 10.148438 Z M 841.085938 10.148438 " fill-opacity="1" fill-rule="nonzero"/><path fill="#f0f3f3" d="M 58.171875 435.566406 C 66.75 429.671875 74.148438 423.351562 77.539062 413.25 C 77.519531 413.25 77.503906 413.253906 77.488281 413.257812 C 70.285156 423.402344 60.4375 430.277344 49.535156 435.851562 C 44.253906 438.550781 38.855469 441.042969 33.699219 443.964844 C 25.875 448.398438 19.746094 455 12.980469 460.785156 C 9.207031 464.011719 5.605469 467.539062 0.015625 466.875 C 0.015625 470.1875 0.015625 473.5 0.015625 476.808594 C 6.753906 472.289062 14.539062 468.769531 20.003906 463.035156 C 31.097656 451.394531 45.277344 444.417969 58.171875 435.566406 Z M 58.171875 435.566406 " fill-opacity="1" fill-rule="nonzero"/><path fill="#f0f3f3" d="M 873.933594 891.828125 C 863.179688 892.089844 853.589844 894.988281 844.359375 899.972656 C 854.953125 899.972656 865.550781 899.972656 876.144531 899.972656 C 878.792969 899.226562 881.441406 894.46875 884.09375 899.972656 C 889.410156 899.972656 894.730469 899.972656 899.988281 899.972656 C 899.988281 897.988281 899.988281 896.992188 899.988281 896 C 891.757812 891.6875 883.058594 891.605469 873.933594 891.828125 Z M 873.933594 891.828125 " fill-opacity="1" fill-rule="nonzero"/><path fill="#f0f3f3" d="M 602.519531 890.261719 C 591.871094 885.417969 590.007812 882.820312 590.617188 871.585938 C 590.859375 867.082031 589.746094 863.675781 584.777344 859.710938 C 585.671875 867.28125 585.820312 873.160156 587.152344 878.761719 C 589.296875 887.742188 593.414062 895.425781 603.683594 897.578125 C 605.203125 897.894531 606.527344 899.152344 607.941406 899.972656 C 610.589844 899.972656 613.238281 899.972656 615.886719 899.972656 C 612.753906 894.917969 607.617188 892.582031 602.519531 890.261719 Z M 602.519531 890.261719 " fill-opacity="1" fill-rule="nonzero"/><path fill="#f0f3f3" d="M 108.070312 27.34375 C 102.832031 18.332031 97.179688 9.667969 93.390625 0 C 92.0625 0 90.742188 0 89.414062 0 C 92.859375 4.773438 95.304688 10.09375 97.898438 15.34375 C 100.269531 20.148438 103.894531 23.941406 108.070312 27.34375 Z M 108.070312 27.34375 " fill-opacity="1" fill-rule="nonzero"/><path fill="#f0f3f3" d="M 16.015625 732.253906 C 11.652344 727.773438 5.371094 728.785156 0.0117188 727.132812 C 0.0117188 728.457031 0.0117188 729.78125 0.0117188 731.105469 C 3.636719 732.476562 7.253906 733.867188 10.890625 735.210938 C 13.445312 736.15625 15.308594 735.636719 16.015625 732.253906 Z M 16.015625 732.253906 " fill-opacity="1" fill-rule="nonzero"/><path fill="#f0f3f3" d="M 530.460938 899.972656 C 540.394531 899.972656 550.328125 899.972656 560.261719 899.972656 C 560.207031 899.308594 560.15625 898.640625 560.101562 897.972656 C 549.960938 894.695312 540.296875 898.644531 530.460938 899.972656 Z M 530.460938 899.972656 " fill-opacity="1" fill-rule="nonzero"/><path fill="#f0f3f3" d="M 560.101562 897.972656 C 560.140625 897.988281 560.179688 897.996094 560.214844 898.007812 C 560.289062 897.960938 560.363281 897.921875 560.4375 897.875 C 560.324219 897.871094 560.207031 897.871094 560.09375 897.867188 C 560.097656 897.902344 560.097656 897.9375 560.101562 897.972656 Z M 560.101562 897.972656 " fill-opacity="1" fill-rule="nonzero"/><path fill="#f0f3f3" d="M 899.988281 156.949219 C 899.988281 155.625 899.988281 154.300781 899.988281 152.976562 C 896.707031 156.105469 892.023438 156.742188 887.253906 159.332031 C 892.949219 161.484375 896.460938 159.175781 899.988281 156.949219 Z M 899.988281 156.949219 " fill-opacity="1" fill-rule="nonzero"/><path fill="#f0f3f3" d="M 667.542969 899.972656 C 670.191406 899.972656 672.839844 899.972656 675.488281 899.972656 C 676.71875 896.359375 680.765625 896.300781 683.050781 894.023438 C 677.132812 894.007812 671.792969 895.539062 667.542969 899.972656 Z M 667.542969 899.972656 " fill-opacity="1" fill-rule="nonzero"/><path fill="#f0f3f3" d="M 683.054688 894.023438 C 683.15625 894.023438 683.257812 894.023438 683.363281 894.023438 C 683.523438 893.949219 683.6875 893.878906 683.851562 893.8125 C 683.636719 893.820312 683.429688 893.835938 683.21875 893.851562 C 683.164062 893.910156 683.109375 893.96875 683.054688 894.023438 Z M 683.054688 894.023438 " fill-opacity="1" fill-rule="nonzero"/><path fill="#f0f3f3" d="M 860.832031 4.484375 C 863 3.742188 863.519531 1.800781 864.226562 0 C 862.898438 0 861.578125 0 860.25 0 C 860.492188 1.476562 859.109375 3.167969 860.832031 4.484375 Z M 860.832031 4.484375 " fill-opacity="1" fill-rule="nonzero"/><path fill="#f0f3f3" d="M 895.796875 849.191406 C 897.496094 848.839844 898.742188 848.578125 899.988281 848.320312 C 899.988281 847.660156 899.988281 846.996094 899.988281 846.332031 C 898.601562 847.027344 896.15625 846.199219 895.796875 849.191406 Z M 895.796875 849.191406 " fill-opacity="1" fill-rule="nonzero"/><path fill="#f0f3f3" d="M 312.046875 34.394531 C 318.359375 33.460938 324.234375 31.230469 329.78125 28.464844 C 332.898438 26.90625 335.8125 26.542969 339.0625 26.226562 C 352.429688 24.933594 366.085938 26.914062 379.195312 22.972656 C 384.9375 21.246094 389.449219 21.9375 393.039062 27.140625 C 395.050781 30.0625 397.828125 31.824219 402.257812 30.570312 C 399.757812 26.925781 395.71875 26.398438 394.839844 22.722656 C 393.105469 19.976562 396.953125 16.210938 393.125 13.554688 C 386.152344 18.53125 378.066406 20.136719 369.839844 18.992188 C 364.4375 18.238281 359.523438 18.074219 354.355469 19.914062 C 350.015625 21.460938 345.386719 22.246094 340.71875 21.964844 C 336.628906 21.71875 332.492188 22.433594 329.242188 24.433594 C 321.0625 29.464844 312.589844 31.894531 303.042969 30.160156 C 302.527344 30.066406 301.886719 30.671875 300.816406 31.1875 C 300.589844 33.0625 298.617188 34.714844 299.167969 38.269531 C 303.609375 35.804688 307.871094 35.011719 312.046875 34.394531 Z M 312.046875 34.394531 " fill-opacity="1" fill-rule="nonzero"/><path fill="#f0f3f3" d="M 483.230469 71.125 C 485.136719 70.8125 486.738281 72.695312 488.382812 73.820312 C 491.644531 76.0625 494.949219 78.289062 498.4375 80.144531 C 503.519531 82.851562 507.441406 86.339844 510.328125 91.554688 C 512.363281 95.238281 514.09375 99.960938 519.722656 101.710938 C 514.628906 82.398438 499.84375 73.46875 484.652344 64.992188 C 483.644531 64.429688 482.089844 64.636719 480.824219 64.789062 C 472.316406 65.804688 464.472656 64.246094 457.394531 59.207031 C 456.390625 58.492188 454.9375 58.410156 453.878906 58.089844 C 451.136719 59.140625 448.832031 60.273438 446.910156 63.117188 C 459.6875 63.898438 470.050781 73.289062 483.230469 71.125 Z M 483.230469 71.125 " fill-opacity="1" fill-rule="nonzero"/><path fill="#f0f3f3" d="M 572.542969 844.722656 C 574.96875 843.65625 577.011719 844.421875 578.683594 846.394531 C 579.230469 847.035156 579.828125 846.980469 580.40625 846.277344 C 580.121094 843.484375 583.429688 842.335938 583.703125 839.90625 C 565.769531 839.855469 550.019531 847.394531 533.988281 853.804688 C 528.652344 855.941406 523.015625 857.773438 518.835938 862.101562 C 520.65625 861.75 522.53125 861.546875 524.273438 860.953125 C 540.347656 855.507812 556.941406 851.578125 572.542969 844.722656 Z M 572.542969 844.722656 " fill-opacity="1" fill-rule="nonzero"/><path fill="#f0f3f3" d="M 629.726562 820.824219 C 619.234375 825.691406 609.136719 830.375 599.042969 835.058594 C 599.179688 835.503906 599.320312 835.945312 599.460938 836.390625 C 603.824219 835.109375 608.21875 833.914062 612.546875 832.519531 C 617.234375 831.007812 621.808594 829.15625 626.523438 827.738281 C 630.914062 826.421875 635.320312 825.179688 639.945312 824.695312 C 644.339844 824.230469 649.230469 825.167969 654.734375 821.210938 C 644.949219 820.519531 637.125 823.144531 629.726562 820.824219 Z M 629.726562 820.824219 " fill-opacity="1" fill-rule="nonzero"/><path fill="#f0f3f3" d="M 412.433594 235.359375 C 419.417969 234.070312 426.496094 234.492188 433.550781 232.316406 C 442.957031 229.414062 452.882812 227.601562 463.035156 228.53125 C 454.757812 226.574219 446.171875 225.3125 438.214844 227.703125 C 428.335938 230.671875 418.253906 231.394531 407.332031 233.195312 C 409.171875 235.269531 410.746094 235.671875 412.433594 235.359375 Z M 412.433594 235.359375 " fill-opacity="1" fill-rule="nonzero"/><path fill="#f0f3f3" d="M 11.28125 266.847656 C 13.5625 261.59375 14.933594 256.589844 21.082031 255.105469 C 31.480469 252.597656 35.257812 243.835938 39.59375 233.785156 C 32.378906 236.800781 33.945312 244.738281 28.578125 247.183594 C 23.523438 249.488281 18.414062 251.679688 12.820312 254.140625 C 13.011719 258.003906 6.46875 260.84375 11.28125 266.847656 Z M 11.28125 266.847656 " fill-opacity="1" fill-rule="nonzero"/><path fill="#f0f3f3" d="M 247.863281 69.832031 C 241.722656 68.441406 236.734375 69.328125 234.234375 77.835938 C 246.71875 72.082031 257.246094 66.246094 266.929688 56.851562 C 257.875 58.535156 252.761719 63.910156 247.863281 69.832031 Z M 247.863281 69.832031 " fill-opacity="1" fill-rule="nonzero"/><path fill="#f0f3f3" d="M 457.902344 737.464844 C 453.726562 741.222656 447.023438 739.9375 444.535156 747.449219 C 449.824219 746.273438 454.113281 745.496094 457.746094 743.519531 C 458.78125 741.515625 458.96875 739.960938 457.902344 737.464844 Z M 457.902344 737.464844 " fill-opacity="1" fill-rule="nonzero"/><path fill="#f0f3f3" d="M 569.511719 895.507812 C 566.160156 895.417969 563.226562 896.222656 560.4375 897.875 C 565.882812 897.996094 571.324219 898.242188 576.765625 898.171875 C 581.09375 898.117188 585.605469 898.289062 589.683594 893.972656 C 582.515625 895.660156 576.003906 895.683594 569.511719 895.507812 Z M 569.511719 895.507812 " fill-opacity="1" fill-rule="nonzero"/><path fill="#f0f3f3" d="M 415.703125 40.40625 C 414.851562 34.714844 409.25 33.316406 407.59375 27.734375 C 405.859375 37.128906 405.859375 37.128906 415.703125 40.40625 Z M 415.703125 40.40625 " fill-opacity="1" fill-rule="nonzero"/><path fill="#f0f3f3" d="M 473.101562 741.613281 C 472.996094 740.03125 472.929688 739.089844 472.789062 737.054688 C 469.402344 736.765625 466.652344 736.375 463.941406 739.242188 C 466.996094 741.371094 469.863281 741.636719 473.101562 741.613281 Z M 473.101562 741.613281 " fill-opacity="1" fill-rule="nonzero"/><path fill="#f0f3f3" d="M 683.851562 893.8125 C 688.269531 893.566406 692.804688 894.320312 697.046875 892.476562 C 692.347656 890.472656 688.078125 891.976562 683.851562 893.8125 Z M 683.851562 893.8125 " fill-opacity="1" fill-rule="nonzero"/><path fill="#f0f3f3" d="M 8.328125 276.417969 C 6.839844 278.753906 3.589844 280.550781 5.632812 284.226562 C 8.058594 281.9375 7.84375 278.988281 8.328125 276.417969 Z M 8.328125 276.417969 " fill-opacity="1" fill-rule="nonzero"/><path fill="#f0f3f3" d="M 509.523438 866.371094 C 513.636719 866.027344 516.207031 864.601562 518.371094 862.3125 C 515.242188 862.378906 512.402344 863.195312 509.523438 866.371094 Z M 509.523438 866.371094 " fill-opacity="1" fill-rule="nonzero"/><path fill="#f0f3f3" d="M 518.371094 862.3125 C 518.457031 862.308594 518.546875 862.308594 518.632812 862.308594 C 518.699219 862.238281 518.765625 862.167969 518.832031 862.101562 C 518.726562 862.125 518.621094 862.144531 518.515625 862.164062 C 518.464844 862.210938 518.417969 862.261719 518.371094 862.3125 Z M 518.371094 862.3125 " fill-opacity="1" fill-rule="nonzero"/><path fill="#f0f3f3" d="M 600.757812 12.527344 C 601.234375 12.441406 601.613281 11.820312 602.035156 11.4375 C 601.542969 11.222656 601.066406 10.945312 600.558594 10.847656 C 600.351562 10.8125 599.925781 11.132812 599.855469 11.367188 C 599.632812 12.085938 600.023438 12.664062 600.757812 12.527344 Z M 600.757812 12.527344 " fill-opacity="1" fill-rule="nonzero"/><path fill="#f0f3f3" d="M 583.371094 855.550781 C 584.238281 855.746094 584.914062 854.003906 583.542969 851.917969 C 582.703125 853.695312 581.957031 855.238281 583.371094 855.550781 Z M 583.371094 855.550781 " fill-opacity="1" fill-rule="nonzero"/><path fill="#f0f3f3" d="M 561.574219 830.4375 C 561.003906 831.9375 562.199219 832.597656 562.9375 833.503906 C 563.761719 831.886719 563.628906 830.746094 561.574219 830.4375 Z M 561.574219 830.4375 " fill-opacity="1" fill-rule="nonzero"/><path fill="#f0f3f3" d="M 281.324219 51.28125 C 280.484375 48.820312 279.25 48.625 277.523438 50.527344 C 278.550781 51.882812 279.714844 52.414062 281.324219 51.28125 Z M 281.324219 51.28125 " fill-opacity="1" fill-rule="nonzero"/><path fill="#f0f3f3" d="M 233.046875 83.789062 C 232.085938 84.019531 231.492188 84.535156 231.496094 86.378906 C 233.40625 85.808594 233.964844 85.105469 233.046875 83.789062 Z M 233.046875 83.789062 " fill-opacity="1" fill-rule="nonzero"/><path fill="#f0f3f3" d="M 812.980469 785.816406 C 818.519531 783.730469 823.359375 780.4375 826.84375 774.941406 C 821.867188 777.980469 816.890625 781.019531 811.914062 784.058594 C 812.269531 784.644531 812.621094 785.234375 812.980469 785.816406 Z M 812.980469 785.816406 " fill-opacity="1" fill-rule="nonzero"/><path fill="#f0f3f3" d="M 852.472656 756.808594 C 855.589844 754.402344 860.78125 755.921875 863.496094 750.730469 C 857.796875 750.578125 854.847656 753.324219 852.472656 756.808594 Z M 852.472656 756.808594 " fill-opacity="1" fill-rule="nonzero"/><path fill="#f0f3f3" d="M 886.390625 849.058594 C 883.105469 848.636719 879.820312 848.214844 876.535156 847.792969 C 879.601562 850.800781 883.027344 849.664062 886.390625 849.058594 Z M 886.390625 849.058594 " fill-opacity="1" fill-rule="nonzero"/><path fill="#f0f3f3" d="M 850.023438 783.632812 C 848.289062 781.027344 846.085938 780.667969 843.164062 781.675781 C 845.214844 783.523438 847.058594 785.046875 850.023438 783.632812 Z M 850.023438 783.632812 " fill-opacity="1" fill-rule="nonzero"/><path fill="#f0f3f3" d="M 833.28125 594.816406 C 833.320312 597.660156 835.324219 597.394531 839.226562 597.347656 C 835.910156 596.167969 835.175781 594.316406 833.28125 594.816406 Z M 833.28125 594.816406 " fill-opacity="1" fill-rule="nonzero"/><path fill="#f0f3f3" d="M 856.0625 590.289062 C 856.199219 590.246094 856.332031 590.199219 856.464844 590.148438 C 856.53125 590.042969 856.589844 589.941406 856.65625 589.839844 C 856.539062 589.878906 856.421875 589.925781 856.304688 589.972656 C 856.222656 590.078125 856.140625 590.183594 856.0625 590.289062 Z M 856.0625 590.289062 " fill-opacity="1" fill-rule="nonzero"/><path fill="#f0f3f3" d="M 850.121094 594.460938 C 852.917969 593.808594 854.605469 592.203125 856.0625 590.292969 C 853.8125 591.019531 850.972656 590.875 850.121094 594.460938 Z M 850.121094 594.460938 " fill-opacity="1" fill-rule="nonzero"/><path fill="#f0f3f3" d="M 877.867188 774.007812 C 879.820312 774.179688 881.273438 774.308594 882.730469 774.441406 C 881.605469 772.949219 880.097656 771.253906 877.867188 774.007812 Z M 877.867188 774.007812 " fill-opacity="1" fill-rule="nonzero"/><path fill="#f0f3f3" d="M 874.003906 874.5625 C 875.472656 876.320312 877.21875 875.816406 879.039062 875.257812 C 877.511719 873.742188 875.785156 874.121094 874.003906 874.5625 Z M 874.003906 874.5625 " fill-opacity="1" fill-rule="nonzero"/><path fill="#f0f3f3" d="M 834.871094 873.230469 C 835.71875 874.539062 836.625 875.597656 838.351562 874.503906 C 837.726562 872.59375 836.5 872.40625 834.871094 873.230469 Z M 834.871094 873.230469 " fill-opacity="1" fill-rule="nonzero"/><path fill="#f0f3f3" d="M 891.734375 16.136719 C 884.667969 13.773438 884.667969 13.773438 877.160156 15.496094 C 881.796875 19.921875 886.054688 17.089844 891.734375 16.136719 Z M 891.734375 16.136719 " fill-opacity="1" fill-rule="nonzero"/><path fill="#f0f3f3" d="M 811.546875 143.015625 C 809.121094 141.257812 807.585938 141.027344 806.695312 143.636719 C 808.183594 144.867188 809.570312 144.800781 811.546875 143.015625 Z M 811.546875 143.015625 " fill-opacity="1" fill-rule="nonzero"/><path fill="#f0f3f3" d="M 767.53125 277.925781 C 764.214844 278.375 760.792969 281.015625 758.390625 285.644531 C 772.535156 280.335938 786.40625 277.648438 795.804688 266.140625 C 797.359375 264.238281 800.160156 262.964844 802.628906 262.261719 C 812.1875 259.542969 820.269531 253.347656 830.101562 250.34375 C 819.675781 251.570312 809.832031 256.207031 799.148438 257.40625 C 790.683594 267.578125 781.394531 276.050781 767.53125 277.925781 Z M 767.53125 277.925781 " fill-opacity="1" fill-rule="nonzero"/><path fill="#f0f3f3" d="M 715.617188 430.933594 C 716.710938 423.347656 713.785156 416.632812 711 409.949219 C 709.480469 421.078125 709.804688 422.34375 715.617188 430.933594 Z M 715.617188 430.933594 " fill-opacity="1" fill-rule="nonzero"/><path fill="#f0f3f3" d="M 697.929688 396.617188 C 699.234375 396.28125 700.113281 396.054688 701.414062 395.71875 C 701.585938 391.492188 699.210938 389.167969 698.074219 386.273438 C 698.636719 389.671875 695.949219 393.0625 697.929688 396.617188 Z M 697.929688 396.617188 " fill-opacity="1" fill-rule="nonzero"/><path fill="#f0f3f3" d="M 255.914062 852.117188 C 249.90625 860.824219 249.277344 870.566406 247.914062 880.089844 C 256.875 863.777344 258.265625 858.796875 255.914062 852.117188 Z M 255.914062 852.117188 " fill-opacity="1" fill-rule="nonzero"/><path fill="#f0f3f3" d="M 159.585938 110.65625 C 159.066406 105.332031 157.015625 102.476562 153.628906 99.46875 C 154.054688 107.296875 154.054688 107.296875 159.585938 110.65625 Z M 159.585938 110.65625 " fill-opacity="1" fill-rule="nonzero"/><path fill="#f0f3f3" d="M 146.007812 84.308594 C 144.585938 80.097656 142.578125 76.296875 138.441406 74.183594 C 141.253906 77.382812 141.496094 82.328125 146.007812 84.308594 Z M 146.007812 84.308594 " fill-opacity="1" fill-rule="nonzero"/><path fill="#f0f3f3" d="M 32.898438 112.410156 C 30.976562 111.929688 29.433594 112.238281 28.484375 114.164062 C 30.523438 114.917969 31.78125 113.90625 32.898438 112.410156 Z M 32.898438 112.410156 " fill-opacity="1" fill-rule="nonzero"/><path fill="#f0f3f3" d="M 874.449219 519.320312 C 875.789062 519.820312 877.214844 521.714844 878.945312 519.664062 C 877.453125 518.242188 876.230469 517.3125 874.449219 519.320312 Z M 874.449219 519.320312 " fill-opacity="1" fill-rule="nonzero"/></g></g></g></svg>