<svg xmlns="http://www.w3.org/2000/svg" xmlns:xlink="http://www.w3.org/1999/xlink" width="1200" zoomAndPan="magnify" viewBox="0 0 900 899.99999" height="1200" preserveAspectRatio="xMidYMid meet" version="1.0"><defs><filter x="0%" y="0%" width="100%" height="100%" id="baaf895117"><feColorMatrix values="0 0 0 0 1 0 0 0 0 1 0 0 0 0 1 0 0 0 1 0" color-interpolation-filters="sRGB"/></filter><mask id="c4199d60b6"><g filter="url(#baaf895117)"><rect x="-90" width="1080" fill="#000000" y="-89.999999" height="1079.999988" fill-opacity="0.15"/></g></mask><clipPath id="0665f9a45a"><path d="M 0.480469 1 L 899.761719 1 L 899.761719 897 L 0.480469 897 Z M 0.480469 1 " clip-rule="nonzero"/></clipPath><clipPath id="adf6dd3bec"><rect x="0" width="900" y="0" height="898"/></clipPath></defs><g mask="url(#c4199d60b6)"><g transform="matrix(1, 0, 0, 1, 0.000000000000000056, 0.000000000000108392)"><g clip-path="url(#adf6dd3bec)"><g clip-path="url(#0665f9a45a)"><path fill="#f0f3f3" d="M 719.195312 233.617188 C 713.988281 231.53125 709.128906 229.101562 703.921875 227.019531 C 652.546875 204.804688 615.753906 172.867188 581.039062 120.453125 C 576.527344 113.855469 572.015625 106.21875 567.15625 98.582031 C 540.078125 54.847656 506.0625 0 450.171875 1.386719 C 384.21875 2.429688 344.648438 69.773438 306.117188 134.683594 C 282.511719 174.605469 260.296875 212.09375 233.21875 233.960938 C 212.046875 250.972656 183.582031 266.246094 153.726562 282.558594 C 81.875 321.4375 0.644531 365.523438 0.644531 447.445312 C 0.644531 521.730469 81.875 571.019531 153.382812 614.410156 C 188.789062 635.933594 222.460938 656.066406 244.328125 677.9375 C 265.851562 699.457031 283.554688 730.699219 302.644531 764.023438 C 339.441406 829.28125 377.625 896.625 449.480469 896.625 C 449.480469 896.625 449.828125 896.625 449.828125 896.625 C 684.484375 895.582031 898.660156 681.40625 899.007812 447.445312 C 899.355469 311.371094 823.679688 278.742188 719.195312 233.617188 Z M 449.828125 893.5 C 449.828125 893.5 449.480469 893.5 449.480469 893.5 C 379.707031 893.5 341.871094 826.851562 305.421875 762.632812 C 286.675781 729.308594 268.625 697.375 246.757812 675.851562 C 224.542969 653.984375 190.871094 633.503906 155.117188 611.980469 C 84.304688 568.589844 4.117188 519.992188 4.117188 447.445312 C 4.117188 367.605469 84.304688 324.214844 155.117188 285.683594 C 185.316406 269.371094 213.78125 254.097656 234.957031 236.738281 C 262.726562 214.523438 284.941406 176.6875 308.894531 136.421875 C 346.730469 72.203125 386.300781 5.902344 449.828125 4.511719 C 450.519531 4.511719 450.867188 4.511719 451.5625 4.511719 C 504.324219 4.511719 537.300781 57.621094 563.683594 100.320312 C 568.542969 107.957031 573.054688 115.59375 577.570312 122.1875 C 612.976562 175.296875 650.117188 207.582031 702.1875 230.144531 C 707.394531 232.226562 712.601562 234.65625 717.460938 236.738281 C 820.902344 281.171875 895.882812 313.453125 895.535156 447.445312 C 895.1875 680.019531 682.746094 892.460938 449.828125 893.5 Z M 449.828125 893.5 " fill-opacity="1" fill-rule="nonzero"/></g><path fill="#f0f3f3" d="M 855.964844 445.015625 C 851.449219 342.613281 771.613281 301.304688 686.914062 257.566406 L 676.5 252.011719 C 646.300781 236.390625 615.753906 207.929688 586.246094 180.15625 C 541.816406 138.503906 495.648438 95.460938 447.398438 93.375 C 393.246094 90.945312 342.566406 144.402344 297.4375 191.613281 C 275.917969 214.175781 255.4375 235.699219 235.996094 249.929688 C 217.597656 263.46875 196.425781 275.617188 174.207031 288.113281 C 108.949219 325.257812 41.261719 363.789062 38.828125 444.667969 C 36.398438 515.828125 108.253906 563.382812 171.777344 605.386719 C 200.242188 624.132812 226.972656 642.183594 245.714844 660.925781 C 264.460938 680.019531 281.46875 705.359375 299.175781 732.085938 C 338.398438 791.445312 378.664062 852.539062 447.742188 853.234375 C 448.785156 853.234375 449.828125 853.234375 450.867188 853.234375 C 552.226562 853.234375 657.058594 804.984375 738.636719 720.285156 C 817.085938 639.40625 860.128906 538.738281 855.964844 445.015625 Z M 735.859375 718.203125 C 654.628906 802.207031 550.839844 850.109375 450.519531 850.109375 C 449.480469 850.109375 448.4375 850.109375 447.398438 850.109375 C 380.054688 849.414062 340.480469 789.015625 301.949219 730.699219 C 284.246094 703.625 267.238281 677.9375 248.148438 658.84375 C 229.402344 640.097656 202.324219 622.046875 173.863281 602.957031 C 111.378906 561.300781 40.21875 514.09375 42.648438 445.015625 C 45.425781 365.871094 112.074219 328.035156 176.292969 291.238281 C 198.855469 278.394531 220.03125 266.246094 238.425781 252.707031 C 258.214844 238.128906 278.695312 216.605469 300.214844 194.042969 C 343.605469 148.570312 392.898438 96.847656 444.273438 96.847656 C 445.3125 96.847656 446.355469 96.847656 447.398438 96.847656 C 494.605469 98.929688 540.078125 141.628906 584.164062 182.933594 C 613.667969 210.707031 644.214844 239.167969 675.109375 255.136719 L 685.523438 260.691406 C 769.183594 304.082031 848.328125 344.695312 852.839844 445.015625 C 856.65625 538.042969 813.960938 637.667969 735.859375 718.203125 Z M 735.859375 718.203125 " fill-opacity="1" fill-rule="nonzero"/><path fill="#f0f3f3" d="M 657.058594 274.230469 L 650.117188 270.0625 C 632.066406 259.648438 613.667969 246.804688 593.882812 233.617188 C 542.507812 198.554688 489.398438 162.453125 441.496094 160.71875 C 386.996094 158.984375 324.515625 202.722656 269.320312 241.253906 C 258.558594 248.542969 248.492188 255.832031 239.121094 262.078125 C 227.320312 270.0625 214.824219 277.699219 201.632812 285.683594 C 141.578125 322.132812 73.195312 363.441406 73.542969 438.074219 C 73.890625 503.679688 134.984375 551.234375 188.789062 593.238281 C 209.960938 609.898438 230.097656 625.519531 246.410156 641.488281 C 261.335938 656.761719 276.265625 675.507812 291.539062 695.640625 C 331.109375 747.359375 376.234375 806.023438 440.453125 806.023438 C 440.800781 806.023438 441.496094 806.023438 441.84375 806.023438 C 537.300781 804.636719 643.523438 752.222656 718.847656 668.5625 C 783.414062 597.054688 816.390625 513.050781 809.796875 437.726562 C 801.8125 358.582031 725.097656 313.800781 657.058594 274.230469 Z M 715.722656 666.480469 C 641.09375 749.097656 535.914062 801.511719 441.148438 802.554688 C 440.800781 802.554688 440.453125 802.554688 439.761719 802.554688 C 377.277344 802.554688 332.84375 744.585938 293.621094 693.554688 C 278 673.421875 263.421875 654.332031 248.148438 639.058594 C 231.832031 622.742188 211.699219 607.121094 190.523438 590.460938 C 134.636719 547.070312 77.015625 501.945312 76.667969 438.074219 C 76.320312 365.175781 143.660156 324.5625 203.019531 288.460938 C 216.210938 280.476562 229.054688 272.839844 240.855469 264.855469 C 250.578125 258.261719 260.644531 251.320312 271.058594 244.027344 C 322.085938 208.273438 385.261719 164.191406 438.023438 164.191406 C 439.066406 164.191406 440.105469 164.191406 441.148438 164.191406 C 488.011719 165.925781 540.773438 201.679688 591.800781 236.390625 C 611.585938 249.929688 630.332031 262.425781 648.382812 273.1875 L 655.324219 277.351562 C 722.667969 316.578125 798.6875 361.011719 805.628906 438.417969 C 812.226562 512.703125 779.59375 595.667969 715.722656 666.480469 Z M 715.722656 666.480469 " fill-opacity="1" fill-rule="nonzero"/><path fill="#f0f3f3" d="M 622.347656 282.214844 C 542.160156 232.574219 477.945312 207.929688 431.777344 207.929688 C 372.765625 208.273438 221.765625 269.714844 147.132812 345.390625 C 118.667969 374.203125 104.089844 402.320312 104.4375 428.699219 C 105.132812 493.613281 159.628906 541.515625 207.878906 583.519531 C 221.765625 595.667969 234.957031 607.121094 246.410156 618.925781 C 257.867188 630.378906 268.628906 642.875 280.429688 656.066406 C 321.738281 702.582031 368.253906 755.34375 431.777344 756.039062 C 432.46875 756.039062 433.164062 756.039062 434.207031 756.039062 C 516.820312 756.039062 610.199219 709.523438 677.886719 634.546875 C 736.898438 568.9375 766.753906 493.960938 759.113281 428.699219 C 751.476562 361.703125 676.847656 315.535156 622.347656 282.214844 Z M 675.109375 631.769531 C 608.117188 706.054688 515.78125 752.222656 434.207031 752.222656 C 433.511719 752.222656 432.816406 752.222656 431.777344 752.222656 C 369.988281 751.527344 325.902344 701.539062 283.207031 653.636719 C 271.402344 640.445312 260.296875 627.949219 248.839844 616.496094 C 237.039062 604.691406 223.847656 593.238281 209.960938 581.089844 C 162.40625 539.433594 108.601562 491.875 107.90625 428.699219 C 107.5625 403.359375 121.792969 376.285156 149.5625 347.820312 C 222.113281 274.230469 374.5 211.746094 431.777344 211.398438 C 432.125 211.398438 432.125 211.398438 432.46875 211.398438 C 477.945312 211.398438 541.46875 236.390625 620.960938 285.335938 C 674.765625 318.660156 748.355469 364.132812 755.992188 429.046875 C 762.933594 492.917969 733.773438 567.203125 675.109375 631.769531 Z M 675.109375 631.769531 " fill-opacity="1" fill-rule="nonzero"/><path fill="#f0f3f3" d="M 588.328125 294.015625 C 528.625 261.039062 459.546875 238.128906 420.320312 238.128906 C 365.476562 238.128906 234.957031 271.453125 170.042969 337.058594 C 145.746094 361.703125 133.59375 388.433594 133.59375 416.203125 C 134.289062 481.117188 185.316406 530.40625 230.097656 574.144531 C 236.34375 580.046875 242.246094 585.949219 248.148438 591.847656 C 253.699219 597.402344 258.90625 602.957031 264.460938 608.511719 C 307.503906 652.597656 356.101562 702.234375 419.972656 702.929688 C 420.667969 702.929688 421.015625 702.929688 421.710938 702.929688 C 496.6875 702.929688 577.222656 663.355469 636.925781 597.054688 C 687.953125 540.128906 713.292969 474.171875 706.699219 416.203125 C 702.535156 377.324219 659.144531 332.894531 588.328125 294.015625 Z M 634.496094 594.625 C 576.179688 659.539062 494.953125 699.457031 422.054688 699.457031 C 421.710938 699.457031 421.015625 699.457031 420.667969 699.457031 C 358.183594 699.109375 309.933594 649.820312 267.585938 606.082031 C 262.03125 600.527344 256.476562 594.625 251.269531 589.417969 C 245.371094 583.519531 239.46875 577.617188 233.21875 571.714844 C 188.789062 528.671875 138.453125 479.378906 137.761719 416.203125 C 137.414062 389.476562 149.214844 363.441406 173.167969 339.488281 C 236.691406 275.269531 368.253906 241.597656 421.015625 241.597656 C 499.464844 241.597656 694.203125 332.894531 703.921875 416.550781 C 710.171875 473.480469 684.832031 538.390625 634.496094 594.625 Z M 634.496094 594.625 " fill-opacity="1" fill-rule="nonzero"/><path fill="#f0f3f3" d="M 409.210938 256.179688 C 408.867188 256.179688 408.171875 256.179688 407.824219 256.179688 C 360.960938 256.871094 246.757812 276.3125 191.566406 332.894531 C 171.433594 353.375 161.710938 376.976562 162.058594 402.664062 C 162.753906 448.140625 195.730469 509.234375 248.148438 561.996094 C 301.605469 615.453125 361.308594 648.082031 407.824219 648.777344 C 408.519531 648.777344 409.558594 648.777344 410.601562 648.777344 C 474.472656 648.777344 542.160156 616.496094 591.800781 562.34375 C 636.578125 513.398438 659.144531 455.082031 653.9375 402.664062 C 644.5625 316.925781 478.636719 256.179688 409.210938 256.179688 Z M 588.675781 559.914062 C 539.730469 613.371094 473.082031 645.304688 410.253906 645.304688 C 409.558594 645.304688 408.519531 645.304688 407.824219 645.304688 C 363.046875 644.613281 302.644531 611.980469 250.578125 559.566406 C 198.855469 507.496094 165.878906 447.445312 165.183594 402.664062 C 164.835938 378.019531 174.554688 355.457031 193.648438 335.324219 C 214.824219 313.453125 245.023438 297.140625 276.957031 285.335938 C 254.742188 293.667969 234.261719 305.125 217.945312 320.742188 C 198.507812 339.835938 188.789062 362.398438 189.136719 388.433594 C 189.480469 434.253906 217.597656 489.445312 262.726562 532.835938 C 302.992188 571.714844 349.507812 593.585938 390.816406 593.585938 C 391.855469 593.585938 393.246094 593.585938 394.285156 593.585938 C 451.910156 591.847656 510.574219 564.078125 550.839844 519.300781 C 585.550781 481.117188 602.5625 434.601562 599.4375 388.433594 C 593.1875 300.609375 458.503906 267.980469 394.285156 265.898438 C 369.292969 265.550781 325.554688 269.023438 284.59375 282.90625 C 331.804688 266.59375 380.75 259.996094 407.476562 259.648438 C 444.621094 259.300781 503.976562 275.964844 551.882812 300.261719 C 586.246094 317.621094 644.910156 354.066406 649.769531 403.011719 C 655.324219 454.386719 632.761719 511.664062 588.675781 559.914062 Z M 220.375 323.519531 C 264.460938 280.476562 345.339844 269.714844 387.34375 269.714844 C 389.773438 269.714844 391.855469 269.714844 394.285156 269.714844 C 423.792969 270.757812 473.429688 278.742188 516.820312 298.179688 C 551.1875 313.800781 592.84375 342.265625 596.3125 388.78125 C 599.4375 433.90625 582.777344 479.378906 548.757812 517.21875 C 508.835938 561.300781 451.214844 588.726562 394.632812 590.460938 C 353.324219 591.847656 306.464844 569.980469 265.503906 530.753906 C 221.070312 488.058594 193.300781 433.558594 192.953125 388.78125 C 192.605469 363.789062 201.980469 341.917969 220.375 323.519531 Z M 279.039062 284.988281 C 280.429688 284.644531 281.816406 283.949219 282.859375 283.601562 C 281.46875 283.949219 280.429688 284.644531 279.039062 284.988281 Z M 279.039062 284.988281 " fill-opacity="1" fill-rule="nonzero"/><path fill="#f0f3f3" d="M 380.75 539.78125 C 381.09375 539.78125 381.441406 539.78125 381.789062 539.78125 C 426.917969 539.433594 471.347656 519.648438 503.285156 485.628906 C 532.789062 454.386719 548.0625 415.160156 545.980469 375.242188 C 544.246094 341.917969 522.722656 314.148438 483.84375 295.402344 C 454.6875 281.519531 416.503906 272.839844 381.441406 272.492188 C 334.582031 272.144531 273.140625 282.90625 240.511719 315.535156 C 224.542969 331.503906 216.558594 351.636719 216.90625 375.242188 C 218.292969 457.164062 300.5625 539.78125 380.75 539.78125 Z M 243.285156 318.3125 C 274.179688 287.074219 332.84375 275.964844 378.320312 275.964844 C 379.359375 275.964844 380.402344 275.964844 381.441406 275.964844 C 441.84375 276.660156 539.039062 304.429688 542.507812 375.242188 C 544.589844 414.121094 529.664062 452.304688 500.507812 482.851562 C 468.917969 516.175781 425.527344 535.613281 381.441406 535.960938 C 381.09375 535.960938 380.75 535.960938 380.402344 535.960938 C 302.296875 535.960938 221.417969 455.082031 220.375 374.894531 C 220.375 352.679688 228.011719 333.585938 243.285156 318.3125 Z M 243.285156 318.3125 " fill-opacity="1" fill-rule="nonzero"/><path fill="#f0f3f3" d="M 370.335938 487.015625 C 370.683594 487.015625 371.027344 487.015625 371.375 487.015625 C 402.617188 487.015625 434.554688 473.132812 458.15625 448.832031 C 481.761719 424.882812 494.605469 393.640625 493.910156 363.09375 C 493.21875 335.671875 477.945312 312.761719 449.132812 297.488281 C 427.261719 285.683594 397.757812 278.742188 370.335938 278.742188 C 370.335938 278.742188 370.335938 278.742188 369.988281 278.742188 C 335.621094 278.742188 290.148438 290.195312 265.15625 315.535156 C 252.3125 328.726562 245.714844 344.695312 246.0625 362.746094 C 247.800781 425.230469 308.894531 486.667969 370.335938 487.015625 Z M 267.933594 318.3125 C 292.230469 293.667969 336.664062 282.558594 370.335938 282.558594 C 370.335938 282.558594 370.335938 282.558594 370.683594 282.558594 C 416.503906 282.558594 489.398438 304.429688 490.789062 363.441406 C 491.480469 393.292969 478.636719 423.492188 456.074219 446.75 C 432.46875 470.703125 401.230469 484.238281 370.683594 483.894531 C 312.363281 483.199219 251.617188 422.453125 250.230469 363.441406 C 249.535156 346.085938 255.785156 331.15625 267.933594 318.3125 Z M 267.933594 318.3125 " fill-opacity="1" fill-rule="nonzero"/><path fill="#f0f3f3" d="M 360.269531 436.683594 C 360.613281 436.683594 360.960938 436.683594 361.308594 436.683594 C 407.476562 436.335938 444.621094 398.847656 444.273438 353.722656 C 444.273438 333.585938 434.207031 316.925781 416.15625 305.46875 C 401.230469 296.097656 381.441406 290.542969 361.308594 290.542969 C 340.480469 290.195312 312.019531 296.097656 294.3125 314.148438 C 283.554688 324.910156 278 338.449219 278.347656 354.066406 C 278.695312 376.285156 287.371094 397.113281 302.992188 412.730469 C 317.917969 428.003906 338.398438 436.683594 360.269531 436.683594 Z M 296.398438 316.230469 C 313.058594 299.570312 339.789062 293.667969 359.574219 293.667969 C 359.921875 293.667969 360.613281 293.667969 360.960938 293.667969 C 415.460938 294.363281 440.453125 325.257812 440.453125 353.375 C 440.800781 396.765625 405.046875 432.519531 360.960938 432.867188 C 339.789062 433.210938 320 424.882812 305.074219 409.609375 C 290.148438 394.335938 281.816406 374.546875 281.46875 353.375 C 281.125 338.792969 286.332031 326.296875 296.398438 316.230469 Z M 296.398438 316.230469 " fill-opacity="1" fill-rule="nonzero"/><path fill="#f0f3f3" d="M 354.367188 389.476562 C 354.367188 389.476562 354.714844 389.476562 354.714844 389.476562 C 366.167969 389.476562 377.277344 384.613281 385.261719 376.285156 C 392.898438 368.300781 397.0625 357.886719 397.0625 346.777344 C 396.714844 324.5625 380.054688 309.984375 354.714844 309.984375 C 329.375 309.636719 312.710938 324.214844 312.363281 346.777344 C 312.363281 358.234375 316.53125 368.996094 324.515625 376.976562 C 332.496094 384.960938 342.910156 389.476562 354.367188 389.476562 Z M 354.367188 313.453125 C 354.714844 313.453125 354.714844 313.453125 355.0625 313.453125 C 378.664062 313.800781 393.59375 326.644531 393.9375 346.777344 C 393.9375 356.84375 390.121094 366.566406 383.179688 373.855469 C 375.890625 381.492188 365.476562 385.65625 355.0625 385.65625 C 344.648438 385.65625 334.582031 381.839844 327.292969 374.203125 C 320 366.910156 316.183594 357.191406 316.183594 346.777344 C 316.183594 326.644531 331.109375 313.453125 354.367188 313.453125 Z M 354.367188 313.453125 " fill-opacity="1" fill-rule="nonzero"/></g></g></g></svg>