<svg xmlns="http://www.w3.org/2000/svg" width="912" height="1011" fill="none" viewBox="0 0 912 1011">
  <g opacity=".1">
    <path fill="#342F2C" d="M-242.346 692.489c-3.752-7.358-7.806-14.756-11.739-21.932-10.086-18.536-20.655-37.719-27.19-58.317-19.848-62.663 1.271-136.04 51.354-178.469 21.825-18.476 48.006-31.008 71.122-42.065 32.596-15.585 62.146-28.3 93.915-25.753 15.208 1.213 29.812 6.064 43.931 10.673a231.79 231.79 0 0 0 34.028 9.359c23.237 3.922 47.36.505 70.597-2.789 20.816-2.952 42.359-6.065 63.598-4.043 53.876 5.013 105.13 41.115 156.646 110.429 7.1 9.561 14.119 19.486 21.058 29.108 30.619 42.914 62.287 87.283 107.066 114.693 15.087 9.238 31.668 16.495 47.703 23.53 10.953 4.79 22.188 9.743 33.12 15.322 13.111 6.751 31.103 17.828 35.823 36.082 3.046 11.744-.121 24.074-3.61 34.586-6.616 19.87-15.814 39.336-24.709 58.155-16.137 34.364-32.979 69.799-33.564 107.68-.545 36.001 13.998 72.628 40.159 102.022h-8.068c-24.951-29.818-38.707-66.244-38.162-102.123.605-39.195 17.649-75.277 34.148-110.166 8.815-18.658 17.932-37.962 24.427-57.489 3.207-9.662 6.152-20.921 3.51-31.149-4.034-15.889-20.655-25.996-32.737-32.201-10.671-5.498-21.906-10.41-32.778-15.161-16.136-7.115-32.999-14.453-48.409-23.913-45.848-28.057-77.879-72.932-108.922-116.351-6.837-9.582-13.917-19.486-20.997-29.007-50.427-67.838-100.268-103.091-152.329-108.023-20.574-1.901-41.733 1.091-62.206 4.042-23.781 3.356-48.41 6.833-72.614 2.77a238.627 238.627 0 0 1-34.916-9.582c-13.776-4.528-28.037-9.238-42.5-10.39-30.255-2.425-59.059 9.966-90.767 25.187-22.773 10.895-48.591 23.246-69.811 41.216-48.289 40.893-68.58 111.621-49.499 172 6.354 20.032 16.702 38.953 26.726 57.246 4.035 7.196 8.069 14.655 11.82 22.094a427.641 427.641 0 0 1 45.626 183.058 432.87 432.87 0 0 1-19.02 137.982h-6.354c32.495-103.72 23.72-221.81-25.476-318.311ZM291.128 20.881c3.388 4.952 6.898 10.107 10.085 15.2a211.709 211.709 0 0 1 30.679 87.083c1.553 13.199 2.017 26.904 2.28 40.165.847 31.412 1.633 61.106 16.681 86.637 25.818 43.803 82.215 54.132 113.54 56.417 17.125 1.233 34.714 1.091 51.738.95 27.371-.223 55.691-.465 83.103 5.053 6.636 1.334 13.293 3.012 19.727 4.649a247.299 247.299 0 0 0 31.224 6.509c21.805 2.588 44.133-.748 66.987-4.73 19.626-3.416 38.768-7.034 56.982-13.846 35.399-13.22 65.454-37.982 94.499-61.916 13.958-11.481 28.239-23.225 43.226-33.838v7.419c-13.575 9.844-26.605 20.578-39.373 31.089-29.449 24.257-59.907 49.342-96.254 62.926-18.678 6.994-38.123 10.673-58.051 14.15-17.529 3.052-34.775 5.72-51.879 5.72a142.668 142.668 0 0 1-16.863-.95 252.26 252.26 0 0 1-31.991-6.65c-6.353-1.617-12.929-3.275-19.424-4.589-26.787-5.397-54.784-5.154-81.873-4.932-17.125.141-34.855.283-52.221-.97-32.495-2.365-91.091-13.2-118.301-59.389-15.834-26.884-16.702-58.742-17.529-89.548-.363-13.119-.726-26.682-2.239-39.619a205.673 205.673 0 0 0-29.792-84.555c-3.146-5.013-6.616-10.107-9.964-14.999-5.385-7.883-10.852-15.868-15.43-24.256h6.979c4.114 7.135 8.875 14.028 13.454 20.82ZM-228.71.323A264.03 264.03 0 0 1-173.907 139.8c.686 8.287 1.029 17.141-1.23 25.692-4.034 15.14-15.229 26.803-26.787 37.173-4.942 4.407-10.085 8.793-15.047 13.018-16.681 14.149-33.947 28.946-46.009 47.3a241.666 241.666 0 0 0-14.261 26.278c-7.241 14.736-14.725 29.978-26.746 41.783-17.549 17.222-41.33 23.549-58.172 25.813a146.015 146.015 0 0 1-19.364 1.314c-38.567 0-74.632-15.545-97.303-42.712-29.006-34.788-31.063-87.688-4.72-120.435 8.068-9.925 18.153-17.93 27.997-25.672 12.848-10.107 24.991-19.668 32.636-33.13 16.701-29.351 5.889-67.01-5.527-99.999L-440.946.101h6.394l11.82 34.121c11.86 34.263 23.015 73.458 5.083 105.012-8.25 14.473-21.421 24.843-34.169 34.889-9.561 7.519-19.465 15.322-27.008 24.701-24.609 30.584-22.571 80.108 4.639 112.733 24.709 29.654 68.358 45.077 111.221 39.296 15.935-2.142 38.324-8.085 54.743-24.135 11.275-11.077 18.153-25.187 25.556-40.145a244.87 244.87 0 0 1 14.624-26.885c12.546-19.081 30.135-34.08 47.159-48.513 4.942-4.225 10.085-8.571 14.926-12.937 10.872-9.723 21.401-20.598 24.971-34.182a70.606 70.606 0 0 0 1.049-23.65A258.264 258.264 0 0 0-233.451 4.144L-236.637.1h7.765s.121.142.162.222Zm-226.355 708.56c40.522 7.014 77.354 42.449 96.597 70.627 23.64 34.687 36.166 75.479 45.283 110.793 2.844 11.016 5.365 23.61-.706 33.979-4.599 7.803-13.131 12.129-19.142 14.655a97.106 97.106 0 0 1-37.78 7.459c-27.512 0-55.408-11.218-69.508-36.385-5.083-9.035-7.907-19.062-10.63-28.744-1.23-4.326-2.481-8.793-3.913-13.078a136.58 136.58 0 0 0-28.239-48.029c-2.803-3.072-5.849-6.064-8.794-9.116-9.742-9.804-19.828-19.951-24.366-33.414-5.466-16.171-1.412-34.505 10.831-48.877 13.172-15.322 32.435-22.943 50.367-19.87Zm-55.429 66.867c4.034 12.129 13.211 21.326 22.893 31.069 3.006 3.012 6.052 6.064 8.976 9.319a142.516 142.516 0 0 1 29.49 50.171c1.492 4.427 2.763 8.975 4.034 13.361 2.743 9.784 5.345 19.021 10.085 27.43 19.203 34.223 66.684 40.287 99.643 26.279 8.411-3.578 13.434-7.318 16.278-12.129 4.922-8.368 2.622-19.547 0-29.371-8.996-34.828-21.3-74.993-44.376-108.892-18.557-27.228-53.956-61.41-92.623-68.081-15.814-2.729-32.959 4.043-44.718 17.89-10.852 12.694-14.483 28.764-9.682 42.954ZM799.468 583.657a236.622 236.622 0 0 1 22.894 159.69c-5.123 23.994-13.595 39.418-26.686 48.514-8.33 5.801-18.859 9.157-32.273 10.269a101.21 101.21 0 0 1-8.452.363 69.766 69.766 0 0 1-31.102-6.589c-26.222-12.877-36.308-41.399-46.05-68.95a312.283 312.283 0 0 0-12.667-32.039c-11.215-22.984-29.208-42.288-46.595-60.945-8.895-9.541-18.153-19.426-26.363-29.755-30.982-38.649-40.623-80.371-25.778-111.601 12.103-25.369 30.559-38.568 55.026-39.195 66.099-1.678 156.101 89.608 178.046 130.238ZM621.624 459.483c-22.007.566-38.748 12.593-49.721 35.738-20.473 43.096 13.978 91.428 25.032 105.113 8.068 10.107 17.246 19.951 26.081 29.411 17.689 19.001 35.964 38.629 47.582 62.421a315.779 315.779 0 0 1 12.949 32.665c9.783 27.653 19.042 53.749 43.004 65.554 9.985 4.912 22.188 6.812 36.307 5.62 12.284-1.011 21.865-4.043 29.268-9.198 11.76-8.085 19.465-22.437 24.205-44.834a230.712 230.712 0 0 0-22.309-155.647c-20.493-37.942-108.094-126.843-170.623-126.843h-1.775Z"/>
    <path fill="#342F2C" d="M332.659 43.137c7.201 11.845 14.644 24.094 19.848 37.234 8.189 20.678 10.69 43.217 13.111 65.008.827 7.398 1.674 15.059 2.723 22.538 5.305 37.234 16.882 62.946 35.399 78.632 18.154 15.383 42.177 20.801 65.232 25.045a994.068 994.068 0 0 0 223.471 15.323c19.585-.89 42.197-2.426 62.912-9.703 20.715-7.277 38.828-19.769 57.204-33.07 33.846-24.479 67.148-50.414 99.34-77.278v2.648c-31.829 26.501-64.727 52.091-98.15 76.267-18.517 13.382-36.872 26.016-57.729 33.333-20.856 7.317-43.77 8.935-63.476 9.804a954.925 954.925 0 0 1-44.376.99 994.85 994.85 0 0 1-179.64-16.333c-22.187-4.042-47.623-9.763-66.159-25.469-18.921-16.03-30.72-42.166-36.106-79.906-1.049-7.499-1.916-15.18-2.743-22.599-2.4-21.669-4.881-44.066-12.97-64.483-5.123-12.977-12.526-25.146-19.686-36.93-4.942-8.086-10.086-16.515-14.402-25.167a130.435 130.435 0 0 1-7.726-18.92h2.017c2.048 6.18 4.549 12.2 7.484 18.01 4.417 8.571 9.5 16.94 14.422 25.026Z"/>
    <path fill="#342F2C" d="M390.871 21.912a244.283 244.283 0 0 1 19.183 31.776c8.068 17.101 10.751 35.96 13.373 54.194.968 6.711 2.017 13.644 3.227 20.375 5.95 31.999 16.419 53.143 32.959 66.565 16.136 13.078 38.001 17.91 57.224 21.407a872.914 872.914 0 0 0 195.554 13.219c19.526-.869 40.342-2.506 59.423-8.469a175.718 175.718 0 0 0 28.703-12.129c8.956-4.608 17.69-9.722 26.222-14.675l8.834-5.154c13.858-8.086 27.433-16.03 40.463-23.691 13.03-7.661 23.277-13.867 33.14-20.052l2.663-1.658v2.385l-1.735 1.092c-9.884 6.185-20.171 12.391-33.181 20.072-13.01 7.682-26.605 15.605-40.482 23.691l-8.835 5.155c-8.472 4.972-17.226 10.107-26.222 14.736a179.37 179.37 0 0 1-29.025 12.128c-19.405 6.064-40.342 7.681-59.907 8.55a849.978 849.978 0 0 1-39.292.87 875.896 875.896 0 0 1-156.726-14.15c-19.465-3.558-41.633-8.47-58.132-21.851-16.923-13.726-27.614-35.254-33.665-67.758-1.271-6.751-2.279-13.725-3.248-20.456-2.602-18.091-5.304-36.79-13.191-53.607a242.25 242.25 0 0 0-19.041-31.514C384.175 15.565 379.071 7.944 374.573.02h2.32c4.357 7.58 9.218 14.837 13.978 21.892Z"/>
    <path fill="#342F2C" d="M449.265.384A244.746 244.746 0 0 1 467.6 27.006c7.706 13.705 10.691 29.068 13.595 43.904 1.13 5.842 2.32 11.866 3.752 17.668 4.034 16.514 11.76 40.124 30.539 54.577 14.119 10.774 32.797 14.837 49.216 17.809A755.465 755.465 0 0 0 732.32 171.92c17.064-.769 37.053-2.224 55.913-7.237a217.427 217.427 0 0 0 27.372-9.521c6.051-2.506 12.102-5.154 17.891-7.722l7.241-3.193c16.137-7.035 31.89-13.281 46.615-18.617l6.898-2.487c6.051-2.142 11.699-4.204 17.629-6.488v2.163c-5.688 2.183-11.195 4.164-16.943 6.225l-6.899 2.487c-14.684 5.316-30.256 11.562-46.392 18.576l-7.241 3.194c-5.83 2.567-11.841 5.215-17.932 7.742a221.107 221.107 0 0 1-27.614 9.602c-19.041 5.053-39.171 6.529-56.336 7.277-11.43.525-22.86.781-34.29.768a754.856 754.856 0 0 1-133.812-11.886c-16.641-3.012-35.602-7.156-50.084-18.192-19.283-14.736-27.069-38.791-31.265-55.609-1.452-5.842-2.622-11.906-3.772-17.768-2.864-14.675-5.829-29.876-13.373-43.298a243.163 243.163 0 0 0-18.153-26.4L446.623.04h2.541l.101.344Z"/>
    <path fill="#342F2C" d="M525.127.323c7.161 10.471 10.489 22.418 13.716 33.96 1.351 4.851 2.743 9.844 4.397 14.594 4.841 13.968 12.425 31.433 28.098 42.45 12.102 8.51 27.634 11.805 41.229 14.149a635.532 635.532 0 0 0 139.722 8.996 314.807 314.807 0 0 0 52.444-6.065c9.157-2.021 17.911-4.487 26.02-6.933l4.82-1.476c6.697-2.021 13.011-4.043 19.344-5.68a256.24 256.24 0 0 1 43.952-8.368c3.469-.324 6.777-.526 10.085-.748l2.965-.182v2.021l-2.844.182c-3.267.202-6.555.425-10.085.728a261.54 261.54 0 0 0-43.609 8.308c-6.293 1.738-12.607 3.659-19.283 5.68l-4.821 1.455c-8.068 2.466-16.963 5.013-26.222 6.994a316.704 316.704 0 0 1-52.766 6.064c-9.803.445-19.572.661-29.308.647a631.503 631.503 0 0 1-110.939-9.682c-13.816-2.466-29.59-5.822-42.035-14.554-16.338-11.461-24.205-30.321-28.844-43.42-1.674-4.81-3.086-9.844-4.438-14.715-3.187-11.38-6.475-23.166-13.433-33.353L522.303 0h2.481c.13.09.246.199.343.323Z"/>
    <path fill="#342F2C" d="M601.493 9.137c5.224 10.107 12.849 22.538 25.698 30.32 10.085 6.206 22.47 8.733 33.241 10.613a517.286 517.286 0 0 0 111.806 6.913 442.382 442.382 0 0 0 48.954-4.77c5.93-.93 11.82-2.022 17.508-3.073l7.221-1.314c9.157-1.637 16.52-2.709 23.176-3.376 16.137-1.516 29.954-.869 41.35 2.022l1.452.404v2.022l-2.017-.526c-11.013-2.709-25.092-3.376-40.684-1.88-6.596.647-13.898 1.718-23.015 3.355l-7.201 1.314c-5.708 1.031-11.598 2.123-17.548 3.073a442.196 442.196 0 0 1-49.176 4.77c-8.149.391-16.271.58-24.366.567a510.719 510.719 0 0 1-87.884-7.48c-10.952-1.92-23.519-4.487-33.947-10.895-13.272-8.086-21.099-20.962-26.444-31.21-1.674-3.235-3.166-6.63-4.639-9.966h2.219c1.412 3.133 2.783 6.145 4.296 9.117ZM901.511.101h6.576c1.311.485 2.582.99 3.812 1.536V3.82A78.365 78.365 0 0 0 901.511.101ZM792.287 1.637A416.037 416.037 0 0 1 732.824.101h82.7c-7.685.647-15.491 1.193-23.237 1.536Zm7.544 708.58c-2.562 18.192-7.907 31.695-16.338 41.6a43.01 43.01 0 0 1-14.246 11.284 42.915 42.915 0 0 1-17.624 4.382 31.584 31.584 0 0 1-9.016-1.274c-12.102-3.578-22.45-14.776-28.441-30.765a179.489 179.489 0 0 1-6.051-21.771c-1.513-6.387-3.086-12.977-5.244-19.223-8.956-25.975-28.239-47.078-45.566-64.806-2.218-2.284-4.478-4.568-6.737-6.853-16.439-16.656-33.463-33.878-44.96-54.577-11.134-20.073-24.709-62.663 3.651-80.29 25.233-15.666 63.295 5.397 83.748 19.365 26.928 18.375 47.825 43.137 63.034 62.663a265.493 265.493 0 0 1 27.149 40.893 167.687 167.687 0 0 1 16.641 99.372Zm-18.517-98.483a262.826 262.826 0 0 0-26.947-40.569c-15.108-19.405-35.884-44.026-62.529-62.259-20.03-13.665-57.285-34.364-81.55-19.304-27.049 16.818-13.757 58.095-2.945 77.581 11.376 20.517 28.239 37.638 44.637 54.193l6.757 6.853c17.509 17.889 36.933 39.195 46.03 65.554 2.178 6.347 3.751 12.997 5.284 19.425a177.052 177.052 0 0 0 6.052 21.528c5.748 15.383 15.652 26.157 27.129 29.533 14.927 4.406 30.256-3.72 38.768-13.746 8.169-9.622 13.373-22.882 15.875-40.589a165.74 165.74 0 0 0-16.561-98.2Z"/>
    <path fill="#342F2C" d="M768.627 669.465c-1.129 10.552-4.296 18.86-9.399 24.742a25.492 25.492 0 0 1-8.609 6.356 25.428 25.428 0 0 1-10.453 2.255 23.484 23.484 0 0 1-8.552-1.576l-.787-.324c-9.661-4.144-15.612-14.149-18.899-21.851-1.433-3.315-2.623-6.832-3.893-10.552-1.493-4.366-3.026-8.874-5.043-13.381-6.697-14.878-18.436-27.875-28.925-38.892l-2.945-3.052c-9.702-10.107-19.727-20.477-26.383-32.605-6.878-12.553-13.958-36.385 3.086-46.108 7.08-4.043 16.137-4.265 26.847-.627 8.613 2.931 18.033 8.288 28.744 16.394a196.894 196.894 0 0 1 36.589 37.416 174.937 174.937 0 0 1 16.137 23.994 109.76 109.76 0 0 1 8.592 20.8 98.333 98.333 0 0 1 4.317 31.453c-.162 1.839-.283 3.719-.424 5.558Zm-5.849-36.385a107.608 107.608 0 0 0-8.432-20.416 172.25 172.25 0 0 0-15.934-23.711 195.87 195.87 0 0 0-36.348-37.011c-10.549-7.965-19.767-13.241-28.239-16.172-10.085-3.456-18.637-3.295-25.213.445-15.673 8.955-8.815 31.493-2.32 43.399 6.495 11.906 16.48 22.236 26.081 32.161l2.945 3.072c10.61 11.138 22.49 24.257 29.308 39.458 2.017 4.588 3.61 9.157 5.123 13.563 1.251 3.679 2.441 7.136 3.832 10.39 3.147 7.358 8.795 16.92 17.852 20.801l.726.303a23.415 23.415 0 0 0 25.354-6.489c4.821-5.559 7.826-13.503 8.896-23.63.201-1.779.322-3.618.403-5.417a96.11 96.11 0 0 0-4.095-30.806l.061.06Z"/>
    <path fill="#342F2C" d="M728.185 639.306a14.4 14.4 0 0 1-9.077-3.497 36.912 36.912 0 0 1-6.838-8.914c-.827-1.354-1.694-2.769-2.622-4.043a85.007 85.007 0 0 0-6.051-6.509c-3.873-3.861-8.653-8.651-12.768-13.503-6.697-7.944-9.48-13.664-8.492-17.525a6.26 6.26 0 0 1 4.216-4.286c4.175-1.596 8.915-1.071 14.119 1.618a53.553 53.553 0 0 1 13.373 10.733 175.828 175.828 0 0 1 18.275 23.853l.524.788a27.291 27.291 0 0 1 4.317 8.793 10.679 10.679 0 0 1-2.179 9.824 8.83 8.83 0 0 1-6.797 2.668Zm6.858-12.128a25.869 25.869 0 0 0-4.034-8.086l-.525-.788a176.15 176.15 0 0 0-18.052-23.57 51.576 51.576 0 0 0-12.849-10.329 17.746 17.746 0 0 0-8.21-2.284 11.396 11.396 0 0 0-4.215.768 4.315 4.315 0 0 0-2.985 2.891c-.787 3.133 2.017 8.409 8.068 15.706 4.034 4.791 8.794 9.561 12.627 13.382a75.996 75.996 0 0 1 6.394 6.791c.948 1.355 1.835 2.79 2.683 4.185a35.118 35.118 0 0 0 6.434 8.429c3.691 3.174 9.763 4.326 12.949.95a8.862 8.862 0 0 0 1.715-7.984v-.061Zm-908.506 155.405c-8.431-24.257-19.989-47.928-31.164-70.749-11.719-23.913-23.821-48.514-32.273-74.286-19.928-59.793-13.675-116.392 16.762-151.383 11.598-13.341 26.222-23.387 40.584-33.11 40.724-27.774 80.924-52.172 124.876-45.785a182.488 182.488 0 0 1 23.297 5.499c5.023 1.415 10.227 2.89 15.39 4.042 21.16 4.67 43.387 4.185 64.89 3.72l8.995-.182c31.709-.546 63.82.485 95.448 3.052 12.284.991 24.205 2.284 34.976 7.095 9.661 4.306 17.871 11.239 24.789 17.384 22.531 20.032 47.906 50.818 40.806 83.666-5.426 25.166-30.075 45.966-65.878 55.649-9.682 2.628-19.747 4.568-29.489 6.468-19.223 3.72-39.091 7.58-56.478 16.737-34.814 18.193-60.088 58.762-67.612 108.428-5.305 35.213-2.38 71.517.444 106.628.706 8.692 1.432 17.667 2.017 26.501a934.393 934.393 0 0 1 .726 111.48c-.807 15.221-2.158 31.695-6.455 47.343h-2.017c4.377-15.628 5.729-32.183 6.536-47.444a930.707 930.707 0 0 0-.727-111.177c-.584-8.813-1.31-17.788-2.017-26.46-2.823-35.233-5.768-71.658-.403-107.134 7.604-50.292 33.261-91.387 68.58-109.903 17.75-9.298 37.78-13.18 57.144-16.939 9.702-1.88 19.727-3.841 29.348-6.428 35.077-9.501 59.16-29.735 64.445-54.133 6.878-31.898-18.053-62.057-40.2-81.725-6.798-6.064-14.846-12.856-24.205-17.061-10.509-4.669-22.188-5.943-34.29-6.933a979.127 979.127 0 0 0-95.266-3.032l-8.976.182c-21.623.465-43.952.95-65.373-3.78-5.224-1.132-10.428-2.608-15.49-4.043a181.189 181.189 0 0 0-23.056-5.438c-43.225-6.286-83.042 17.91-123.444 45.461-14.12 9.642-28.763 19.628-40.2 32.767-29.954 34.364-36.065 90.296-16.359 149.401 8.512 25.551 20.594 50.192 32.273 74.024 11.195 22.862 22.773 46.492 31.245 70.951 26.565 76.813 22.066 158.154 10.085 228.884h-2.017c11.659-70.569 16.197-151.809-10.267-228.237Z"/>
    <path fill="#342F2C" d="M62.856 872.636c.162-39.721.323-80.856 5.144-120.536 1.896-15.625 4.68-32.1 12.102-46.674 6.636-13.099 16.964-25.045 33.463-38.73 26.121-21.669 52.444-35.415 78.484-40.852 41.027-8.591 84.717 2.769 119.633 11.886 45.948 11.966 103.152 26.864 151.884 54.476 14.322 8.086 31.588 19.709 38.042 37.699 3.046 8.51 3.712 18.617 2.017 30.928-3.772 27.713-16.681 53.829-29.167 79.097-16.681 33.716-32.414 65.574-28.581 101.069 2.824 26.117 16.318 49.343 31.647 69.721h-2.541c-15.108-20.217-28.239-43.443-31.103-69.498-3.913-36.163 12.707-69.779 28.763-102.263 12.425-25.126 25.254-51.101 28.985-78.49 1.614-11.967.969-21.771-2.017-29.957-6.212-17.364-23.095-28.704-37.114-36.628-48.409-27.491-105.553-42.449-151.401-54.275-34.814-9.076-78.161-20.355-118.704-11.865-25.657 5.377-51.758 18.961-77.637 40.428-16.277 13.503-26.423 25.247-32.938 38.083-7.262 14.291-10.086 30.563-11.86 46.007-4.821 39.639-4.983 80.653-5.144 120.293-.182 45.805-.383 92.661-7.766 138.165H55.03c7.443-45.383 7.625-92.279 7.826-138.084Z"/>
    <path fill="#342F2C" d="M97.953 900.309c.585-31.433 1.19-63.917 4.881-95.451.545-4.831 1.09-8.732 1.695-12.31a99.19 99.19 0 0 1 7.947-27.147c5.365-11.239 13.938-21.791 27.009-33.232 20.896-18.193 42.539-30.139 64.344-35.172 32.273-7.439 65.393-.425 99.34 8.085 42.641 10.532 87.501 23.57 126.612 47.503 12.304 7.52 25.576 17.243 30.679 32.12 2.441 7.136 2.945 15.605 1.573 25.894-3.086 22.822-13.332 44.471-23.256 65.291-2.502 5.256-5.063 10.673-7.484 16.01-9.682 21.426-18.153 44.652-15.309 69.414 2.118 17.89 9.964 34.061 20.554 49.526h-2.441c-10.347-15.364-18.012-31.434-20.171-49.283-2.985-25.247 5.668-48.797 15.471-70.486 2.421-5.357 5.003-10.794 7.504-16.05 9.843-20.74 20.029-42.187 23.055-64.685 1.351-9.945.867-18.192-1.473-24.964-4.881-14.271-17.81-23.711-29.812-31.049-38.889-23.791-83.567-36.769-126.046-47.26-33.705-8.409-66.563-15.362-98.413-8.085-21.461 4.952-42.822 16.636-63.457 34.727-12.848 11.239-21.28 21.589-26.524 32.565a97.61 97.61 0 0 0-7.786 26.601c-.585 3.558-1.109 7.439-1.674 12.129-3.671 31.453-4.276 63.876-4.861 95.248-.666 36.628-1.392 74.044-7.02 110.472h-2.017c5.688-36.307 6.415-73.764 7.08-110.411Z"/>
    <path fill="#342F2C" d="M133.252 926.829c.867-22.761 1.775-46.31 4.296-69.212.424-4.043.827-7.116 1.271-10.107a88.44 88.44 0 0 1 6.051-22.236c4.034-9.399 10.812-18.475 20.554-27.713 15.491-14.716 32.858-24.924 50.185-29.492 26.222-6.913 53.412-1.718 79.069 4.184 42.741 9.865 75.902 23.125 101.337 40.529 9.42 6.448 19.545 14.635 23.317 26.541a47.95 47.95 0 0 1 1.069 20.861c-2.38 17.909-10.085 34.95-17.347 51.424-2.017 4.609-4.195 9.4-6.172 14.15-7.181 17.101-13.474 35.657-10.811 55.669a82.516 82.516 0 0 0 10.307 29.373h-2.3a84.181 84.181 0 0 1-10.085-29.07c-2.723-20.476 3.651-39.356 10.953-56.599 2.017-4.73 4.034-9.521 6.192-14.149 7.302-16.354 14.846-33.252 17.186-50.859a45.873 45.873 0 0 0-1.009-19.991c-3.57-11.32-13.393-19.244-22.51-25.47-25.234-17.283-58.152-30.442-100.672-40.226-25.395-5.862-52.343-11.016-78.081-4.204-17.004 4.487-34.068 14.514-49.317 29.007-9.541 9.036-16.136 17.889-20.171 27.046a86.236 86.236 0 0 0-5.789 21.71c-.443 2.87-.847 6.064-1.27 9.945-2.501 22.842-3.409 46.33-4.276 69.071-1.07 27.815-2.159 56.175-6.233 83.889h-2.017c4.256-27.815 5.305-56.216 6.273-84.071Z"/>
    <path fill="#342F2C" d="M169.418 950.48c.847-13.18 1.735-26.784 3.046-40.105.262-2.587.524-5.175.867-7.742a79.424 79.424 0 0 1 3.913-17.242 66.933 66.933 0 0 1 14.119-22.236 84.956 84.956 0 0 1 36.045-23.832c19.384-6.246 40.584-3.335 58.778.324 21.28 4.285 51.758 13.604 76.124 33.595 6.817 5.579 13.454 11.987 15.914 20.942a39.747 39.747 0 0 1 .585 15.807c-1.694 12.937-6.676 25.348-11.497 37.355-1.634 4.043-3.308 8.248-4.821 12.371-4.478 12.129-8.734 26.602-6.313 41.883a59.323 59.323 0 0 0 2.279 9.18h-2.017a59.495 59.495 0 0 1-2.158-8.86c-2.501-15.743 1.835-30.519 6.414-42.91a678.476 678.476 0 0 1 4.841-12.411c4.78-11.906 9.722-24.257 11.376-36.871a38.018 38.018 0 0 0-.524-14.998c-2.32-8.43-8.714-14.555-15.269-19.931-24.145-19.648-54.401-28.906-75.358-33.151-17.932-3.598-38.808-6.489-57.769-.384a83.201 83.201 0 0 0-35.177 23.286 65.17 65.17 0 0 0-13.676 21.548 76.475 76.475 0 0 0-3.812 16.798 321.948 321.948 0 0 0-.868 7.681c-1.311 13.281-2.178 26.885-3.025 40.024-1.291 19.991-2.602 40.266-5.527 60.199h-2.017c2.905-19.953 4.236-40.288 5.527-60.32Z"/>
    <path fill="#342F2C" d="M207.278 963.154c.141-1.82.282-3.639.464-5.438a81.085 81.085 0 0 1 1.876-12.27 50.574 50.574 0 0 1 7.604-16.696 54.192 54.192 0 0 1 21.865-18.193c10.408-4.669 23.015-5.821 38.526-3.558 20.171 2.952 39.171 12.937 50.991 26.723a33.655 33.655 0 0 1 8.492 15.322 33.546 33.546 0 0 1 0 10.714 129.002 129.002 0 0 1-5.688 22.74c-1.15 3.639-2.36 7.399-3.348 11.078a73.117 73.117 0 0 0-2.763 17.164h-2.018a74.278 74.278 0 0 1 2.824-17.69c.989-3.739 2.199-7.519 3.369-11.178a128.59 128.59 0 0 0 5.688-22.458 31.965 31.965 0 0 0 0-10.107 31.942 31.942 0 0 0-8.068-14.392c-11.518-13.422-30.115-23.165-49.741-26.036-15.128-2.223-27.372-1.111-37.417 3.396a52.113 52.113 0 0 0-21.058 17.667 48.784 48.784 0 0 0-7.302 16.05 80.874 80.874 0 0 0-1.835 11.946 458.49 458.49 0 0 0-.444 5.418c-1.25 15.767-2.541 31.776-4.901 47.484h-2.017c2.36-15.789 3.651-31.839 4.901-47.686Z"/>
    <path fill="#342F2C" d="M243.041 994.627a27.567 27.567 0 0 1 9.627-14.414 27.472 27.472 0 0 1 16.312-5.8 27.479 27.479 0 0 1 16.336 5.788 27.579 27.579 0 0 1 9.644 14.426 43.818 43.818 0 0 1 .383 16.373h-2.017c.932-5.26.829-10.65-.303-15.868a25.497 25.497 0 0 0-8.934-13.296A25.41 25.41 0 0 0 269 976.515a25.399 25.399 0 0 0-15.088 5.374 25.492 25.492 0 0 0-8.895 13.344 50.643 50.643 0 0 0-.907 13.887v1.88h-2.017v-1.82c-.359-4.87-.04-9.769.948-14.553ZM-189.257 622.69a36.749 36.749 0 0 1-12.485-3.578c-7.04-3.921-11.861-12.128-13.938-23.953-5.265-29.795 6.313-63.916 30.256-88.941 19.747-20.982 47.845-36.749 83.466-47.261 23.136-6.812 43.447-9.662 62.065-8.691 14.563.747 29.026 3.921 43.004 6.953 8.875 2.022 18.053 3.942 27.17 5.316 19.928 2.992 40.502 3.073 60.39 3.154 12.103 0 24.488 0 36.711.788 12.93.728 26.565 2.224 38.788 8.227 13.252 6.509 22.612 18.193 24.387 30.321 5.405 37.113-38.809 49.686-65.232 57.206l-1.21.343c-15.35 4.387-29.833 10.835-43.852 17.081-8.774 3.921-17.85 8.085-27.149 11.522-61.178 23.327-126.067 35.617-185.146 35.617a373.047 373.047 0 0 1-57.225-4.104Zm268.714-44.753c14.12-6.267 28.622-12.755 44.113-17.182l1.21-.344c25.778-7.337 68.943-19.627 63.78-54.961-1.695-11.583-10.61-22.64-23.277-28.866-11.901-5.842-25.294-7.317-38.022-8.086-12.102-.687-24.588-.747-36.61-.788-19.948 0-40.583-.162-60.673-3.173-9.178-1.375-18.375-3.396-27.29-5.337-13.918-3.032-28.24-6.165-42.702-6.913-18.355-.95-38.445 1.86-61.379 8.611-35.279 10.37-63.074 26.036-82.599 46.492-23.479 24.661-34.855 58.095-29.711 87.264 1.371 7.762 4.74 17.99 12.949 22.538a34.702 34.702 0 0 0 11.8 3.356c71.949 11.178 159.913-.243 241.362-31.291 9.218-3.396 18.315-7.439 27.049-11.341v.021Z"/>
    <path fill="#342F2C" d="M-140.545 577.431c-7.806-18.657-3.207-40.043 12.103-55.831 11.154-11.582 27.129-20.436 47.502-26.278a113.292 113.292 0 0 1 35.137-5.114c8.505.468 16.96 1.589 25.294 3.356 4.72.889 9.601 1.799 14.402 2.425a253.75 253.75 0 0 0 27.472 1.658h2.844c8.069.162 16.278.323 24.366 1.011a62.409 62.409 0 0 1 21.946 5.013c7.685 3.699 13.171 9.965 14.644 16.777a20.44 20.44 0 0 1-3.288 16.778c-6.777 9.5-21.32 14.534-30.921 17.869a229.578 229.578 0 0 0-22.592 9.662c-5.264 2.487-10.71 5.054-16.277 7.298a289.253 289.253 0 0 1-106.764 21.608 213.073 213.073 0 0 1-27.734-1.738 25.197 25.197 0 0 1-7.04-1.779c-4.679-2.122-8.451-6.408-11.094-12.715Zm12.103 10.875a23.309 23.309 0 0 0 6.515 1.618c40.725 5.356 89.316-1.84 133.348-19.729 5.507-2.244 10.912-4.791 16.137-7.257a229.606 229.606 0 0 1 22.732-9.723c9.38-3.254 23.539-8.085 29.933-17.141a18.234 18.234 0 0 0 2.965-15.161c-1.331-6.205-6.394-11.946-13.534-15.383a61.025 61.025 0 0 0-21.24-4.831c-8.068-.667-16.278-.829-24.205-1.01h-2.844a254.28 254.28 0 0 1-27.694-1.678c-4.861-.627-9.763-1.557-14.523-2.426a162.563 162.563 0 0 0-24.971-3.335 110.535 110.535 0 0 0-34.734 4.972c-20.03 5.802-35.722 14.474-46.614 25.773-14.664 15.201-19.102 35.759-11.619 53.648 2.542 5.822 5.971 9.662 10.247 11.684l.101-.021Z"/>
    <path fill="#342F2C" d="M-36.424 529.585a42.313 42.313 0 0 1 11.094 3.072c4.196 1.719 6.455 3.882 6.939 6.61.484 2.729-.747 5.216-3.671 8.086-8.391 8.267-20.655 13.2-34.532 13.907h-1.07c-7.745 0-15.289-4.204-17.83-10.107-2.017-4.669-.646-9.702 3.913-14.15 6.878-6.67 26.827-8.409 35.157-7.418Zm-37.235 20.84c2.32 5.317 9.763 9.178 16.964 8.814 13.373-.667 25.173-5.418 33.22-13.321 2.401-2.385 3.43-4.447 3.087-6.307-.343-1.86-2.199-3.659-5.708-5.094a40.938 40.938 0 0 0-10.55-2.931 43.977 43.977 0 0 0-4.962-.242c-9.359 0-23.438 2.142-28.561 7.155-3.974 3.902-5.184 8.025-3.49 11.926Zm-52.262 291.041c-2.017-12.897-4.72-26.015-7.281-38.71-6.818-33.777-13.878-68.727-10.57-103.455.726-7.62 2.138-16.333 7.141-23.044 5.93-7.964 15.753-11.704 23.66-14.149 25.213-7.54 50.043-7.055 69.931 1.394 9.561 4.043 16.722 9.481 21.24 16.171 5.729 8.43 7.282 18.779 8.068 27.774a369.986 369.986 0 0 1 .262 43.845c-.383 11.036-.766 22.457-.362 33.656.988 27.006 6.636 53.991 12.102 80.067 3.046 14.574 6.212 29.654 8.532 44.612 6.273 40.428 4.478 73.842-5.466 101.073H-.822c10.085-27.13 11.9-60.362 5.627-100.85-2.32-14.898-5.466-29.937-8.512-44.471-5.486-26.278-11.134-53.243-12.102-80.411-.404-11.279 0-22.721.363-33.818a370.14 370.14 0 0 0-.242-43.602c-.747-8.732-2.24-18.758-7.726-26.783-4.296-6.307-11.134-11.481-20.352-15.403-19.465-8.247-43.81-8.732-68.58-1.314-7.604 2.284-17.044 5.842-22.611 13.341-4.7 6.307-6.051 14.676-6.737 22.034-3.288 34.363 3.751 69.232 10.529 102.868 2.582 12.695 5.224 25.834 7.281 38.771a472.688 472.688 0 0 1-4.034 169.658h-2.017a471.363 471.363 0 0 0 4.014-169.254Z"/>
    <path fill="#342F2C" d="M-82.19 1009.79c1.411-8.09 4.981-15.507 8.45-22.663a21.571 21.571 0 0 1 5.588-8.085 8.055 8.055 0 0 1 9.964-.404c3.006 2.627 2.663 7.034 1.916 10.976l-3.933 21.146h-2.017l4.034-21.51c.626-3.396.969-7.136-1.27-9.096a6.04 6.04 0 0 0-7.383.485 20.029 20.029 0 0 0-5.023 7.337c-3.408 7.035-6.918 14.314-8.27 22.114v.67h-2.016c-.121-.31-.101-.65-.04-.97Z"/>
    <path fill="#342F2C" d="M-107.868 964.831a698.307 698.307 0 0 0-17.468-208.587l-.605-2.547c-2.4-9.966-4.861-20.214-4.74-30.725.181-12.856 4.72-24.136 12.465-30.968 4.781-4.184 11.155-7.196 20.05-9.44 18.9-4.75 35.198-1.354 43.65 9.137 5.607 6.974 7.2 16.171 8.35 25.065 1.775 13.806 3.005 27.936 4.195 41.6 2.441 27.976 4.962 56.882 12.325 84.353 2.017 7.115 4.175 14.15 6.354 21.164 2.178 7.014 4.477 14.15 6.394 21.245a248.872 248.872 0 0 1 .363 125.672h-2.017a246.602 246.602 0 0 0-.222-125.146c-1.896-7.116-4.155-14.251-6.354-21.164-2.199-6.914-4.458-14.15-6.374-21.245-7.403-27.653-9.944-56.599-12.385-84.697-1.19-13.644-2.42-27.754-4.215-41.519-1.09-8.571-2.623-17.505-7.907-24.075-11.74-14.574-34.795-10.107-41.592-8.429-8.573 2.163-14.664 5.033-19.203 9.015-7.321 6.428-11.618 17.162-11.779 29.452-.121 10.107 2.319 20.376 4.679 30.321l.605 2.527a701.1 701.1 0 0 1 17.529 209.194 231.443 231.443 0 0 1-6.858 45.766h-2.017c4.135-14.96 5.748-30.768 6.777-45.969Z"/>
    <path fill="#342F2C" d="M-89.936 945.466c.438-14.833.048-29.68-1.17-44.47l-4.034-62.886c-.908-14.473-2.017-32.463 6.152-46.957a11.658 11.658 0 0 1 4.377-4.831c4.316-2.284 9.42.364 12.768 3.598 9.641 9.339 12.526 22.923 15.33 36.082.625 2.931 1.25 5.842 2.016 8.692 3.49 14.392 9.4 28.3 15.108 41.883 7.12 16.818 14.463 34.223 17.246 52.557 4.034 26.743-1.513 53.183-9.843 81.686h-2.017c8.35-28.483 13.958-54.862 9.944-81.383-2.743-18.193-10.085-35.375-17.105-52.092-5.728-13.583-11.679-27.652-15.208-42.206-.686-2.85-1.312-5.801-2.017-8.733-2.744-12.856-5.588-26.156-14.786-35.051-2.824-2.749-7.06-5.053-10.408-3.274a9.938 9.938 0 0 0-3.57 4.043c-7.927 13.947-6.797 31.614-5.89 45.825l4.035 62.865a402.438 402.438 0 0 1 1.17 44.754c-1.07 22.235-5.79 43.945-11.619 65.232h-2.017c5.708-21.348 10.489-43.139 11.538-65.334Z"/>
    <path fill="#342F2C" d="M-79.064 974.959a267.5 267.5 0 0 1 1.674-3.578 70.685 70.685 0 0 0 6.192-16.475 78.998 78.998 0 0 0 .827-16.171c-.161-9.601-.323-19.526 5.729-27.107l.383-.485.605.122c8.976 1.879 16.48 10.389 20.05 22.76 5.425 18.759 2.36 38.407-.626 57.469-.988 6.347-2.017 12.796-2.703 19.246h-2.017c.706-6.57 1.715-13.122 2.723-19.55 2.945-18.819 6.052-38.285.686-56.599-3.288-11.36-9.944-19.243-17.911-21.204-5.204 6.933-5.063 15.868-4.902 25.328a80.512 80.512 0 0 1-.867 16.515 73.604 73.604 0 0 1-6.334 16.959c-.565 1.193-1.13 2.365-1.674 3.558a218.055 218.055 0 0 0-12.102 34.993h-2.017a225.92 225.92 0 0 1 12.284-35.781Zm362.285-864.47a554.775 554.775 0 0 1 11.053 57.165c2.622 16.758 5.345 34.081 9.44 50.818 10.468 42.894 28.945 73.66 54.945 91.428 17.084 11.684 37.658 17.647 55.53 21.932 50.104 12.007 102.305 16.515 152.772 20.861l70.88 6.064c52.706 4.548 112.451 9.703 164.269-13.968 23.035-10.531 43.367-26.278 63.034-41.641l46.755-36.385v2.568l-45.505 35.435c-19.767 15.362-40.2 31.27-63.436 41.883-30.7 14.008-64.042 18.031-97.082 18.031-23.236 0-46.392-2.022-68.217-3.881l-70.879-6.065c-50.427-4.346-102.871-8.853-153.055-20.901-18.053-4.326-38.849-10.349-56.196-22.235-26.423-18.051-45.182-49.221-55.772-92.62-4.034-16.818-6.837-34.182-9.48-51-2.965-18.819-6.051-38.285-11.013-56.963A276.263 276.263 0 0 0 221.66.101h2.682a278.191 278.191 0 0 1 58.879 110.388Z"/>
    <path fill="#342F2C" d="M244.412 190.112c1.614 6.408 3.086 12.977 4.539 19.345 4.82 21.386 9.823 43.52 20.17 63.067 19.727 37.376 54.824 58.843 80.683 70.284 34.754 15.302 72.816 21.851 105.775 26.763 36.791 5.499 74.389 9.865 110.817 14.15 60.129 6.974 122.295 14.15 183.836 11.926 61.54-2.223 115.961-14.149 161.627-35.495v2.223c-45.727 21.144-99.966 33.03-161.547 35.294a663.12 663.12 0 0 1-23.72.424c-53.896 0-107.954-6.266-160.519-12.371-36.307-4.204-73.965-8.57-110.797-14.149-33.08-4.933-71.303-11.502-106.279-26.905-26.222-11.563-61.742-33.313-81.731-71.214-10.449-19.769-15.471-42.025-20.332-63.552-1.433-6.348-2.905-12.917-4.519-19.305C224.319 119.005 187.959 53.359 136.903.101h2.783c50.628 53.262 86.697 118.705 104.726 190.011Zm441.899 720.607a472.582 472.582 0 0 1-.787-52.556c.625-27.593 1.271-56.135-6.172-82.999-11.417-41.236-40.341-74.407-68.58-106.487-17.952-20.497-36.489-41.701-50.629-65.069-14.865-24.559-26.221-53.566-34.552-88.678-3.631-15.282-6.394-31.453-2.017-46.31 4.861-16.171 18.9-30.685 37.538-38.609 17.548-7.499 37.093-9.015 53.895-9.5 47.926-1.375 96.457 4.932 143.374 11.077 50.285 6.549 102.103 13.301 153.296 10.511v2.021c-51.394 2.79-103.273-4.042-153.619-10.531-46.857-6.064-95.286-12.432-143.051-11.057-16.6.485-35.923 2.021-53.169 9.339-18.154 7.701-31.688 21.669-36.308 37.335-4.518 15.1-1.351 31.271 2.018 45.259 8.33 34.889 19.545 63.714 34.29 88.092 14.119 23.206 32.555 44.35 50.426 64.806 28.239 32.241 57.386 65.574 68.923 107.255 7.524 27.148 6.879 55.851 6.253 83.605a472.941 472.941 0 0 0 .767 52.374 231.546 231.546 0 0 0 33.483 100.263h-2.36a233.517 233.517 0 0 1-33.019-100.141Z"/>
    <path fill="#342F2C" d="M778.712 459.281c14.564-4.043 30.055-1.031 43.71 1.698l89.417 17.869v2.021l-89.82-17.95c-13.434-2.688-28.663-5.74-42.742-1.738-13.232 3.76-25.879 16.171-24.204 30.442 1.25 10.249 9.278 18.334 16.378 25.47 68.439 68.828 116.183 143.943 140.307 219.119v6.873c-23.337-76.955-71.626-154.051-141.739-224.577-7.322-7.358-15.612-15.706-16.964-26.642-1.714-15.302 11.679-28.603 25.657-32.585Zm-32.616 510.847a389.474 389.474 0 0 0 23.116 40.672h-2.441a395.725 395.725 0 0 1-22.47-39.763c-9.54-19.021-18.476-39.579-19.464-61.228-1.069-23.893 9.117-46.148 25.98-56.599 8.794-5.498 19.081-7.944 29.045-10.309 10.469-2.486 21.28-5.054 30.075-11.178 7.806-5.438 13.595-13.382 19.202-21.084 2.804-3.84 5.688-7.802 8.835-11.441 8.956-10.45 24.527-20.678 38.909-15.099 8.956 3.476 14.644 12.128 18.154 18.435 8.068 14.149 12.969 29.815 16.882 45.623v8.752c-4.195-18.475-9.379-36.89-18.637-53.385-3.348-6.064-8.775-14.311-17.105-17.545-13.393-5.195-28.118 4.588-36.67 14.533-3.066 3.578-5.93 7.52-8.714 11.32-5.708 7.823-11.598 15.908-19.686 21.548-9.117 6.347-20.171 8.955-30.761 11.482-9.803 2.324-19.928 4.75-28.44 10.107-16.258 10.107-26.061 31.715-25.032 54.881.948 21.123 9.803 41.458 19.222 60.278Z"/>
    <path fill="#342F2C" d="M844.206 498.435c-5.667 3.093-8.653 9.097-10.085 13.584-5.829 17.344.968 34.606 5.547 43.359 6.475 12.371 15.955 23.125 25.113 33.515l2.299 2.607c16.137 18.435 32.818 39.094 44.9 61.835v4.386c-12.103-23.933-29.47-45.623-46.393-64.887l-2.299-2.587c-9.238-10.491-18.799-21.346-25.395-33.939-4.72-9.036-11.739-26.885-5.668-44.936 1.634-4.831 4.882-11.299 11.114-14.716 4.821-2.648 10.489-2.91 15.854-2.83A140.36 140.36 0 0 1 912 505.187v2.284a137.835 137.835 0 0 0-52.847-11.562c-5.204-.142-10.529.101-14.947 2.526ZM821.858 1010.8h-2.34a169.347 169.347 0 0 1-12.365-24.724c-5.95-15.18-11.538-38.063-4.216-60.884a68.853 68.853 0 0 1 28.118-36.688 44.31 44.31 0 0 1 22.854-7.803c20.513-.344 34.975 17.889 40.22 25.793a150.154 150.154 0 0 1 17.77 39.923v7.155c-4.558-16.171-10.085-32.039-19.444-45.966-5.063-7.621-18.88-25.308-38.506-24.884a42.304 42.304 0 0 0-21.805 7.48 67.642 67.642 0 0 0-27.21 35.697c-7.16 22.236-1.674 44.633 4.156 59.51a168.328 168.328 0 0 0 12.768 25.391Z"/>
    <path fill="#342F2C" d="M860.04 1010.8h-2.017l-1.573-5.24c-4.034-13.541-9.036-30.318-4.841-46.065a11.142 11.142 0 0 1 2.279-4.771c2.179-2.385 6.052-3.072 10.509-2.021 17.307 4.427 25.758 23.731 29.813 39.154.564 2.123 1.089 4.266 1.633 6.408 1.029 4.165 2.017 8.345 3.308 12.455h-2.017c-1.17-4.05-2.178-7.97-3.166-11.949-.545-2.163-1.07-4.286-1.634-6.408-3.913-14.898-12.103-33.535-28.36-37.699-1.775-.445-6.051-1.233-8.512 1.354a9.26 9.26 0 0 0-1.816 3.922c-4.034 15.1.868 31.655 4.821 44.96l1.573 5.9ZM609.178 740.639c26.605 6.387 44.9 49.969 51.536 74.791 7.181 26.804 8.189 57.509 3.005 91.266-3.711 24.136-15.006 66.605-49.034 79.663a54.027 54.027 0 0 1-19.384 3.497c-21.2 0-43.408-11.481-56.821-30.947-15.027-21.771-19.828-51.445-13.535-83.544 5.608-28.482 18.638-54.8 31.225-80.25 1.573-3.153 3.187-6.812 4.881-10.693 9.299-21.164 22.006-50.05 48.127-43.783Zm-82.256 135.049c-3.57 18.193-6.636 53.223 13.212 82.008 17.125 24.802 48.853 36.284 73.824 26.703 33.08-12.695 44.114-54.376 47.765-78.087 5.143-33.474 4.034-63.896-2.965-90.437-6.495-24.257-24.367-67.09-50.044-73.255a28.127 28.127 0 0 0-6.656-.829c-20.05 0-30.559 23.852-39.151 43.379-1.715 3.881-3.349 7.58-4.922 10.774-12.546 25.328-25.516 51.505-31.063 79.744Z"/>
    <path fill="#342F2C" d="M602.724 805.606a21.388 21.388 0 0 1 15.571 7.419c12.244 14.149 9.763 44.47 8.29 62.663-.201 2.507-.383 4.75-.504 6.65-.867 14.15-2.541 25.713-7.826 36.163-6.314 12.492-17.468 20.719-29.086 21.467h-1.573a15.71 15.71 0 0 1-7.686-1.758c-5.062-2.79-7.301-8.632-8.713-13.422-3.308-11.3-4.902-24.257-5.043-40.691 0-8.935.464-54.436 18.759-71.901a22.972 22.972 0 0 1 17.811-6.59Zm-34.553 78.532c.141 16.292 1.715 29.027 4.962 40.144 1.291 4.407 3.349 9.784 7.746 12.129a15.033 15.033 0 0 0 8.068 1.455c13.03-.849 22.712-11.077 27.412-20.375 5.123-10.107 6.757-21.448 7.624-35.355.101-1.92.303-4.184.505-6.691 1.432-17.869 3.873-47.765-7.806-61.187a19.557 19.557 0 0 0-14.12-6.752 21.145 21.145 0 0 0-16.298 6.065c-18.012 17.323-18.133 65.19-18.093 70.567ZM201.086 153.606c3.792 11.845 7.16 24.074 10.408 35.92 8.169 29.634 16.6 60.278 32.273 87.122 25.435 43.864 71.989 80.007 134.619 104.526a992.711 992.711 0 0 0 11.86 4.528c29.247 11.098 59.483 22.559 76.81 48.17 9.097 13.442 13.433 29.411 16.802 43.318a578.942 578.942 0 0 1 14.664 94.218c1.271 17.606-2.662 28.663-11.679 32.867a17.988 17.988 0 0 1-7.665 1.638c-6.495 0-13.03-2.952-17.911-5.519-47.078-24.843-80.199-69.05-112.23-111.803-32.938-43.945-66.986-89.406-116.082-113.198-40.825-19.83-88.751-22.619-131.008-25.106-89.296-5.235-190.492-11.158-277.145 31.11-25.637 12.512-49.519 29.168-72.614 45.259-20.897 14.574-42.5 29.653-65.413 41.661a307.139 307.139 0 0 1-156.625 33.757 310.434 310.434 0 0 1-131.11-35.253v-2.284c87.965 47.118 197.935 48.513 286.686 1.92 22.793-11.947 44.375-26.986 65.191-41.52 23.136-16.171 47.078-32.847 72.877-45.42 87.117-42.45 188.595-36.547 278.133-31.312 42.358 2.487 90.566 5.317 131.754 25.308 49.54 24.055 83.749 69.718 116.829 113.865 31.89 42.571 64.869 86.597 111.564 111.177 6.454 3.416 15.934 7.499 23.761 3.861 8.189-3.821 11.739-14.15 10.529-30.887a577.414 577.414 0 0 0-14.604-93.914c-3.328-13.725-7.604-29.492-16.52-42.651-16.963-25.086-46.896-36.386-75.861-47.402-4.035-1.516-8.069-3.012-11.881-4.548-63.033-24.682-109.95-61.127-135.627-105.376-15.713-27.086-24.205-57.852-32.273-87.627-3.248-11.805-6.616-24.034-10.388-35.839C183.678 105.8 153.422 41.297 95.533.102h3.429c56.8 41.559 86.733 105.415 102.124 153.504Z"/>
    <path fill="#342F2C" d="M172.302 166.482c2.562 11.077 4.539 22.498 6.435 33.555 3.691 21.488 7.503 43.723 15.995 64.078 14.664 35.132 43.871 66.828 89.295 96.886 15.693 10.39 32.273 20.032 48.289 29.371 22.046 12.835 44.839 26.116 65.736 41.519 35.016 25.793 52.565 52.961 52.161 80.734v.748l-.746.203a39.401 39.401 0 0 1-10.469 1.414c-22.429 0-42.64-18.9-59.826-38.143-60.512-67.717-128.446-134.079-216.068-161.004-32.414-9.966-68.479-14.938-116.99-16.171-113.661-2.79-201.524 18.071-268.632 63.815-9.823 6.711-19.404 14.15-28.663 21.285-8.31 6.408-16.882 13.059-25.636 19.163-51.778 36.224-114.247 56.599-180.649 58.843a340.047 340.047 0 0 1-143.494-25.692v-2.385c103.637 43.52 230.752 32.059 322.993-32.464 8.693-6.064 17.266-12.714 25.556-19.122 9.279-7.176 18.88-14.595 28.763-21.326C-156.177 315.782-67.93 294.8 46.155 297.61c48.652 1.192 84.878 6.205 117.494 16.171 88.065 27.066 156.322 93.671 216.976 161.59 19.222 21.548 42.237 42.631 67.531 36.385 0-26.803-17.226-53.142-51.375-78.309-20.796-15.322-43.548-28.582-65.534-41.377-16.137-9.359-32.636-19.022-48.41-29.452-45.767-30.321-75.216-62.259-90.041-97.795-8.573-20.558-12.426-42.914-16.137-64.503-1.896-11.037-3.852-22.437-6.414-33.454C154.402 99.986 115.417 40.9 60.214.101h3.369c54.508 41.043 92.969 99.903 108.719 166.381Z"/>
    <path fill="#342F2C" d="M90.631 55.022c17.67 26.5 31.789 57.549 45.828 100.686 8.29 25.49 14.906 54.578.968 77.541-15.148 24.903-46.937 29.633-68.721 29.633-5.688 0-10.71-.323-14.584-.687-55.207-5.215-95.407-20.659-126.49-48.635C-132.375 159.569-170.8 80.775-177.114.121h2.017c6.314 80.088 44.497 158.316 104.08 211.943 30.74 27.653 70.598 42.955 125.341 48.13 18.315 1.718 62.912 2.446 81.429-27.976 13.494-22.236 6.979-50.818-1.17-75.863-13.978-42.955-28.037-73.842-45.586-100.2A213.83 213.83 0 0 0 35.767.1h3.389A216.345 216.345 0 0 1 90.63 55.022Z"/>
    <path fill="#342F2C" d="M94.343 157.163a75.216 75.216 0 0 1 1.876 17.586c-1.07 26.663-26.545 45.947-50.548 49.181a76.788 76.788 0 0 1-10.388.687c-18.759 0-38.99-6.589-61.46-19.971C-97.057 162.439-143.812 82.614-146.454.101h2.016c2.643 81.826 49.015 160.964 119.29 202.806 26.221 15.646 49.357 21.872 70.597 19.022 23.176-3.133 47.764-21.67 48.793-47.26a72.926 72.926 0 0 0-1.836-17.122C78.976 93.135 40.83 36.591-13.812.101h3.61c53.769 36.871 91.229 93.15 104.545 157.062Z"/>
    <path fill="#342F2C" d="M-15.184 38.224C-1.73 50.798 12.188 63.775 22.858 79.28c8.39 12.129 18.153 31.231 17.205 52.839a32.396 32.396 0 0 1-4.397 16.333c-4.599 7.237-13.696 11.623-23.68 11.623-.989 0-2.017 0-3.006-.121-10.428-.93-19.807-5.963-27.613-10.774a199.68 199.68 0 0 1-63.669-63.76A200.175 200.175 0 0 1-111.519.101h2.017c6.051 59.288 41.29 116.17 91.898 147.36 7.604 4.689 16.741 9.601 26.746 10.47 10.388.93 20.17-3.234 24.81-10.571a30.517 30.517 0 0 0 4.034-15.323c.968-21.062-8.633-39.7-16.843-51.606-10.549-15.322-24.386-28.3-37.76-40.73L-58.973.1h2.965l40.825 38.123Z"/>
    <path fill="#342F2C" d="M-49.292 49.302c27.27-4.528 42.217 38.891 45.686 55.992a6.282 6.282 0 0 1-.928 5.802 5.81 5.81 0 0 1-4.256 1.334h-.181c-9.945 0-20.474-4.528-29.651-12.513-10.086-8.793-28.36-28.683-24.89-41.014 1.431-5.033 6.212-8.267 14.22-9.601Zm12.102 49.1c8.814 7.661 18.88 11.926 28.239 12.007a4.034 4.034 0 0 0 2.985-.748c.867-.87.666-2.568.383-4.043-3.146-15.464-17.83-58.62-43.367-54.396-7.18 1.193-11.416 3.922-12.606 8.086-3.329 11.926 16.378 32.24 24.265 39.093h.1Zm-188.434 154.151c8.068-10.754 17.044-21.629 29.247-28.3a78.538 78.538 0 0 1 26.504-8.085c32.919-4.932 63.76 2.688 84.576 20.921 6.051 5.256 9.58 10.107 11.215 15.464 1.815 5.801 1.15 13.705-4.377 18.354a26.558 26.558 0 0 1-7.766 4.043c-35.137 13.483-70.133 28.623-103.98 45.037l-.766.384c-8.996 4.366-18.315 8.874-28.36 10.349a37.483 37.483 0 0 1-5.386.384 32.37 32.37 0 0 1-12.834-2.362 32.415 32.415 0 0 1-10.866-7.239 26.303 26.303 0 0 1-6.089-11.361 26.342 26.342 0 0 1 .038-12.896c2.582-11.987 12.727-24.54 21.683-35.637 2.622-3.194 4.982-6.246 7.161-9.056Zm-21.321 67.555c6.334 6.792 16.802 10.107 27.331 8.55 9.723-1.435 18.9-5.882 27.755-10.107l.767-.384a1333.437 1333.437 0 0 1 104.14-45.097 24.977 24.977 0 0 0 7.202-3.679c4.034-3.456 5.648-10.107 3.751-16.171-1.532-4.932-4.921-9.541-10.63-14.554-16.297-14.271-38.888-21.892-63.819-21.892-6.401.011-12.793.497-19.122 1.456a76.802 76.802 0 0 0-25.839 7.903c-11.86 6.469-20.755 17.142-28.602 27.734-2.017 2.83-4.558 5.902-7.18 9.137-8.815 10.915-18.799 23.266-21.28 34.788a24.297 24.297 0 0 0 5.526 22.316Z"/>
    <path fill="#342F2C" d="M-195.288 250.754c8.533-6.307 24.911-9.966 36.509-10.713a27.561 27.561 0 0 1 14.422 2.304 13.289 13.289 0 0 1 5.601 5.128 13.33 13.33 0 0 1 1.883 7.364 15.36 15.36 0 0 1-3.228 7.398c-6.979 9.622-18.375 14.736-29.429 19.143a46.304 46.304 0 0 1-16.56 4.043 18.915 18.915 0 0 1-7.564-1.496 16.565 16.565 0 0 1-6.925-5.449 16.608 16.608 0 0 1-3.16-8.236 22.009 22.009 0 0 1 1.719-10.835 21.963 21.963 0 0 1 6.732-8.651Zm-6.434 19.345a14.435 14.435 0 0 0 2.734 7.316 14.388 14.388 0 0 0 6.141 4.812c7.06 3.052 15.35.243 22.571-2.648 10.791-4.306 21.885-9.278 28.541-18.455a13.342 13.342 0 0 0 2.865-6.428 11.231 11.231 0 0 0-6.435-10.471 21.87 21.87 0 0 0-10.468-2.163h-2.885c-9.44.606-26.665 3.841-35.42 10.309a19.85 19.85 0 0 0-6.123 7.878 19.887 19.887 0 0 0-1.521 9.87v-.02ZM-216.85 78.774c7.826 25.995 8.209 46.674 1.17 63.209-4.034 9.399-10.308 17.384-16.56 24.6a115.864 115.864 0 0 1-14.12 14.332c-3.207 2.607-6.676 4.932-10.085 7.196-2.36 1.597-4.781 3.234-7.08 4.932-23.116 17.162-37.679 44.006-49.519 67.798l-.524 1.071a121.664 121.664 0 0 1-11.538 19.951 64.363 64.363 0 0 1-19.515 16.698 64.23 64.23 0 0 1-24.477 7.721c-2.171.225-4.353.34-6.536.343a69.171 69.171 0 0 1-41.914-14.412 55.545 55.545 0 0 1-11.961-12.371 62.456 62.456 0 0 1-8.653-21.003 102.988 102.988 0 0 1-1.276-40.478 102.915 102.915 0 0 1 14.427-37.83c3.247-5.094 6.959-9.946 10.549-14.655 2.743-3.558 5.567-7.237 8.068-10.997a132.766 132.766 0 0 0 23.116-78.49A132.863 132.863 0 0 0-410.327.1h2.521a134.828 134.828 0 0 1 26.605 76.247 134.94 134.94 0 0 1-23.458 79.704c-2.622 3.8-5.446 7.499-8.189 11.077-3.571 4.669-7.262 9.48-10.449 14.513a102.269 102.269 0 0 0-12.909 76.813 59.79 59.79 0 0 0 8.351 20.214 52.87 52.87 0 0 0 11.517 11.927 66.726 66.726 0 0 0 47.018 13.664 62.289 62.289 0 0 0 23.737-7.454 62.412 62.412 0 0 0 18.944-16.156 121.718 121.718 0 0 0 11.316-19.627l.544-1.072c11.921-24.014 26.625-51.101 50.104-68.525 2.34-1.738 4.801-3.396 7.161-4.993 3.308-2.223 6.717-4.548 9.863-7.095a114.325 114.325 0 0 0 13.958-14.15c6.152-7.115 12.365-14.938 16.238-24.074 6.858-16.172 6.434-36.386-1.251-61.835A252.881 252.881 0 0 0-259.047.02h2.541a255.224 255.224 0 0 1 39.656 78.754Z"/>
    <path fill="#342F2C" d="M-283.655.101h2.642a149.82 149.82 0 0 1 28.239 50.919c7.584 24.52 7.201 50.11-1.069 72.042-8.27 21.933-24.205 39.984-39.474 57.408-12.99 14.736-26.403 29.998-35.218 47.624-1.271 2.547-2.461 5.195-3.631 7.762a117.784 117.784 0 0 1-7.806 15.221c-5.486 8.51-12.667 14.15-20.17 15.828a23.981 23.981 0 0 1-5.184.566c-12.103 0-22.894-9.238-27.533-19.244-4.801-10.349-5.547-23.205-2.279-39.316 3.549-17.404 10.388-34.182 16.983-50.414 7.544-18.556 15.37-37.739 18.154-57.771 2.985-21.386.181-43.116-2.945-61.531-2.299-13.463-5.305-27.087-10.912-39.094h2.218c5.446 11.987 8.411 25.45 10.691 38.75 3.146 18.577 6.051 40.428 2.945 62.158-2.844 20.214-10.711 39.579-18.295 58.257-6.576 16.171-13.373 32.827-16.883 50.049-3.187 15.666-2.481 28.118 2.138 38.063 4.962 10.693 17.327 20.477 30.458 17.546 7.019-1.577 13.756-6.893 18.96-14.958a114.599 114.599 0 0 0 7.665-14.939c1.17-2.587 2.38-5.255 3.671-7.843 8.916-17.869 22.43-33.211 35.5-48.068 15.229-17.263 30.962-35.132 39.111-56.781 8.149-21.649 8.472-46.634 1.029-70.749A149.028 149.028 0 0 0-283.655.101Z"/>
    <path fill="#342F2C" d="M-318.833.101h2.703a115.562 115.562 0 0 1 25.96 54.436c4.034 20.72 3.227 43.319-2.239 67.191-1.513 6.61-3.873 13.766-10.086 16.859a12.437 12.437 0 0 1-5.647 1.314 19.125 19.125 0 0 1-15.068-8.713c-4.296-6.549-5.123-14.473-6.051-22.235-3.026-28.562-7.019-57.407-11.82-85.707-1.533-8.934-3.207-16.899-7.705-23.246h2.481c4.034 6.468 5.728 14.25 7.201 22.902 4.82 28.3 8.814 57.226 11.86 85.849.787 7.419 1.593 15.08 5.607 21.225 3.752 5.72 11.76 9.925 18.154 6.711 5.426-2.729 7.584-9.359 8.996-15.504 5.386-23.61 6.051-45.927 2.219-66.363A113.038 113.038 0 0 0-318.833.101Zm-157.694 0h2.884A93.625 93.625 0 0 1-447.3 62.057c.989 25.57-7.725 52.819-24.568 76.671-2.965 4.225-6.192 8.369-9.318 12.351-4.418 5.66-8.976 11.502-12.849 17.627-7.766 12.29-13.797 27.268-18.981 47.118-6.737 25.834-18.315 90.134 19.828 129.086 20.332 20.78 49.559 29.149 78.081 37.235 19.323 5.518 29.328 13.947 29.772 25.045.302 7.762-4.841 15.625-13.111 20.052-7.08 3.76-15.229 4.79-23.681 5.599-16.795 1.577-32.898 2.372-48.308 2.385-51.738 0-95.347-9.035-130.464-26.925v-2.203c45.323 23.367 105.149 31.675 178.591 24.722 8.532-.809 16.136-1.779 22.914-5.377 7.604-4.043 12.324-11.179 12.102-18.193-.403-10.107-9.924-17.93-28.42-23.226-28.582-8.085-58.153-16.595-78.868-37.759-38.848-39.7-27.149-104.85-20.332-131.007 5.245-20.072 11.356-35.212 19.223-47.684 4.034-6.226 8.532-12.129 12.97-17.789 3.106-4.043 6.333-8.085 9.278-12.27 16.56-23.508 25.153-50.312 24.205-75.458-1.029-23.913-11.215-46.755-27.291-61.956Z"/>
    <path fill="#342F2C" d="M-513.076.101h2.884c17.427 16.656 25.173 42.45 24.87 64.503-.423 31.614-14.119 61.875-26.786 87.748-1.392 2.83-2.784 5.64-4.196 8.47-12.102 24.398-24.628 49.605-29.267 76.631-6.172 35.981 1.27 76.712 22.732 124.498 2.279 5.094 4.861 10.875 3.671 16.737-2.017 9.48-12.364 13.786-23.176 13.786-2.366 0-4.728-.202-7.06-.607-19.726-3.416-36.912-13.3-51.596-25.691v-2.649c14.745 12.715 32.031 22.903 51.939 26.279 11.982 2.021 25.839-1.274 27.937-11.583 1.048-5.215-1.392-10.673-3.571-15.504-21.623-48.17-29.106-89.285-22.873-125.67 4.7-27.309 17.286-52.657 29.469-77.177 1.392-2.83 2.804-5.66 4.196-8.47 12.626-25.692 26.222-55.689 26.564-86.92.404-22.194-7.624-48.21-25.737-64.38Z"/>
    <path fill="#342F2C" d="M-575.666.101h3.51c22.631 16.515 34.814 45.845 36.973 71.396 2.945 34.606-7.726 69.152-17.125 99.634-9.884 31.999-20.171 65.109-17.649 98.786.141 2.021.322 3.921.524 5.882.918 6.771.979 13.63.182 20.416-1.291 8.086-6.052 17.728-15.31 20.861-1.881.651-3.86.972-5.85.95a23.487 23.487 0 0 1-10.549-2.587v-2.264a19.655 19.655 0 0 0 7.635 2.662 19.65 19.65 0 0 0 8.058-.641c8.472-2.85 12.829-12.128 13.978-19.284a79.103 79.103 0 0 0-.222-19.891c-.181-2.021-.363-4.042-.524-5.922-2.481-34.081 7.806-67.373 17.73-99.554 9.359-30.321 19.949-64.685 17.044-98.846-2.138-25.955-14.805-55.831-38.405-71.598Z"/>
    <path fill="#342F2C" d="M-600.96 62.158V57.75c8.714 16.171 14.785 35.557 18.154 57.974 3.711 24.944 5.648 69.071-18.154 102.161v-3.517c21.664-32.342 19.727-74.327 16.137-98.361a178.61 178.61 0 0 0-16.137-53.85Zm374.529 902.027c3.106-36.507 5.406-79.542-.827-121.85-11.255-76.287-48.531-144.853-84.596-211.155-9.924-18.192-21.159-38.932-38.062-53.284-22.188-18.799-51.98-25.651-78.322-31.695-46.05-10.572-98.252-22.559-147.771-11.583-6.575 1.456-13.171 3.335-19.545 5.135l-5.345 1.516v-2.022l4.78-1.354c6.414-1.819 13.051-3.699 19.667-5.175 49.962-11.057 102.406.97 148.657 11.603 26.585 6.064 56.7 12.997 79.19 32.12 17.186 14.594 28.522 35.455 38.526 53.85 36.146 66.463 73.522 135.17 84.717 211.822 6.273 42.449 4.034 85.686.847 122.314-1.331 15.626-3.106 31.635-7.705 46.493h-2.017c4.679-14.939 6.434-31.049 7.806-46.735Z"/>
    <path fill="#342F2C" d="M-293.156 732.169c-25.838-67.717-57.002-108.468-98.029-128.217-20.393-9.824-43.286-14.15-64.97-17.182-38.647-5.559-93.027-10.531-144.744 3.578v-2.021c51.899-14.029 106.319-9.036 145.027-3.477 21.865 3.133 44.92 7.418 65.575 17.364 54.46 26.278 82.699 86.374 99.017 129.369 27.352 71.679 53.15 176.427 27.352 279.357h-2.017c25.798-102.728.08-207.254-27.211-278.771Z"/>
    <path fill="#342F2C" d="M-295.899 890.424a497.526 497.526 0 0 0-31.829-115.219c-27.029-65.595-63.86-108.044-109.507-126.236-20.675-8.086-43.205-11.159-64.546-13.524-31.426-3.456-66.422-6.064-99.138 1.719v-2.022c32.878-7.762 67.894-5.114 99.36-1.637 21.442 2.365 44.134 5.357 65.051 13.644 46.17 18.193 83.385 61.067 110.615 127.348a498.579 498.579 0 0 1 31.971 115.684c7.342 48.898 4.498 88.659-8.653 120.679h-2.179c13.313-31.879 16.197-71.518 8.855-120.436Zm-88.569 109.438c-7.403-5.235-16.137-8.611-24.447-11.886-3.389-1.313-6.898-2.668-10.287-4.144-30.922-13.662-56.103-37.731-71.182-68.04a287.734 287.734 0 0 1-11.598-28.683c-3.207-8.813-6.495-17.91-10.549-26.48a322.39 322.39 0 0 0-18.537-32.343c-12.244-19.547-24.891-39.74-28.058-62.845a165.95 165.95 0 0 1-.887-24.479c0-5.882.161-11.967-.242-17.889-.787-11.765-4.216-27.734-15.955-36.992a38.27 38.27 0 0 0-24.75-7.398v-2.021a40.28 40.28 0 0 1 25.94 7.944c12.324 9.723 15.894 26.278 16.721 38.406.403 6.064.323 12.129.242 18.071a164.046 164.046 0 0 0 .868 24.156c3.106 22.68 15.652 42.692 27.775 62.037a321.762 321.762 0 0 1 18.637 32.524c4.034 8.651 7.423 17.808 10.63 26.662a286.825 286.825 0 0 0 11.518 28.481c14.876 29.851 39.7 53.548 70.173 66.989 3.349 1.456 6.838 2.81 10.207 4.043 8.491 3.315 17.286 6.752 24.89 12.129a45.708 45.708 0 0 1 12.103 12.596h-2.38a44.067 44.067 0 0 0-10.832-10.838Zm-86.23-4.406c-3.59-2.446-7.342-4.852-10.973-7.156-11.719-7.5-23.821-15.241-32.817-26.117-11.881-14.351-17.186-32.665-22.309-50.373-2.219-7.661-4.518-15.585-7.302-23.064a318.704 318.704 0 0 0-18.274-38.083c-10.63-19.85-21.603-40.428-24.709-63.007-.262-1.9-.484-3.84-.686-5.781-.847-7.762-1.735-15.827-6.051-22.235a21.456 21.456 0 0 0-7.06-6.529v-2.244a23.743 23.743 0 0 1 8.714 7.621c4.639 6.751 5.547 15.039 6.414 23.084.202 2.021.424 3.82.686 5.72 3.046 22.236 13.958 42.611 24.487 62.3a318.444 318.444 0 0 1 18.375 38.406c2.824 7.56 5.124 15.504 7.363 23.206 5.063 17.505 10.307 35.617 21.925 49.645 8.795 10.633 20.776 18.294 32.273 25.692 3.631 2.325 7.403 4.73 11.013 7.196a109.669 109.669 0 0 1 19.949 17.063h-2.723a111.333 111.333 0 0 0-18.295-15.344Zm-93.955-59.045c-9.722-25.066-19.706-50.737-36.307-70.385v-3.032c17.73 20.072 28.118 46.714 38.183 72.77 10.529 27.107 21.361 54.961 40.543 75.116h-2.763c-18.577-20.296-29.227-47.787-39.656-74.469Zm-36.307 13.24a160.162 160.162 0 0 1 20.695 30.604l1.574 2.85a250.116 250.116 0 0 0 16.822 27.695h-2.481a262.895 262.895 0 0 1-16.137-26.705l-1.573-2.87a166.408 166.408 0 0 0-18.9-28.542v-3.032Z"/>
    <path fill="#342F2C" d="M-448.772 758.932c9.783-2.83 23.499 8.975 31.688 16.03l2.017 1.698c32.549 27.599 53.77 66.281 59.584 108.609.545 4.245.948 9.137-1.109 13.342a15.824 15.824 0 0 1-5.942 6.004 15.77 15.77 0 0 1-8.178 2.081c-.383.02-.767.02-1.149 0a27.632 27.632 0 0 1-15.895-7.337c-13.05-11.3-18.154-28.3-23.297-44.471-3.469-11.259-7.04-22.882-13.131-32.727a92.889 92.889 0 0 0-13.091-14.735c-11.437-11.381-24.427-24.257-20.171-37.922 1.715-5.902 4.62-9.359 8.674-10.572Zm12.808 46.897a95.702 95.702 0 0 1 13.373 15.099c6.233 10.107 9.844 21.832 13.353 33.192 5.184 16.818 10.086 32.706 22.692 43.621a25.812 25.812 0 0 0 14.705 6.873 13.87 13.87 0 0 0 7.712-1.48 13.904 13.904 0 0 0 5.681-5.433c1.815-3.699 1.432-8.207.928-12.128-5.745-41.832-26.715-80.059-58.878-107.336l-2.017-1.698c-7.121-6.065-18.577-15.99-27.17-15.99a9.672 9.672 0 0 0-2.663.364c-3.348.95-5.849 4.043-7.423 9.076-3.872 12.391 8.654 24.863 19.707 35.84Z"/>
  </g>
</svg>
